%TF.GenerationSoftware,KiCad,Pcbnew,9.0.5*%
%TF.CreationDate,2026-01-21T19:05:34-06:00*%
%TF.ProjectId,Elysium_2026_ACB,456c7973-6975-46d5-9f32-3032365f4143,rev?*%
%TF.SameCoordinates,Original*%
%TF.FileFunction,Legend,Bot*%
%TF.FilePolarity,Positive*%
%FSLAX46Y46*%
G04 Gerber Fmt 4.6, Leading zero omitted, Abs format (unit mm)*
G04 Created by KiCad (PCBNEW 9.0.5) date 2026-01-21 19:05:34*
%MOMM*%
%LPD*%
G01*
G04 APERTURE LIST*
%ADD10C,0.150000*%
%ADD11C,0.100000*%
%ADD12C,0.508000*%
%ADD13C,0.120000*%
%ADD14C,0.200000*%
%ADD15C,0.400000*%
%ADD16C,0.152400*%
%ADD17C,0.000000*%
%ADD18C,0.127000*%
G04 APERTURE END LIST*
D10*
X183940476Y-73704819D02*
X184273809Y-73228628D01*
X184511904Y-73704819D02*
X184511904Y-72704819D01*
X184511904Y-72704819D02*
X184130952Y-72704819D01*
X184130952Y-72704819D02*
X184035714Y-72752438D01*
X184035714Y-72752438D02*
X183988095Y-72800057D01*
X183988095Y-72800057D02*
X183940476Y-72895295D01*
X183940476Y-72895295D02*
X183940476Y-73038152D01*
X183940476Y-73038152D02*
X183988095Y-73133390D01*
X183988095Y-73133390D02*
X184035714Y-73181009D01*
X184035714Y-73181009D02*
X184130952Y-73228628D01*
X184130952Y-73228628D02*
X184511904Y-73228628D01*
X183511904Y-73704819D02*
X183511904Y-72704819D01*
X183511904Y-72704819D02*
X182940476Y-73704819D01*
X182940476Y-73704819D02*
X182940476Y-72704819D01*
X181940476Y-73704819D02*
X182511904Y-73704819D01*
X182226190Y-73704819D02*
X182226190Y-72704819D01*
X182226190Y-72704819D02*
X182321428Y-72847676D01*
X182321428Y-72847676D02*
X182416666Y-72942914D01*
X182416666Y-72942914D02*
X182511904Y-72990533D01*
X180642857Y-94659580D02*
X180690476Y-94707200D01*
X180690476Y-94707200D02*
X180833333Y-94754819D01*
X180833333Y-94754819D02*
X180928571Y-94754819D01*
X180928571Y-94754819D02*
X181071428Y-94707200D01*
X181071428Y-94707200D02*
X181166666Y-94611961D01*
X181166666Y-94611961D02*
X181214285Y-94516723D01*
X181214285Y-94516723D02*
X181261904Y-94326247D01*
X181261904Y-94326247D02*
X181261904Y-94183390D01*
X181261904Y-94183390D02*
X181214285Y-93992914D01*
X181214285Y-93992914D02*
X181166666Y-93897676D01*
X181166666Y-93897676D02*
X181071428Y-93802438D01*
X181071428Y-93802438D02*
X180928571Y-93754819D01*
X180928571Y-93754819D02*
X180833333Y-93754819D01*
X180833333Y-93754819D02*
X180690476Y-93802438D01*
X180690476Y-93802438D02*
X180642857Y-93850057D01*
X179690476Y-94754819D02*
X180261904Y-94754819D01*
X179976190Y-94754819D02*
X179976190Y-93754819D01*
X179976190Y-93754819D02*
X180071428Y-93897676D01*
X180071428Y-93897676D02*
X180166666Y-93992914D01*
X180166666Y-93992914D02*
X180261904Y-94040533D01*
X179071428Y-93754819D02*
X178976190Y-93754819D01*
X178976190Y-93754819D02*
X178880952Y-93802438D01*
X178880952Y-93802438D02*
X178833333Y-93850057D01*
X178833333Y-93850057D02*
X178785714Y-93945295D01*
X178785714Y-93945295D02*
X178738095Y-94135771D01*
X178738095Y-94135771D02*
X178738095Y-94373866D01*
X178738095Y-94373866D02*
X178785714Y-94564342D01*
X178785714Y-94564342D02*
X178833333Y-94659580D01*
X178833333Y-94659580D02*
X178880952Y-94707200D01*
X178880952Y-94707200D02*
X178976190Y-94754819D01*
X178976190Y-94754819D02*
X179071428Y-94754819D01*
X179071428Y-94754819D02*
X179166666Y-94707200D01*
X179166666Y-94707200D02*
X179214285Y-94659580D01*
X179214285Y-94659580D02*
X179261904Y-94564342D01*
X179261904Y-94564342D02*
X179309523Y-94373866D01*
X179309523Y-94373866D02*
X179309523Y-94135771D01*
X179309523Y-94135771D02*
X179261904Y-93945295D01*
X179261904Y-93945295D02*
X179214285Y-93850057D01*
X179214285Y-93850057D02*
X179166666Y-93802438D01*
X179166666Y-93802438D02*
X179071428Y-93754819D01*
X155942857Y-87809580D02*
X155990476Y-87857200D01*
X155990476Y-87857200D02*
X156133333Y-87904819D01*
X156133333Y-87904819D02*
X156228571Y-87904819D01*
X156228571Y-87904819D02*
X156371428Y-87857200D01*
X156371428Y-87857200D02*
X156466666Y-87761961D01*
X156466666Y-87761961D02*
X156514285Y-87666723D01*
X156514285Y-87666723D02*
X156561904Y-87476247D01*
X156561904Y-87476247D02*
X156561904Y-87333390D01*
X156561904Y-87333390D02*
X156514285Y-87142914D01*
X156514285Y-87142914D02*
X156466666Y-87047676D01*
X156466666Y-87047676D02*
X156371428Y-86952438D01*
X156371428Y-86952438D02*
X156228571Y-86904819D01*
X156228571Y-86904819D02*
X156133333Y-86904819D01*
X156133333Y-86904819D02*
X155990476Y-86952438D01*
X155990476Y-86952438D02*
X155942857Y-87000057D01*
X155561904Y-87000057D02*
X155514285Y-86952438D01*
X155514285Y-86952438D02*
X155419047Y-86904819D01*
X155419047Y-86904819D02*
X155180952Y-86904819D01*
X155180952Y-86904819D02*
X155085714Y-86952438D01*
X155085714Y-86952438D02*
X155038095Y-87000057D01*
X155038095Y-87000057D02*
X154990476Y-87095295D01*
X154990476Y-87095295D02*
X154990476Y-87190533D01*
X154990476Y-87190533D02*
X155038095Y-87333390D01*
X155038095Y-87333390D02*
X155609523Y-87904819D01*
X155609523Y-87904819D02*
X154990476Y-87904819D01*
X154038095Y-87904819D02*
X154609523Y-87904819D01*
X154323809Y-87904819D02*
X154323809Y-86904819D01*
X154323809Y-86904819D02*
X154419047Y-87047676D01*
X154419047Y-87047676D02*
X154514285Y-87142914D01*
X154514285Y-87142914D02*
X154609523Y-87190533D01*
X138066666Y-96509580D02*
X138114285Y-96557200D01*
X138114285Y-96557200D02*
X138257142Y-96604819D01*
X138257142Y-96604819D02*
X138352380Y-96604819D01*
X138352380Y-96604819D02*
X138495237Y-96557200D01*
X138495237Y-96557200D02*
X138590475Y-96461961D01*
X138590475Y-96461961D02*
X138638094Y-96366723D01*
X138638094Y-96366723D02*
X138685713Y-96176247D01*
X138685713Y-96176247D02*
X138685713Y-96033390D01*
X138685713Y-96033390D02*
X138638094Y-95842914D01*
X138638094Y-95842914D02*
X138590475Y-95747676D01*
X138590475Y-95747676D02*
X138495237Y-95652438D01*
X138495237Y-95652438D02*
X138352380Y-95604819D01*
X138352380Y-95604819D02*
X138257142Y-95604819D01*
X138257142Y-95604819D02*
X138114285Y-95652438D01*
X138114285Y-95652438D02*
X138066666Y-95700057D01*
X137114285Y-96604819D02*
X137685713Y-96604819D01*
X137399999Y-96604819D02*
X137399999Y-95604819D01*
X137399999Y-95604819D02*
X137495237Y-95747676D01*
X137495237Y-95747676D02*
X137590475Y-95842914D01*
X137590475Y-95842914D02*
X137685713Y-95890533D01*
X184404819Y-88783333D02*
X183928628Y-88450000D01*
X184404819Y-88211905D02*
X183404819Y-88211905D01*
X183404819Y-88211905D02*
X183404819Y-88592857D01*
X183404819Y-88592857D02*
X183452438Y-88688095D01*
X183452438Y-88688095D02*
X183500057Y-88735714D01*
X183500057Y-88735714D02*
X183595295Y-88783333D01*
X183595295Y-88783333D02*
X183738152Y-88783333D01*
X183738152Y-88783333D02*
X183833390Y-88735714D01*
X183833390Y-88735714D02*
X183881009Y-88688095D01*
X183881009Y-88688095D02*
X183928628Y-88592857D01*
X183928628Y-88592857D02*
X183928628Y-88211905D01*
X183404819Y-89688095D02*
X183404819Y-89211905D01*
X183404819Y-89211905D02*
X183881009Y-89164286D01*
X183881009Y-89164286D02*
X183833390Y-89211905D01*
X183833390Y-89211905D02*
X183785771Y-89307143D01*
X183785771Y-89307143D02*
X183785771Y-89545238D01*
X183785771Y-89545238D02*
X183833390Y-89640476D01*
X183833390Y-89640476D02*
X183881009Y-89688095D01*
X183881009Y-89688095D02*
X183976247Y-89735714D01*
X183976247Y-89735714D02*
X184214342Y-89735714D01*
X184214342Y-89735714D02*
X184309580Y-89688095D01*
X184309580Y-89688095D02*
X184357200Y-89640476D01*
X184357200Y-89640476D02*
X184404819Y-89545238D01*
X184404819Y-89545238D02*
X184404819Y-89307143D01*
X184404819Y-89307143D02*
X184357200Y-89211905D01*
X184357200Y-89211905D02*
X184309580Y-89164286D01*
X169404819Y-100907142D02*
X168928628Y-100573809D01*
X169404819Y-100335714D02*
X168404819Y-100335714D01*
X168404819Y-100335714D02*
X168404819Y-100716666D01*
X168404819Y-100716666D02*
X168452438Y-100811904D01*
X168452438Y-100811904D02*
X168500057Y-100859523D01*
X168500057Y-100859523D02*
X168595295Y-100907142D01*
X168595295Y-100907142D02*
X168738152Y-100907142D01*
X168738152Y-100907142D02*
X168833390Y-100859523D01*
X168833390Y-100859523D02*
X168881009Y-100811904D01*
X168881009Y-100811904D02*
X168928628Y-100716666D01*
X168928628Y-100716666D02*
X168928628Y-100335714D01*
X169404819Y-101859523D02*
X169404819Y-101288095D01*
X169404819Y-101573809D02*
X168404819Y-101573809D01*
X168404819Y-101573809D02*
X168547676Y-101478571D01*
X168547676Y-101478571D02*
X168642914Y-101383333D01*
X168642914Y-101383333D02*
X168690533Y-101288095D01*
X168404819Y-102478571D02*
X168404819Y-102573809D01*
X168404819Y-102573809D02*
X168452438Y-102669047D01*
X168452438Y-102669047D02*
X168500057Y-102716666D01*
X168500057Y-102716666D02*
X168595295Y-102764285D01*
X168595295Y-102764285D02*
X168785771Y-102811904D01*
X168785771Y-102811904D02*
X169023866Y-102811904D01*
X169023866Y-102811904D02*
X169214342Y-102764285D01*
X169214342Y-102764285D02*
X169309580Y-102716666D01*
X169309580Y-102716666D02*
X169357200Y-102669047D01*
X169357200Y-102669047D02*
X169404819Y-102573809D01*
X169404819Y-102573809D02*
X169404819Y-102478571D01*
X169404819Y-102478571D02*
X169357200Y-102383333D01*
X169357200Y-102383333D02*
X169309580Y-102335714D01*
X169309580Y-102335714D02*
X169214342Y-102288095D01*
X169214342Y-102288095D02*
X169023866Y-102240476D01*
X169023866Y-102240476D02*
X168785771Y-102240476D01*
X168785771Y-102240476D02*
X168595295Y-102288095D01*
X168595295Y-102288095D02*
X168500057Y-102335714D01*
X168500057Y-102335714D02*
X168452438Y-102383333D01*
X168452438Y-102383333D02*
X168404819Y-102478571D01*
X191354819Y-87307142D02*
X190878628Y-86973809D01*
X191354819Y-86735714D02*
X190354819Y-86735714D01*
X190354819Y-86735714D02*
X190354819Y-87116666D01*
X190354819Y-87116666D02*
X190402438Y-87211904D01*
X190402438Y-87211904D02*
X190450057Y-87259523D01*
X190450057Y-87259523D02*
X190545295Y-87307142D01*
X190545295Y-87307142D02*
X190688152Y-87307142D01*
X190688152Y-87307142D02*
X190783390Y-87259523D01*
X190783390Y-87259523D02*
X190831009Y-87211904D01*
X190831009Y-87211904D02*
X190878628Y-87116666D01*
X190878628Y-87116666D02*
X190878628Y-86735714D01*
X190450057Y-87688095D02*
X190402438Y-87735714D01*
X190402438Y-87735714D02*
X190354819Y-87830952D01*
X190354819Y-87830952D02*
X190354819Y-88069047D01*
X190354819Y-88069047D02*
X190402438Y-88164285D01*
X190402438Y-88164285D02*
X190450057Y-88211904D01*
X190450057Y-88211904D02*
X190545295Y-88259523D01*
X190545295Y-88259523D02*
X190640533Y-88259523D01*
X190640533Y-88259523D02*
X190783390Y-88211904D01*
X190783390Y-88211904D02*
X191354819Y-87640476D01*
X191354819Y-87640476D02*
X191354819Y-88259523D01*
X190688152Y-89116666D02*
X191354819Y-89116666D01*
X190307200Y-88878571D02*
X191021485Y-88640476D01*
X191021485Y-88640476D02*
X191021485Y-89259523D01*
X183290476Y-60804819D02*
X183623809Y-60328628D01*
X183861904Y-60804819D02*
X183861904Y-59804819D01*
X183861904Y-59804819D02*
X183480952Y-59804819D01*
X183480952Y-59804819D02*
X183385714Y-59852438D01*
X183385714Y-59852438D02*
X183338095Y-59900057D01*
X183338095Y-59900057D02*
X183290476Y-59995295D01*
X183290476Y-59995295D02*
X183290476Y-60138152D01*
X183290476Y-60138152D02*
X183338095Y-60233390D01*
X183338095Y-60233390D02*
X183385714Y-60281009D01*
X183385714Y-60281009D02*
X183480952Y-60328628D01*
X183480952Y-60328628D02*
X183861904Y-60328628D01*
X182861904Y-60804819D02*
X182861904Y-59804819D01*
X182861904Y-59804819D02*
X182290476Y-60804819D01*
X182290476Y-60804819D02*
X182290476Y-59804819D01*
X181861904Y-59900057D02*
X181814285Y-59852438D01*
X181814285Y-59852438D02*
X181719047Y-59804819D01*
X181719047Y-59804819D02*
X181480952Y-59804819D01*
X181480952Y-59804819D02*
X181385714Y-59852438D01*
X181385714Y-59852438D02*
X181338095Y-59900057D01*
X181338095Y-59900057D02*
X181290476Y-59995295D01*
X181290476Y-59995295D02*
X181290476Y-60090533D01*
X181290476Y-60090533D02*
X181338095Y-60233390D01*
X181338095Y-60233390D02*
X181909523Y-60804819D01*
X181909523Y-60804819D02*
X181290476Y-60804819D01*
X121938094Y-91804819D02*
X121938094Y-90804819D01*
X121938094Y-90804819D02*
X121699999Y-90804819D01*
X121699999Y-90804819D02*
X121557142Y-90852438D01*
X121557142Y-90852438D02*
X121461904Y-90947676D01*
X121461904Y-90947676D02*
X121414285Y-91042914D01*
X121414285Y-91042914D02*
X121366666Y-91233390D01*
X121366666Y-91233390D02*
X121366666Y-91376247D01*
X121366666Y-91376247D02*
X121414285Y-91566723D01*
X121414285Y-91566723D02*
X121461904Y-91661961D01*
X121461904Y-91661961D02*
X121557142Y-91757200D01*
X121557142Y-91757200D02*
X121699999Y-91804819D01*
X121699999Y-91804819D02*
X121938094Y-91804819D01*
X120414285Y-91804819D02*
X120985713Y-91804819D01*
X120699999Y-91804819D02*
X120699999Y-90804819D01*
X120699999Y-90804819D02*
X120795237Y-90947676D01*
X120795237Y-90947676D02*
X120890475Y-91042914D01*
X120890475Y-91042914D02*
X120985713Y-91090533D01*
X179592857Y-72309580D02*
X179640476Y-72357200D01*
X179640476Y-72357200D02*
X179783333Y-72404819D01*
X179783333Y-72404819D02*
X179878571Y-72404819D01*
X179878571Y-72404819D02*
X180021428Y-72357200D01*
X180021428Y-72357200D02*
X180116666Y-72261961D01*
X180116666Y-72261961D02*
X180164285Y-72166723D01*
X180164285Y-72166723D02*
X180211904Y-71976247D01*
X180211904Y-71976247D02*
X180211904Y-71833390D01*
X180211904Y-71833390D02*
X180164285Y-71642914D01*
X180164285Y-71642914D02*
X180116666Y-71547676D01*
X180116666Y-71547676D02*
X180021428Y-71452438D01*
X180021428Y-71452438D02*
X179878571Y-71404819D01*
X179878571Y-71404819D02*
X179783333Y-71404819D01*
X179783333Y-71404819D02*
X179640476Y-71452438D01*
X179640476Y-71452438D02*
X179592857Y-71500057D01*
X179021428Y-71833390D02*
X179116666Y-71785771D01*
X179116666Y-71785771D02*
X179164285Y-71738152D01*
X179164285Y-71738152D02*
X179211904Y-71642914D01*
X179211904Y-71642914D02*
X179211904Y-71595295D01*
X179211904Y-71595295D02*
X179164285Y-71500057D01*
X179164285Y-71500057D02*
X179116666Y-71452438D01*
X179116666Y-71452438D02*
X179021428Y-71404819D01*
X179021428Y-71404819D02*
X178830952Y-71404819D01*
X178830952Y-71404819D02*
X178735714Y-71452438D01*
X178735714Y-71452438D02*
X178688095Y-71500057D01*
X178688095Y-71500057D02*
X178640476Y-71595295D01*
X178640476Y-71595295D02*
X178640476Y-71642914D01*
X178640476Y-71642914D02*
X178688095Y-71738152D01*
X178688095Y-71738152D02*
X178735714Y-71785771D01*
X178735714Y-71785771D02*
X178830952Y-71833390D01*
X178830952Y-71833390D02*
X179021428Y-71833390D01*
X179021428Y-71833390D02*
X179116666Y-71881009D01*
X179116666Y-71881009D02*
X179164285Y-71928628D01*
X179164285Y-71928628D02*
X179211904Y-72023866D01*
X179211904Y-72023866D02*
X179211904Y-72214342D01*
X179211904Y-72214342D02*
X179164285Y-72309580D01*
X179164285Y-72309580D02*
X179116666Y-72357200D01*
X179116666Y-72357200D02*
X179021428Y-72404819D01*
X179021428Y-72404819D02*
X178830952Y-72404819D01*
X178830952Y-72404819D02*
X178735714Y-72357200D01*
X178735714Y-72357200D02*
X178688095Y-72309580D01*
X178688095Y-72309580D02*
X178640476Y-72214342D01*
X178640476Y-72214342D02*
X178640476Y-72023866D01*
X178640476Y-72023866D02*
X178688095Y-71928628D01*
X178688095Y-71928628D02*
X178735714Y-71881009D01*
X178735714Y-71881009D02*
X178830952Y-71833390D01*
X178307142Y-71404819D02*
X177640476Y-71404819D01*
X177640476Y-71404819D02*
X178069047Y-72404819D01*
X193109958Y-95654819D02*
X193586148Y-95654819D01*
X193586148Y-95654819D02*
X193586148Y-94654819D01*
X192871862Y-94654819D02*
X192252815Y-94654819D01*
X192252815Y-94654819D02*
X192586148Y-95035771D01*
X192586148Y-95035771D02*
X192443291Y-95035771D01*
X192443291Y-95035771D02*
X192348053Y-95083390D01*
X192348053Y-95083390D02*
X192300434Y-95131009D01*
X192300434Y-95131009D02*
X192252815Y-95226247D01*
X192252815Y-95226247D02*
X192252815Y-95464342D01*
X192252815Y-95464342D02*
X192300434Y-95559580D01*
X192300434Y-95559580D02*
X192348053Y-95607200D01*
X192348053Y-95607200D02*
X192443291Y-95654819D01*
X192443291Y-95654819D02*
X192729005Y-95654819D01*
X192729005Y-95654819D02*
X192824243Y-95607200D01*
X192824243Y-95607200D02*
X192871862Y-95559580D01*
X139609580Y-82357142D02*
X139657200Y-82309523D01*
X139657200Y-82309523D02*
X139704819Y-82166666D01*
X139704819Y-82166666D02*
X139704819Y-82071428D01*
X139704819Y-82071428D02*
X139657200Y-81928571D01*
X139657200Y-81928571D02*
X139561961Y-81833333D01*
X139561961Y-81833333D02*
X139466723Y-81785714D01*
X139466723Y-81785714D02*
X139276247Y-81738095D01*
X139276247Y-81738095D02*
X139133390Y-81738095D01*
X139133390Y-81738095D02*
X138942914Y-81785714D01*
X138942914Y-81785714D02*
X138847676Y-81833333D01*
X138847676Y-81833333D02*
X138752438Y-81928571D01*
X138752438Y-81928571D02*
X138704819Y-82071428D01*
X138704819Y-82071428D02*
X138704819Y-82166666D01*
X138704819Y-82166666D02*
X138752438Y-82309523D01*
X138752438Y-82309523D02*
X138800057Y-82357142D01*
X138704819Y-82690476D02*
X138704819Y-83309523D01*
X138704819Y-83309523D02*
X139085771Y-82976190D01*
X139085771Y-82976190D02*
X139085771Y-83119047D01*
X139085771Y-83119047D02*
X139133390Y-83214285D01*
X139133390Y-83214285D02*
X139181009Y-83261904D01*
X139181009Y-83261904D02*
X139276247Y-83309523D01*
X139276247Y-83309523D02*
X139514342Y-83309523D01*
X139514342Y-83309523D02*
X139609580Y-83261904D01*
X139609580Y-83261904D02*
X139657200Y-83214285D01*
X139657200Y-83214285D02*
X139704819Y-83119047D01*
X139704819Y-83119047D02*
X139704819Y-82833333D01*
X139704819Y-82833333D02*
X139657200Y-82738095D01*
X139657200Y-82738095D02*
X139609580Y-82690476D01*
X139133390Y-83880952D02*
X139085771Y-83785714D01*
X139085771Y-83785714D02*
X139038152Y-83738095D01*
X139038152Y-83738095D02*
X138942914Y-83690476D01*
X138942914Y-83690476D02*
X138895295Y-83690476D01*
X138895295Y-83690476D02*
X138800057Y-83738095D01*
X138800057Y-83738095D02*
X138752438Y-83785714D01*
X138752438Y-83785714D02*
X138704819Y-83880952D01*
X138704819Y-83880952D02*
X138704819Y-84071428D01*
X138704819Y-84071428D02*
X138752438Y-84166666D01*
X138752438Y-84166666D02*
X138800057Y-84214285D01*
X138800057Y-84214285D02*
X138895295Y-84261904D01*
X138895295Y-84261904D02*
X138942914Y-84261904D01*
X138942914Y-84261904D02*
X139038152Y-84214285D01*
X139038152Y-84214285D02*
X139085771Y-84166666D01*
X139085771Y-84166666D02*
X139133390Y-84071428D01*
X139133390Y-84071428D02*
X139133390Y-83880952D01*
X139133390Y-83880952D02*
X139181009Y-83785714D01*
X139181009Y-83785714D02*
X139228628Y-83738095D01*
X139228628Y-83738095D02*
X139323866Y-83690476D01*
X139323866Y-83690476D02*
X139514342Y-83690476D01*
X139514342Y-83690476D02*
X139609580Y-83738095D01*
X139609580Y-83738095D02*
X139657200Y-83785714D01*
X139657200Y-83785714D02*
X139704819Y-83880952D01*
X139704819Y-83880952D02*
X139704819Y-84071428D01*
X139704819Y-84071428D02*
X139657200Y-84166666D01*
X139657200Y-84166666D02*
X139609580Y-84214285D01*
X139609580Y-84214285D02*
X139514342Y-84261904D01*
X139514342Y-84261904D02*
X139323866Y-84261904D01*
X139323866Y-84261904D02*
X139228628Y-84214285D01*
X139228628Y-84214285D02*
X139181009Y-84166666D01*
X139181009Y-84166666D02*
X139133390Y-84071428D01*
X158104819Y-99457142D02*
X157628628Y-99123809D01*
X158104819Y-98885714D02*
X157104819Y-98885714D01*
X157104819Y-98885714D02*
X157104819Y-99266666D01*
X157104819Y-99266666D02*
X157152438Y-99361904D01*
X157152438Y-99361904D02*
X157200057Y-99409523D01*
X157200057Y-99409523D02*
X157295295Y-99457142D01*
X157295295Y-99457142D02*
X157438152Y-99457142D01*
X157438152Y-99457142D02*
X157533390Y-99409523D01*
X157533390Y-99409523D02*
X157581009Y-99361904D01*
X157581009Y-99361904D02*
X157628628Y-99266666D01*
X157628628Y-99266666D02*
X157628628Y-98885714D01*
X158104819Y-100409523D02*
X158104819Y-99838095D01*
X158104819Y-100123809D02*
X157104819Y-100123809D01*
X157104819Y-100123809D02*
X157247676Y-100028571D01*
X157247676Y-100028571D02*
X157342914Y-99933333D01*
X157342914Y-99933333D02*
X157390533Y-99838095D01*
X157200057Y-100790476D02*
X157152438Y-100838095D01*
X157152438Y-100838095D02*
X157104819Y-100933333D01*
X157104819Y-100933333D02*
X157104819Y-101171428D01*
X157104819Y-101171428D02*
X157152438Y-101266666D01*
X157152438Y-101266666D02*
X157200057Y-101314285D01*
X157200057Y-101314285D02*
X157295295Y-101361904D01*
X157295295Y-101361904D02*
X157390533Y-101361904D01*
X157390533Y-101361904D02*
X157533390Y-101314285D01*
X157533390Y-101314285D02*
X158104819Y-100742857D01*
X158104819Y-100742857D02*
X158104819Y-101361904D01*
X121692857Y-96554819D02*
X122026190Y-96078628D01*
X122264285Y-96554819D02*
X122264285Y-95554819D01*
X122264285Y-95554819D02*
X121883333Y-95554819D01*
X121883333Y-95554819D02*
X121788095Y-95602438D01*
X121788095Y-95602438D02*
X121740476Y-95650057D01*
X121740476Y-95650057D02*
X121692857Y-95745295D01*
X121692857Y-95745295D02*
X121692857Y-95888152D01*
X121692857Y-95888152D02*
X121740476Y-95983390D01*
X121740476Y-95983390D02*
X121788095Y-96031009D01*
X121788095Y-96031009D02*
X121883333Y-96078628D01*
X121883333Y-96078628D02*
X122264285Y-96078628D01*
X120740476Y-96554819D02*
X121311904Y-96554819D01*
X121026190Y-96554819D02*
X121026190Y-95554819D01*
X121026190Y-95554819D02*
X121121428Y-95697676D01*
X121121428Y-95697676D02*
X121216666Y-95792914D01*
X121216666Y-95792914D02*
X121311904Y-95840533D01*
X119883333Y-95888152D02*
X119883333Y-96554819D01*
X120121428Y-95507200D02*
X120359523Y-96221485D01*
X120359523Y-96221485D02*
X119740476Y-96221485D01*
X189466666Y-90759580D02*
X189514285Y-90807200D01*
X189514285Y-90807200D02*
X189657142Y-90854819D01*
X189657142Y-90854819D02*
X189752380Y-90854819D01*
X189752380Y-90854819D02*
X189895237Y-90807200D01*
X189895237Y-90807200D02*
X189990475Y-90711961D01*
X189990475Y-90711961D02*
X190038094Y-90616723D01*
X190038094Y-90616723D02*
X190085713Y-90426247D01*
X190085713Y-90426247D02*
X190085713Y-90283390D01*
X190085713Y-90283390D02*
X190038094Y-90092914D01*
X190038094Y-90092914D02*
X189990475Y-89997676D01*
X189990475Y-89997676D02*
X189895237Y-89902438D01*
X189895237Y-89902438D02*
X189752380Y-89854819D01*
X189752380Y-89854819D02*
X189657142Y-89854819D01*
X189657142Y-89854819D02*
X189514285Y-89902438D01*
X189514285Y-89902438D02*
X189466666Y-89950057D01*
X188895237Y-90283390D02*
X188990475Y-90235771D01*
X188990475Y-90235771D02*
X189038094Y-90188152D01*
X189038094Y-90188152D02*
X189085713Y-90092914D01*
X189085713Y-90092914D02*
X189085713Y-90045295D01*
X189085713Y-90045295D02*
X189038094Y-89950057D01*
X189038094Y-89950057D02*
X188990475Y-89902438D01*
X188990475Y-89902438D02*
X188895237Y-89854819D01*
X188895237Y-89854819D02*
X188704761Y-89854819D01*
X188704761Y-89854819D02*
X188609523Y-89902438D01*
X188609523Y-89902438D02*
X188561904Y-89950057D01*
X188561904Y-89950057D02*
X188514285Y-90045295D01*
X188514285Y-90045295D02*
X188514285Y-90092914D01*
X188514285Y-90092914D02*
X188561904Y-90188152D01*
X188561904Y-90188152D02*
X188609523Y-90235771D01*
X188609523Y-90235771D02*
X188704761Y-90283390D01*
X188704761Y-90283390D02*
X188895237Y-90283390D01*
X188895237Y-90283390D02*
X188990475Y-90331009D01*
X188990475Y-90331009D02*
X189038094Y-90378628D01*
X189038094Y-90378628D02*
X189085713Y-90473866D01*
X189085713Y-90473866D02*
X189085713Y-90664342D01*
X189085713Y-90664342D02*
X189038094Y-90759580D01*
X189038094Y-90759580D02*
X188990475Y-90807200D01*
X188990475Y-90807200D02*
X188895237Y-90854819D01*
X188895237Y-90854819D02*
X188704761Y-90854819D01*
X188704761Y-90854819D02*
X188609523Y-90807200D01*
X188609523Y-90807200D02*
X188561904Y-90759580D01*
X188561904Y-90759580D02*
X188514285Y-90664342D01*
X188514285Y-90664342D02*
X188514285Y-90473866D01*
X188514285Y-90473866D02*
X188561904Y-90378628D01*
X188561904Y-90378628D02*
X188609523Y-90331009D01*
X188609523Y-90331009D02*
X188704761Y-90283390D01*
X168302562Y-87787013D02*
X168635895Y-87310822D01*
X168873990Y-87787013D02*
X168873990Y-86787013D01*
X168873990Y-86787013D02*
X168493038Y-86787013D01*
X168493038Y-86787013D02*
X168397800Y-86834632D01*
X168397800Y-86834632D02*
X168350181Y-86882251D01*
X168350181Y-86882251D02*
X168302562Y-86977489D01*
X168302562Y-86977489D02*
X168302562Y-87120346D01*
X168302562Y-87120346D02*
X168350181Y-87215584D01*
X168350181Y-87215584D02*
X168397800Y-87263203D01*
X168397800Y-87263203D02*
X168493038Y-87310822D01*
X168493038Y-87310822D02*
X168873990Y-87310822D01*
X167731133Y-87215584D02*
X167826371Y-87167965D01*
X167826371Y-87167965D02*
X167873990Y-87120346D01*
X167873990Y-87120346D02*
X167921609Y-87025108D01*
X167921609Y-87025108D02*
X167921609Y-86977489D01*
X167921609Y-86977489D02*
X167873990Y-86882251D01*
X167873990Y-86882251D02*
X167826371Y-86834632D01*
X167826371Y-86834632D02*
X167731133Y-86787013D01*
X167731133Y-86787013D02*
X167540657Y-86787013D01*
X167540657Y-86787013D02*
X167445419Y-86834632D01*
X167445419Y-86834632D02*
X167397800Y-86882251D01*
X167397800Y-86882251D02*
X167350181Y-86977489D01*
X167350181Y-86977489D02*
X167350181Y-87025108D01*
X167350181Y-87025108D02*
X167397800Y-87120346D01*
X167397800Y-87120346D02*
X167445419Y-87167965D01*
X167445419Y-87167965D02*
X167540657Y-87215584D01*
X167540657Y-87215584D02*
X167731133Y-87215584D01*
X167731133Y-87215584D02*
X167826371Y-87263203D01*
X167826371Y-87263203D02*
X167873990Y-87310822D01*
X167873990Y-87310822D02*
X167921609Y-87406060D01*
X167921609Y-87406060D02*
X167921609Y-87596536D01*
X167921609Y-87596536D02*
X167873990Y-87691774D01*
X167873990Y-87691774D02*
X167826371Y-87739394D01*
X167826371Y-87739394D02*
X167731133Y-87787013D01*
X167731133Y-87787013D02*
X167540657Y-87787013D01*
X167540657Y-87787013D02*
X167445419Y-87739394D01*
X167445419Y-87739394D02*
X167397800Y-87691774D01*
X167397800Y-87691774D02*
X167350181Y-87596536D01*
X167350181Y-87596536D02*
X167350181Y-87406060D01*
X167350181Y-87406060D02*
X167397800Y-87310822D01*
X167397800Y-87310822D02*
X167445419Y-87263203D01*
X167445419Y-87263203D02*
X167540657Y-87215584D01*
D11*
X154814285Y-80564895D02*
X155080952Y-80183942D01*
X155271428Y-80564895D02*
X155271428Y-79764895D01*
X155271428Y-79764895D02*
X154966666Y-79764895D01*
X154966666Y-79764895D02*
X154890476Y-79802990D01*
X154890476Y-79802990D02*
X154852381Y-79841085D01*
X154852381Y-79841085D02*
X154814285Y-79917276D01*
X154814285Y-79917276D02*
X154814285Y-80031561D01*
X154814285Y-80031561D02*
X154852381Y-80107752D01*
X154852381Y-80107752D02*
X154890476Y-80145847D01*
X154890476Y-80145847D02*
X154966666Y-80183942D01*
X154966666Y-80183942D02*
X155271428Y-80183942D01*
X154052381Y-80564895D02*
X154509524Y-80564895D01*
X154280952Y-80564895D02*
X154280952Y-79764895D01*
X154280952Y-79764895D02*
X154357143Y-79879180D01*
X154357143Y-79879180D02*
X154433333Y-79955371D01*
X154433333Y-79955371D02*
X154509524Y-79993466D01*
X153328571Y-79764895D02*
X153709523Y-79764895D01*
X153709523Y-79764895D02*
X153747619Y-80145847D01*
X153747619Y-80145847D02*
X153709523Y-80107752D01*
X153709523Y-80107752D02*
X153633333Y-80069657D01*
X153633333Y-80069657D02*
X153442857Y-80069657D01*
X153442857Y-80069657D02*
X153366666Y-80107752D01*
X153366666Y-80107752D02*
X153328571Y-80145847D01*
X153328571Y-80145847D02*
X153290476Y-80222038D01*
X153290476Y-80222038D02*
X153290476Y-80412514D01*
X153290476Y-80412514D02*
X153328571Y-80488704D01*
X153328571Y-80488704D02*
X153366666Y-80526800D01*
X153366666Y-80526800D02*
X153442857Y-80564895D01*
X153442857Y-80564895D02*
X153633333Y-80564895D01*
X153633333Y-80564895D02*
X153709523Y-80526800D01*
X153709523Y-80526800D02*
X153747619Y-80488704D01*
D10*
X166211904Y-88854819D02*
X166211904Y-89664342D01*
X166211904Y-89664342D02*
X166164285Y-89759580D01*
X166164285Y-89759580D02*
X166116666Y-89807200D01*
X166116666Y-89807200D02*
X166021428Y-89854819D01*
X166021428Y-89854819D02*
X165830952Y-89854819D01*
X165830952Y-89854819D02*
X165735714Y-89807200D01*
X165735714Y-89807200D02*
X165688095Y-89759580D01*
X165688095Y-89759580D02*
X165640476Y-89664342D01*
X165640476Y-89664342D02*
X165640476Y-88854819D01*
X165211904Y-88950057D02*
X165164285Y-88902438D01*
X165164285Y-88902438D02*
X165069047Y-88854819D01*
X165069047Y-88854819D02*
X164830952Y-88854819D01*
X164830952Y-88854819D02*
X164735714Y-88902438D01*
X164735714Y-88902438D02*
X164688095Y-88950057D01*
X164688095Y-88950057D02*
X164640476Y-89045295D01*
X164640476Y-89045295D02*
X164640476Y-89140533D01*
X164640476Y-89140533D02*
X164688095Y-89283390D01*
X164688095Y-89283390D02*
X165259523Y-89854819D01*
X165259523Y-89854819D02*
X164640476Y-89854819D01*
D11*
X188433332Y-96438704D02*
X188471428Y-96476800D01*
X188471428Y-96476800D02*
X188585713Y-96514895D01*
X188585713Y-96514895D02*
X188661904Y-96514895D01*
X188661904Y-96514895D02*
X188776190Y-96476800D01*
X188776190Y-96476800D02*
X188852380Y-96400609D01*
X188852380Y-96400609D02*
X188890475Y-96324419D01*
X188890475Y-96324419D02*
X188928571Y-96172038D01*
X188928571Y-96172038D02*
X188928571Y-96057752D01*
X188928571Y-96057752D02*
X188890475Y-95905371D01*
X188890475Y-95905371D02*
X188852380Y-95829180D01*
X188852380Y-95829180D02*
X188776190Y-95752990D01*
X188776190Y-95752990D02*
X188661904Y-95714895D01*
X188661904Y-95714895D02*
X188585713Y-95714895D01*
X188585713Y-95714895D02*
X188471428Y-95752990D01*
X188471428Y-95752990D02*
X188433332Y-95791085D01*
X187747618Y-95714895D02*
X187899999Y-95714895D01*
X187899999Y-95714895D02*
X187976190Y-95752990D01*
X187976190Y-95752990D02*
X188014285Y-95791085D01*
X188014285Y-95791085D02*
X188090475Y-95905371D01*
X188090475Y-95905371D02*
X188128571Y-96057752D01*
X188128571Y-96057752D02*
X188128571Y-96362514D01*
X188128571Y-96362514D02*
X188090475Y-96438704D01*
X188090475Y-96438704D02*
X188052380Y-96476800D01*
X188052380Y-96476800D02*
X187976190Y-96514895D01*
X187976190Y-96514895D02*
X187823809Y-96514895D01*
X187823809Y-96514895D02*
X187747618Y-96476800D01*
X187747618Y-96476800D02*
X187709523Y-96438704D01*
X187709523Y-96438704D02*
X187671428Y-96362514D01*
X187671428Y-96362514D02*
X187671428Y-96172038D01*
X187671428Y-96172038D02*
X187709523Y-96095847D01*
X187709523Y-96095847D02*
X187747618Y-96057752D01*
X187747618Y-96057752D02*
X187823809Y-96019657D01*
X187823809Y-96019657D02*
X187976190Y-96019657D01*
X187976190Y-96019657D02*
X188052380Y-96057752D01*
X188052380Y-96057752D02*
X188090475Y-96095847D01*
X188090475Y-96095847D02*
X188128571Y-96172038D01*
D10*
X197316666Y-104609580D02*
X197364285Y-104657200D01*
X197364285Y-104657200D02*
X197507142Y-104704819D01*
X197507142Y-104704819D02*
X197602380Y-104704819D01*
X197602380Y-104704819D02*
X197745237Y-104657200D01*
X197745237Y-104657200D02*
X197840475Y-104561961D01*
X197840475Y-104561961D02*
X197888094Y-104466723D01*
X197888094Y-104466723D02*
X197935713Y-104276247D01*
X197935713Y-104276247D02*
X197935713Y-104133390D01*
X197935713Y-104133390D02*
X197888094Y-103942914D01*
X197888094Y-103942914D02*
X197840475Y-103847676D01*
X197840475Y-103847676D02*
X197745237Y-103752438D01*
X197745237Y-103752438D02*
X197602380Y-103704819D01*
X197602380Y-103704819D02*
X197507142Y-103704819D01*
X197507142Y-103704819D02*
X197364285Y-103752438D01*
X197364285Y-103752438D02*
X197316666Y-103800057D01*
X196840475Y-104704819D02*
X196649999Y-104704819D01*
X196649999Y-104704819D02*
X196554761Y-104657200D01*
X196554761Y-104657200D02*
X196507142Y-104609580D01*
X196507142Y-104609580D02*
X196411904Y-104466723D01*
X196411904Y-104466723D02*
X196364285Y-104276247D01*
X196364285Y-104276247D02*
X196364285Y-103895295D01*
X196364285Y-103895295D02*
X196411904Y-103800057D01*
X196411904Y-103800057D02*
X196459523Y-103752438D01*
X196459523Y-103752438D02*
X196554761Y-103704819D01*
X196554761Y-103704819D02*
X196745237Y-103704819D01*
X196745237Y-103704819D02*
X196840475Y-103752438D01*
X196840475Y-103752438D02*
X196888094Y-103800057D01*
X196888094Y-103800057D02*
X196935713Y-103895295D01*
X196935713Y-103895295D02*
X196935713Y-104133390D01*
X196935713Y-104133390D02*
X196888094Y-104228628D01*
X196888094Y-104228628D02*
X196840475Y-104276247D01*
X196840475Y-104276247D02*
X196745237Y-104323866D01*
X196745237Y-104323866D02*
X196554761Y-104323866D01*
X196554761Y-104323866D02*
X196459523Y-104276247D01*
X196459523Y-104276247D02*
X196411904Y-104228628D01*
X196411904Y-104228628D02*
X196364285Y-104133390D01*
X149359580Y-66407142D02*
X149407200Y-66359523D01*
X149407200Y-66359523D02*
X149454819Y-66216666D01*
X149454819Y-66216666D02*
X149454819Y-66121428D01*
X149454819Y-66121428D02*
X149407200Y-65978571D01*
X149407200Y-65978571D02*
X149311961Y-65883333D01*
X149311961Y-65883333D02*
X149216723Y-65835714D01*
X149216723Y-65835714D02*
X149026247Y-65788095D01*
X149026247Y-65788095D02*
X148883390Y-65788095D01*
X148883390Y-65788095D02*
X148692914Y-65835714D01*
X148692914Y-65835714D02*
X148597676Y-65883333D01*
X148597676Y-65883333D02*
X148502438Y-65978571D01*
X148502438Y-65978571D02*
X148454819Y-66121428D01*
X148454819Y-66121428D02*
X148454819Y-66216666D01*
X148454819Y-66216666D02*
X148502438Y-66359523D01*
X148502438Y-66359523D02*
X148550057Y-66407142D01*
X149454819Y-67359523D02*
X149454819Y-66788095D01*
X149454819Y-67073809D02*
X148454819Y-67073809D01*
X148454819Y-67073809D02*
X148597676Y-66978571D01*
X148597676Y-66978571D02*
X148692914Y-66883333D01*
X148692914Y-66883333D02*
X148740533Y-66788095D01*
X148788152Y-68216666D02*
X149454819Y-68216666D01*
X148407200Y-67978571D02*
X149121485Y-67740476D01*
X149121485Y-67740476D02*
X149121485Y-68359523D01*
X148145180Y-91188094D02*
X147335657Y-91188094D01*
X147335657Y-91188094D02*
X147240419Y-91140475D01*
X147240419Y-91140475D02*
X147192800Y-91092856D01*
X147192800Y-91092856D02*
X147145180Y-90997618D01*
X147145180Y-90997618D02*
X147145180Y-90807142D01*
X147145180Y-90807142D02*
X147192800Y-90711904D01*
X147192800Y-90711904D02*
X147240419Y-90664285D01*
X147240419Y-90664285D02*
X147335657Y-90616666D01*
X147335657Y-90616666D02*
X148145180Y-90616666D01*
X147145180Y-89616666D02*
X147145180Y-90188094D01*
X147145180Y-89902380D02*
X148145180Y-89902380D01*
X148145180Y-89902380D02*
X148002323Y-89997618D01*
X148002323Y-89997618D02*
X147907085Y-90092856D01*
X147907085Y-90092856D02*
X147859466Y-90188094D01*
X148145180Y-88997618D02*
X148145180Y-88902380D01*
X148145180Y-88902380D02*
X148097561Y-88807142D01*
X148097561Y-88807142D02*
X148049942Y-88759523D01*
X148049942Y-88759523D02*
X147954704Y-88711904D01*
X147954704Y-88711904D02*
X147764228Y-88664285D01*
X147764228Y-88664285D02*
X147526133Y-88664285D01*
X147526133Y-88664285D02*
X147335657Y-88711904D01*
X147335657Y-88711904D02*
X147240419Y-88759523D01*
X147240419Y-88759523D02*
X147192800Y-88807142D01*
X147192800Y-88807142D02*
X147145180Y-88902380D01*
X147145180Y-88902380D02*
X147145180Y-88997618D01*
X147145180Y-88997618D02*
X147192800Y-89092856D01*
X147192800Y-89092856D02*
X147240419Y-89140475D01*
X147240419Y-89140475D02*
X147335657Y-89188094D01*
X147335657Y-89188094D02*
X147526133Y-89235713D01*
X147526133Y-89235713D02*
X147764228Y-89235713D01*
X147764228Y-89235713D02*
X147954704Y-89188094D01*
X147954704Y-89188094D02*
X148049942Y-89140475D01*
X148049942Y-89140475D02*
X148097561Y-89092856D01*
X148097561Y-89092856D02*
X148145180Y-88997618D01*
X149995180Y-93499999D02*
X149757085Y-93499999D01*
X149852323Y-93738094D02*
X149757085Y-93499999D01*
X149757085Y-93499999D02*
X149852323Y-93261904D01*
X149566609Y-93642856D02*
X149757085Y-93499999D01*
X149757085Y-93499999D02*
X149566609Y-93357142D01*
X149454819Y-92900000D02*
X149692914Y-92900000D01*
X149597676Y-92661905D02*
X149692914Y-92900000D01*
X149692914Y-92900000D02*
X149597676Y-93138095D01*
X149883390Y-92757143D02*
X149692914Y-92900000D01*
X149692914Y-92900000D02*
X149883390Y-93042857D01*
X149742857Y-84171580D02*
X149790476Y-84219200D01*
X149790476Y-84219200D02*
X149933333Y-84266819D01*
X149933333Y-84266819D02*
X150028571Y-84266819D01*
X150028571Y-84266819D02*
X150171428Y-84219200D01*
X150171428Y-84219200D02*
X150266666Y-84123961D01*
X150266666Y-84123961D02*
X150314285Y-84028723D01*
X150314285Y-84028723D02*
X150361904Y-83838247D01*
X150361904Y-83838247D02*
X150361904Y-83695390D01*
X150361904Y-83695390D02*
X150314285Y-83504914D01*
X150314285Y-83504914D02*
X150266666Y-83409676D01*
X150266666Y-83409676D02*
X150171428Y-83314438D01*
X150171428Y-83314438D02*
X150028571Y-83266819D01*
X150028571Y-83266819D02*
X149933333Y-83266819D01*
X149933333Y-83266819D02*
X149790476Y-83314438D01*
X149790476Y-83314438D02*
X149742857Y-83362057D01*
X149409523Y-83266819D02*
X148790476Y-83266819D01*
X148790476Y-83266819D02*
X149123809Y-83647771D01*
X149123809Y-83647771D02*
X148980952Y-83647771D01*
X148980952Y-83647771D02*
X148885714Y-83695390D01*
X148885714Y-83695390D02*
X148838095Y-83743009D01*
X148838095Y-83743009D02*
X148790476Y-83838247D01*
X148790476Y-83838247D02*
X148790476Y-84076342D01*
X148790476Y-84076342D02*
X148838095Y-84171580D01*
X148838095Y-84171580D02*
X148885714Y-84219200D01*
X148885714Y-84219200D02*
X148980952Y-84266819D01*
X148980952Y-84266819D02*
X149266666Y-84266819D01*
X149266666Y-84266819D02*
X149361904Y-84219200D01*
X149361904Y-84219200D02*
X149409523Y-84171580D01*
X148457142Y-83266819D02*
X147790476Y-83266819D01*
X147790476Y-83266819D02*
X148219047Y-84266819D01*
X158259580Y-70857142D02*
X158307200Y-70809523D01*
X158307200Y-70809523D02*
X158354819Y-70666666D01*
X158354819Y-70666666D02*
X158354819Y-70571428D01*
X158354819Y-70571428D02*
X158307200Y-70428571D01*
X158307200Y-70428571D02*
X158211961Y-70333333D01*
X158211961Y-70333333D02*
X158116723Y-70285714D01*
X158116723Y-70285714D02*
X157926247Y-70238095D01*
X157926247Y-70238095D02*
X157783390Y-70238095D01*
X157783390Y-70238095D02*
X157592914Y-70285714D01*
X157592914Y-70285714D02*
X157497676Y-70333333D01*
X157497676Y-70333333D02*
X157402438Y-70428571D01*
X157402438Y-70428571D02*
X157354819Y-70571428D01*
X157354819Y-70571428D02*
X157354819Y-70666666D01*
X157354819Y-70666666D02*
X157402438Y-70809523D01*
X157402438Y-70809523D02*
X157450057Y-70857142D01*
X157688152Y-71714285D02*
X158354819Y-71714285D01*
X157307200Y-71476190D02*
X158021485Y-71238095D01*
X158021485Y-71238095D02*
X158021485Y-71857142D01*
X157354819Y-72428571D02*
X157354819Y-72523809D01*
X157354819Y-72523809D02*
X157402438Y-72619047D01*
X157402438Y-72619047D02*
X157450057Y-72666666D01*
X157450057Y-72666666D02*
X157545295Y-72714285D01*
X157545295Y-72714285D02*
X157735771Y-72761904D01*
X157735771Y-72761904D02*
X157973866Y-72761904D01*
X157973866Y-72761904D02*
X158164342Y-72714285D01*
X158164342Y-72714285D02*
X158259580Y-72666666D01*
X158259580Y-72666666D02*
X158307200Y-72619047D01*
X158307200Y-72619047D02*
X158354819Y-72523809D01*
X158354819Y-72523809D02*
X158354819Y-72428571D01*
X158354819Y-72428571D02*
X158307200Y-72333333D01*
X158307200Y-72333333D02*
X158259580Y-72285714D01*
X158259580Y-72285714D02*
X158164342Y-72238095D01*
X158164342Y-72238095D02*
X157973866Y-72190476D01*
X157973866Y-72190476D02*
X157735771Y-72190476D01*
X157735771Y-72190476D02*
X157545295Y-72238095D01*
X157545295Y-72238095D02*
X157450057Y-72285714D01*
X157450057Y-72285714D02*
X157402438Y-72333333D01*
X157402438Y-72333333D02*
X157354819Y-72428571D01*
X141404819Y-80957142D02*
X140928628Y-80623809D01*
X141404819Y-80385714D02*
X140404819Y-80385714D01*
X140404819Y-80385714D02*
X140404819Y-80766666D01*
X140404819Y-80766666D02*
X140452438Y-80861904D01*
X140452438Y-80861904D02*
X140500057Y-80909523D01*
X140500057Y-80909523D02*
X140595295Y-80957142D01*
X140595295Y-80957142D02*
X140738152Y-80957142D01*
X140738152Y-80957142D02*
X140833390Y-80909523D01*
X140833390Y-80909523D02*
X140881009Y-80861904D01*
X140881009Y-80861904D02*
X140928628Y-80766666D01*
X140928628Y-80766666D02*
X140928628Y-80385714D01*
X141404819Y-81909523D02*
X141404819Y-81338095D01*
X141404819Y-81623809D02*
X140404819Y-81623809D01*
X140404819Y-81623809D02*
X140547676Y-81528571D01*
X140547676Y-81528571D02*
X140642914Y-81433333D01*
X140642914Y-81433333D02*
X140690533Y-81338095D01*
X140404819Y-82766666D02*
X140404819Y-82576190D01*
X140404819Y-82576190D02*
X140452438Y-82480952D01*
X140452438Y-82480952D02*
X140500057Y-82433333D01*
X140500057Y-82433333D02*
X140642914Y-82338095D01*
X140642914Y-82338095D02*
X140833390Y-82290476D01*
X140833390Y-82290476D02*
X141214342Y-82290476D01*
X141214342Y-82290476D02*
X141309580Y-82338095D01*
X141309580Y-82338095D02*
X141357200Y-82385714D01*
X141357200Y-82385714D02*
X141404819Y-82480952D01*
X141404819Y-82480952D02*
X141404819Y-82671428D01*
X141404819Y-82671428D02*
X141357200Y-82766666D01*
X141357200Y-82766666D02*
X141309580Y-82814285D01*
X141309580Y-82814285D02*
X141214342Y-82861904D01*
X141214342Y-82861904D02*
X140976247Y-82861904D01*
X140976247Y-82861904D02*
X140881009Y-82814285D01*
X140881009Y-82814285D02*
X140833390Y-82766666D01*
X140833390Y-82766666D02*
X140785771Y-82671428D01*
X140785771Y-82671428D02*
X140785771Y-82480952D01*
X140785771Y-82480952D02*
X140833390Y-82385714D01*
X140833390Y-82385714D02*
X140881009Y-82338095D01*
X140881009Y-82338095D02*
X140976247Y-82290476D01*
X151109579Y-98157143D02*
X151157199Y-98109524D01*
X151157199Y-98109524D02*
X151204818Y-97966667D01*
X151204818Y-97966667D02*
X151204818Y-97871429D01*
X151204818Y-97871429D02*
X151157199Y-97728572D01*
X151157199Y-97728572D02*
X151061960Y-97633334D01*
X151061960Y-97633334D02*
X150966722Y-97585715D01*
X150966722Y-97585715D02*
X150776246Y-97538096D01*
X150776246Y-97538096D02*
X150633389Y-97538096D01*
X150633389Y-97538096D02*
X150442913Y-97585715D01*
X150442913Y-97585715D02*
X150347675Y-97633334D01*
X150347675Y-97633334D02*
X150252437Y-97728572D01*
X150252437Y-97728572D02*
X150204818Y-97871429D01*
X150204818Y-97871429D02*
X150204818Y-97966667D01*
X150204818Y-97966667D02*
X150252437Y-98109524D01*
X150252437Y-98109524D02*
X150300056Y-98157143D01*
X150204818Y-98490477D02*
X150204818Y-99109524D01*
X150204818Y-99109524D02*
X150585770Y-98776191D01*
X150585770Y-98776191D02*
X150585770Y-98919048D01*
X150585770Y-98919048D02*
X150633389Y-99014286D01*
X150633389Y-99014286D02*
X150681008Y-99061905D01*
X150681008Y-99061905D02*
X150776246Y-99109524D01*
X150776246Y-99109524D02*
X151014341Y-99109524D01*
X151014341Y-99109524D02*
X151109579Y-99061905D01*
X151109579Y-99061905D02*
X151157199Y-99014286D01*
X151157199Y-99014286D02*
X151204818Y-98919048D01*
X151204818Y-98919048D02*
X151204818Y-98633334D01*
X151204818Y-98633334D02*
X151157199Y-98538096D01*
X151157199Y-98538096D02*
X151109579Y-98490477D01*
X150538151Y-99966667D02*
X151204818Y-99966667D01*
X150157199Y-99728572D02*
X150871484Y-99490477D01*
X150871484Y-99490477D02*
X150871484Y-100109524D01*
X143509580Y-79957142D02*
X143557200Y-79909523D01*
X143557200Y-79909523D02*
X143604819Y-79766666D01*
X143604819Y-79766666D02*
X143604819Y-79671428D01*
X143604819Y-79671428D02*
X143557200Y-79528571D01*
X143557200Y-79528571D02*
X143461961Y-79433333D01*
X143461961Y-79433333D02*
X143366723Y-79385714D01*
X143366723Y-79385714D02*
X143176247Y-79338095D01*
X143176247Y-79338095D02*
X143033390Y-79338095D01*
X143033390Y-79338095D02*
X142842914Y-79385714D01*
X142842914Y-79385714D02*
X142747676Y-79433333D01*
X142747676Y-79433333D02*
X142652438Y-79528571D01*
X142652438Y-79528571D02*
X142604819Y-79671428D01*
X142604819Y-79671428D02*
X142604819Y-79766666D01*
X142604819Y-79766666D02*
X142652438Y-79909523D01*
X142652438Y-79909523D02*
X142700057Y-79957142D01*
X142604819Y-80290476D02*
X142604819Y-80909523D01*
X142604819Y-80909523D02*
X142985771Y-80576190D01*
X142985771Y-80576190D02*
X142985771Y-80719047D01*
X142985771Y-80719047D02*
X143033390Y-80814285D01*
X143033390Y-80814285D02*
X143081009Y-80861904D01*
X143081009Y-80861904D02*
X143176247Y-80909523D01*
X143176247Y-80909523D02*
X143414342Y-80909523D01*
X143414342Y-80909523D02*
X143509580Y-80861904D01*
X143509580Y-80861904D02*
X143557200Y-80814285D01*
X143557200Y-80814285D02*
X143604819Y-80719047D01*
X143604819Y-80719047D02*
X143604819Y-80433333D01*
X143604819Y-80433333D02*
X143557200Y-80338095D01*
X143557200Y-80338095D02*
X143509580Y-80290476D01*
X143604819Y-81385714D02*
X143604819Y-81576190D01*
X143604819Y-81576190D02*
X143557200Y-81671428D01*
X143557200Y-81671428D02*
X143509580Y-81719047D01*
X143509580Y-81719047D02*
X143366723Y-81814285D01*
X143366723Y-81814285D02*
X143176247Y-81861904D01*
X143176247Y-81861904D02*
X142795295Y-81861904D01*
X142795295Y-81861904D02*
X142700057Y-81814285D01*
X142700057Y-81814285D02*
X142652438Y-81766666D01*
X142652438Y-81766666D02*
X142604819Y-81671428D01*
X142604819Y-81671428D02*
X142604819Y-81480952D01*
X142604819Y-81480952D02*
X142652438Y-81385714D01*
X142652438Y-81385714D02*
X142700057Y-81338095D01*
X142700057Y-81338095D02*
X142795295Y-81290476D01*
X142795295Y-81290476D02*
X143033390Y-81290476D01*
X143033390Y-81290476D02*
X143128628Y-81338095D01*
X143128628Y-81338095D02*
X143176247Y-81385714D01*
X143176247Y-81385714D02*
X143223866Y-81480952D01*
X143223866Y-81480952D02*
X143223866Y-81671428D01*
X143223866Y-81671428D02*
X143176247Y-81766666D01*
X143176247Y-81766666D02*
X143128628Y-81814285D01*
X143128628Y-81814285D02*
X143033390Y-81861904D01*
X200516666Y-104609580D02*
X200564285Y-104657200D01*
X200564285Y-104657200D02*
X200707142Y-104704819D01*
X200707142Y-104704819D02*
X200802380Y-104704819D01*
X200802380Y-104704819D02*
X200945237Y-104657200D01*
X200945237Y-104657200D02*
X201040475Y-104561961D01*
X201040475Y-104561961D02*
X201088094Y-104466723D01*
X201088094Y-104466723D02*
X201135713Y-104276247D01*
X201135713Y-104276247D02*
X201135713Y-104133390D01*
X201135713Y-104133390D02*
X201088094Y-103942914D01*
X201088094Y-103942914D02*
X201040475Y-103847676D01*
X201040475Y-103847676D02*
X200945237Y-103752438D01*
X200945237Y-103752438D02*
X200802380Y-103704819D01*
X200802380Y-103704819D02*
X200707142Y-103704819D01*
X200707142Y-103704819D02*
X200564285Y-103752438D01*
X200564285Y-103752438D02*
X200516666Y-103800057D01*
X200183332Y-103704819D02*
X199516666Y-103704819D01*
X199516666Y-103704819D02*
X199945237Y-104704819D01*
X171359580Y-87607142D02*
X171407200Y-87559523D01*
X171407200Y-87559523D02*
X171454819Y-87416666D01*
X171454819Y-87416666D02*
X171454819Y-87321428D01*
X171454819Y-87321428D02*
X171407200Y-87178571D01*
X171407200Y-87178571D02*
X171311961Y-87083333D01*
X171311961Y-87083333D02*
X171216723Y-87035714D01*
X171216723Y-87035714D02*
X171026247Y-86988095D01*
X171026247Y-86988095D02*
X170883390Y-86988095D01*
X170883390Y-86988095D02*
X170692914Y-87035714D01*
X170692914Y-87035714D02*
X170597676Y-87083333D01*
X170597676Y-87083333D02*
X170502438Y-87178571D01*
X170502438Y-87178571D02*
X170454819Y-87321428D01*
X170454819Y-87321428D02*
X170454819Y-87416666D01*
X170454819Y-87416666D02*
X170502438Y-87559523D01*
X170502438Y-87559523D02*
X170550057Y-87607142D01*
X171454819Y-88559523D02*
X171454819Y-87988095D01*
X171454819Y-88273809D02*
X170454819Y-88273809D01*
X170454819Y-88273809D02*
X170597676Y-88178571D01*
X170597676Y-88178571D02*
X170692914Y-88083333D01*
X170692914Y-88083333D02*
X170740533Y-87988095D01*
X170550057Y-88940476D02*
X170502438Y-88988095D01*
X170502438Y-88988095D02*
X170454819Y-89083333D01*
X170454819Y-89083333D02*
X170454819Y-89321428D01*
X170454819Y-89321428D02*
X170502438Y-89416666D01*
X170502438Y-89416666D02*
X170550057Y-89464285D01*
X170550057Y-89464285D02*
X170645295Y-89511904D01*
X170645295Y-89511904D02*
X170740533Y-89511904D01*
X170740533Y-89511904D02*
X170883390Y-89464285D01*
X170883390Y-89464285D02*
X171454819Y-88892857D01*
X171454819Y-88892857D02*
X171454819Y-89511904D01*
X163992857Y-98709580D02*
X164040476Y-98757200D01*
X164040476Y-98757200D02*
X164183333Y-98804819D01*
X164183333Y-98804819D02*
X164278571Y-98804819D01*
X164278571Y-98804819D02*
X164421428Y-98757200D01*
X164421428Y-98757200D02*
X164516666Y-98661961D01*
X164516666Y-98661961D02*
X164564285Y-98566723D01*
X164564285Y-98566723D02*
X164611904Y-98376247D01*
X164611904Y-98376247D02*
X164611904Y-98233390D01*
X164611904Y-98233390D02*
X164564285Y-98042914D01*
X164564285Y-98042914D02*
X164516666Y-97947676D01*
X164516666Y-97947676D02*
X164421428Y-97852438D01*
X164421428Y-97852438D02*
X164278571Y-97804819D01*
X164278571Y-97804819D02*
X164183333Y-97804819D01*
X164183333Y-97804819D02*
X164040476Y-97852438D01*
X164040476Y-97852438D02*
X163992857Y-97900057D01*
X163040476Y-98804819D02*
X163611904Y-98804819D01*
X163326190Y-98804819D02*
X163326190Y-97804819D01*
X163326190Y-97804819D02*
X163421428Y-97947676D01*
X163421428Y-97947676D02*
X163516666Y-98042914D01*
X163516666Y-98042914D02*
X163611904Y-98090533D01*
X162469047Y-98233390D02*
X162564285Y-98185771D01*
X162564285Y-98185771D02*
X162611904Y-98138152D01*
X162611904Y-98138152D02*
X162659523Y-98042914D01*
X162659523Y-98042914D02*
X162659523Y-97995295D01*
X162659523Y-97995295D02*
X162611904Y-97900057D01*
X162611904Y-97900057D02*
X162564285Y-97852438D01*
X162564285Y-97852438D02*
X162469047Y-97804819D01*
X162469047Y-97804819D02*
X162278571Y-97804819D01*
X162278571Y-97804819D02*
X162183333Y-97852438D01*
X162183333Y-97852438D02*
X162135714Y-97900057D01*
X162135714Y-97900057D02*
X162088095Y-97995295D01*
X162088095Y-97995295D02*
X162088095Y-98042914D01*
X162088095Y-98042914D02*
X162135714Y-98138152D01*
X162135714Y-98138152D02*
X162183333Y-98185771D01*
X162183333Y-98185771D02*
X162278571Y-98233390D01*
X162278571Y-98233390D02*
X162469047Y-98233390D01*
X162469047Y-98233390D02*
X162564285Y-98281009D01*
X162564285Y-98281009D02*
X162611904Y-98328628D01*
X162611904Y-98328628D02*
X162659523Y-98423866D01*
X162659523Y-98423866D02*
X162659523Y-98614342D01*
X162659523Y-98614342D02*
X162611904Y-98709580D01*
X162611904Y-98709580D02*
X162564285Y-98757200D01*
X162564285Y-98757200D02*
X162469047Y-98804819D01*
X162469047Y-98804819D02*
X162278571Y-98804819D01*
X162278571Y-98804819D02*
X162183333Y-98757200D01*
X162183333Y-98757200D02*
X162135714Y-98709580D01*
X162135714Y-98709580D02*
X162088095Y-98614342D01*
X162088095Y-98614342D02*
X162088095Y-98423866D01*
X162088095Y-98423866D02*
X162135714Y-98328628D01*
X162135714Y-98328628D02*
X162183333Y-98281009D01*
X162183333Y-98281009D02*
X162278571Y-98233390D01*
D11*
X186885104Y-101409523D02*
X186237485Y-101409523D01*
X186237485Y-101409523D02*
X186161295Y-101371428D01*
X186161295Y-101371428D02*
X186123200Y-101333333D01*
X186123200Y-101333333D02*
X186085104Y-101257142D01*
X186085104Y-101257142D02*
X186085104Y-101104761D01*
X186085104Y-101104761D02*
X186123200Y-101028571D01*
X186123200Y-101028571D02*
X186161295Y-100990476D01*
X186161295Y-100990476D02*
X186237485Y-100952380D01*
X186237485Y-100952380D02*
X186885104Y-100952380D01*
X186085104Y-100152381D02*
X186085104Y-100609524D01*
X186085104Y-100380952D02*
X186885104Y-100380952D01*
X186885104Y-100380952D02*
X186770819Y-100457143D01*
X186770819Y-100457143D02*
X186694628Y-100533333D01*
X186694628Y-100533333D02*
X186656533Y-100609524D01*
D10*
X189466666Y-91959580D02*
X189514285Y-92007200D01*
X189514285Y-92007200D02*
X189657142Y-92054819D01*
X189657142Y-92054819D02*
X189752380Y-92054819D01*
X189752380Y-92054819D02*
X189895237Y-92007200D01*
X189895237Y-92007200D02*
X189990475Y-91911961D01*
X189990475Y-91911961D02*
X190038094Y-91816723D01*
X190038094Y-91816723D02*
X190085713Y-91626247D01*
X190085713Y-91626247D02*
X190085713Y-91483390D01*
X190085713Y-91483390D02*
X190038094Y-91292914D01*
X190038094Y-91292914D02*
X189990475Y-91197676D01*
X189990475Y-91197676D02*
X189895237Y-91102438D01*
X189895237Y-91102438D02*
X189752380Y-91054819D01*
X189752380Y-91054819D02*
X189657142Y-91054819D01*
X189657142Y-91054819D02*
X189514285Y-91102438D01*
X189514285Y-91102438D02*
X189466666Y-91150057D01*
X189133332Y-91054819D02*
X188514285Y-91054819D01*
X188514285Y-91054819D02*
X188847618Y-91435771D01*
X188847618Y-91435771D02*
X188704761Y-91435771D01*
X188704761Y-91435771D02*
X188609523Y-91483390D01*
X188609523Y-91483390D02*
X188561904Y-91531009D01*
X188561904Y-91531009D02*
X188514285Y-91626247D01*
X188514285Y-91626247D02*
X188514285Y-91864342D01*
X188514285Y-91864342D02*
X188561904Y-91959580D01*
X188561904Y-91959580D02*
X188609523Y-92007200D01*
X188609523Y-92007200D02*
X188704761Y-92054819D01*
X188704761Y-92054819D02*
X188990475Y-92054819D01*
X188990475Y-92054819D02*
X189085713Y-92007200D01*
X189085713Y-92007200D02*
X189133332Y-91959580D01*
X192742857Y-102054819D02*
X193076190Y-101578628D01*
X193314285Y-102054819D02*
X193314285Y-101054819D01*
X193314285Y-101054819D02*
X192933333Y-101054819D01*
X192933333Y-101054819D02*
X192838095Y-101102438D01*
X192838095Y-101102438D02*
X192790476Y-101150057D01*
X192790476Y-101150057D02*
X192742857Y-101245295D01*
X192742857Y-101245295D02*
X192742857Y-101388152D01*
X192742857Y-101388152D02*
X192790476Y-101483390D01*
X192790476Y-101483390D02*
X192838095Y-101531009D01*
X192838095Y-101531009D02*
X192933333Y-101578628D01*
X192933333Y-101578628D02*
X193314285Y-101578628D01*
X191790476Y-102054819D02*
X192361904Y-102054819D01*
X192076190Y-102054819D02*
X192076190Y-101054819D01*
X192076190Y-101054819D02*
X192171428Y-101197676D01*
X192171428Y-101197676D02*
X192266666Y-101292914D01*
X192266666Y-101292914D02*
X192361904Y-101340533D01*
X191457142Y-101054819D02*
X190838095Y-101054819D01*
X190838095Y-101054819D02*
X191171428Y-101435771D01*
X191171428Y-101435771D02*
X191028571Y-101435771D01*
X191028571Y-101435771D02*
X190933333Y-101483390D01*
X190933333Y-101483390D02*
X190885714Y-101531009D01*
X190885714Y-101531009D02*
X190838095Y-101626247D01*
X190838095Y-101626247D02*
X190838095Y-101864342D01*
X190838095Y-101864342D02*
X190885714Y-101959580D01*
X190885714Y-101959580D02*
X190933333Y-102007200D01*
X190933333Y-102007200D02*
X191028571Y-102054819D01*
X191028571Y-102054819D02*
X191314285Y-102054819D01*
X191314285Y-102054819D02*
X191409523Y-102007200D01*
X191409523Y-102007200D02*
X191457142Y-101959580D01*
X159693672Y-99323133D02*
X158693672Y-99323133D01*
X158693672Y-99323133D02*
X158693672Y-99561228D01*
X158693672Y-99561228D02*
X158741291Y-99704085D01*
X158741291Y-99704085D02*
X158836529Y-99799323D01*
X158836529Y-99799323D02*
X158931767Y-99846942D01*
X158931767Y-99846942D02*
X159122243Y-99894561D01*
X159122243Y-99894561D02*
X159265100Y-99894561D01*
X159265100Y-99894561D02*
X159455576Y-99846942D01*
X159455576Y-99846942D02*
X159550814Y-99799323D01*
X159550814Y-99799323D02*
X159646053Y-99704085D01*
X159646053Y-99704085D02*
X159693672Y-99561228D01*
X159693672Y-99561228D02*
X159693672Y-99323133D01*
X158693672Y-100227895D02*
X158693672Y-100846942D01*
X158693672Y-100846942D02*
X159074624Y-100513609D01*
X159074624Y-100513609D02*
X159074624Y-100656466D01*
X159074624Y-100656466D02*
X159122243Y-100751704D01*
X159122243Y-100751704D02*
X159169862Y-100799323D01*
X159169862Y-100799323D02*
X159265100Y-100846942D01*
X159265100Y-100846942D02*
X159503195Y-100846942D01*
X159503195Y-100846942D02*
X159598433Y-100799323D01*
X159598433Y-100799323D02*
X159646053Y-100751704D01*
X159646053Y-100751704D02*
X159693672Y-100656466D01*
X159693672Y-100656466D02*
X159693672Y-100370752D01*
X159693672Y-100370752D02*
X159646053Y-100275514D01*
X159646053Y-100275514D02*
X159598433Y-100227895D01*
X151659580Y-66357142D02*
X151707200Y-66309523D01*
X151707200Y-66309523D02*
X151754819Y-66166666D01*
X151754819Y-66166666D02*
X151754819Y-66071428D01*
X151754819Y-66071428D02*
X151707200Y-65928571D01*
X151707200Y-65928571D02*
X151611961Y-65833333D01*
X151611961Y-65833333D02*
X151516723Y-65785714D01*
X151516723Y-65785714D02*
X151326247Y-65738095D01*
X151326247Y-65738095D02*
X151183390Y-65738095D01*
X151183390Y-65738095D02*
X150992914Y-65785714D01*
X150992914Y-65785714D02*
X150897676Y-65833333D01*
X150897676Y-65833333D02*
X150802438Y-65928571D01*
X150802438Y-65928571D02*
X150754819Y-66071428D01*
X150754819Y-66071428D02*
X150754819Y-66166666D01*
X150754819Y-66166666D02*
X150802438Y-66309523D01*
X150802438Y-66309523D02*
X150850057Y-66357142D01*
X151754819Y-67309523D02*
X151754819Y-66738095D01*
X151754819Y-67023809D02*
X150754819Y-67023809D01*
X150754819Y-67023809D02*
X150897676Y-66928571D01*
X150897676Y-66928571D02*
X150992914Y-66833333D01*
X150992914Y-66833333D02*
X151040533Y-66738095D01*
X150754819Y-67642857D02*
X150754819Y-68261904D01*
X150754819Y-68261904D02*
X151135771Y-67928571D01*
X151135771Y-67928571D02*
X151135771Y-68071428D01*
X151135771Y-68071428D02*
X151183390Y-68166666D01*
X151183390Y-68166666D02*
X151231009Y-68214285D01*
X151231009Y-68214285D02*
X151326247Y-68261904D01*
X151326247Y-68261904D02*
X151564342Y-68261904D01*
X151564342Y-68261904D02*
X151659580Y-68214285D01*
X151659580Y-68214285D02*
X151707200Y-68166666D01*
X151707200Y-68166666D02*
X151754819Y-68071428D01*
X151754819Y-68071428D02*
X151754819Y-67785714D01*
X151754819Y-67785714D02*
X151707200Y-67690476D01*
X151707200Y-67690476D02*
X151659580Y-67642857D01*
X163359580Y-86957142D02*
X163407200Y-86909523D01*
X163407200Y-86909523D02*
X163454819Y-86766666D01*
X163454819Y-86766666D02*
X163454819Y-86671428D01*
X163454819Y-86671428D02*
X163407200Y-86528571D01*
X163407200Y-86528571D02*
X163311961Y-86433333D01*
X163311961Y-86433333D02*
X163216723Y-86385714D01*
X163216723Y-86385714D02*
X163026247Y-86338095D01*
X163026247Y-86338095D02*
X162883390Y-86338095D01*
X162883390Y-86338095D02*
X162692914Y-86385714D01*
X162692914Y-86385714D02*
X162597676Y-86433333D01*
X162597676Y-86433333D02*
X162502438Y-86528571D01*
X162502438Y-86528571D02*
X162454819Y-86671428D01*
X162454819Y-86671428D02*
X162454819Y-86766666D01*
X162454819Y-86766666D02*
X162502438Y-86909523D01*
X162502438Y-86909523D02*
X162550057Y-86957142D01*
X163454819Y-87909523D02*
X163454819Y-87338095D01*
X163454819Y-87623809D02*
X162454819Y-87623809D01*
X162454819Y-87623809D02*
X162597676Y-87528571D01*
X162597676Y-87528571D02*
X162692914Y-87433333D01*
X162692914Y-87433333D02*
X162740533Y-87338095D01*
X162454819Y-88242857D02*
X162454819Y-88909523D01*
X162454819Y-88909523D02*
X163454819Y-88480952D01*
X162989580Y-74932142D02*
X163037200Y-74884523D01*
X163037200Y-74884523D02*
X163084819Y-74741666D01*
X163084819Y-74741666D02*
X163084819Y-74646428D01*
X163084819Y-74646428D02*
X163037200Y-74503571D01*
X163037200Y-74503571D02*
X162941961Y-74408333D01*
X162941961Y-74408333D02*
X162846723Y-74360714D01*
X162846723Y-74360714D02*
X162656247Y-74313095D01*
X162656247Y-74313095D02*
X162513390Y-74313095D01*
X162513390Y-74313095D02*
X162322914Y-74360714D01*
X162322914Y-74360714D02*
X162227676Y-74408333D01*
X162227676Y-74408333D02*
X162132438Y-74503571D01*
X162132438Y-74503571D02*
X162084819Y-74646428D01*
X162084819Y-74646428D02*
X162084819Y-74741666D01*
X162084819Y-74741666D02*
X162132438Y-74884523D01*
X162132438Y-74884523D02*
X162180057Y-74932142D01*
X162418152Y-75789285D02*
X163084819Y-75789285D01*
X162037200Y-75551190D02*
X162751485Y-75313095D01*
X162751485Y-75313095D02*
X162751485Y-75932142D01*
X163084819Y-76836904D02*
X163084819Y-76265476D01*
X163084819Y-76551190D02*
X162084819Y-76551190D01*
X162084819Y-76551190D02*
X162227676Y-76455952D01*
X162227676Y-76455952D02*
X162322914Y-76360714D01*
X162322914Y-76360714D02*
X162370533Y-76265476D01*
X154892857Y-94059580D02*
X154940476Y-94107200D01*
X154940476Y-94107200D02*
X155083333Y-94154819D01*
X155083333Y-94154819D02*
X155178571Y-94154819D01*
X155178571Y-94154819D02*
X155321428Y-94107200D01*
X155321428Y-94107200D02*
X155416666Y-94011961D01*
X155416666Y-94011961D02*
X155464285Y-93916723D01*
X155464285Y-93916723D02*
X155511904Y-93726247D01*
X155511904Y-93726247D02*
X155511904Y-93583390D01*
X155511904Y-93583390D02*
X155464285Y-93392914D01*
X155464285Y-93392914D02*
X155416666Y-93297676D01*
X155416666Y-93297676D02*
X155321428Y-93202438D01*
X155321428Y-93202438D02*
X155178571Y-93154819D01*
X155178571Y-93154819D02*
X155083333Y-93154819D01*
X155083333Y-93154819D02*
X154940476Y-93202438D01*
X154940476Y-93202438D02*
X154892857Y-93250057D01*
X154559523Y-93154819D02*
X153940476Y-93154819D01*
X153940476Y-93154819D02*
X154273809Y-93535771D01*
X154273809Y-93535771D02*
X154130952Y-93535771D01*
X154130952Y-93535771D02*
X154035714Y-93583390D01*
X154035714Y-93583390D02*
X153988095Y-93631009D01*
X153988095Y-93631009D02*
X153940476Y-93726247D01*
X153940476Y-93726247D02*
X153940476Y-93964342D01*
X153940476Y-93964342D02*
X153988095Y-94059580D01*
X153988095Y-94059580D02*
X154035714Y-94107200D01*
X154035714Y-94107200D02*
X154130952Y-94154819D01*
X154130952Y-94154819D02*
X154416666Y-94154819D01*
X154416666Y-94154819D02*
X154511904Y-94107200D01*
X154511904Y-94107200D02*
X154559523Y-94059580D01*
X153083333Y-93154819D02*
X153273809Y-93154819D01*
X153273809Y-93154819D02*
X153369047Y-93202438D01*
X153369047Y-93202438D02*
X153416666Y-93250057D01*
X153416666Y-93250057D02*
X153511904Y-93392914D01*
X153511904Y-93392914D02*
X153559523Y-93583390D01*
X153559523Y-93583390D02*
X153559523Y-93964342D01*
X153559523Y-93964342D02*
X153511904Y-94059580D01*
X153511904Y-94059580D02*
X153464285Y-94107200D01*
X153464285Y-94107200D02*
X153369047Y-94154819D01*
X153369047Y-94154819D02*
X153178571Y-94154819D01*
X153178571Y-94154819D02*
X153083333Y-94107200D01*
X153083333Y-94107200D02*
X153035714Y-94059580D01*
X153035714Y-94059580D02*
X152988095Y-93964342D01*
X152988095Y-93964342D02*
X152988095Y-93726247D01*
X152988095Y-93726247D02*
X153035714Y-93631009D01*
X153035714Y-93631009D02*
X153083333Y-93583390D01*
X153083333Y-93583390D02*
X153178571Y-93535771D01*
X153178571Y-93535771D02*
X153369047Y-93535771D01*
X153369047Y-93535771D02*
X153464285Y-93583390D01*
X153464285Y-93583390D02*
X153511904Y-93631009D01*
X153511904Y-93631009D02*
X153559523Y-93726247D01*
X185548608Y-103322236D02*
X185881941Y-102846045D01*
X186120036Y-103322236D02*
X186120036Y-102322236D01*
X186120036Y-102322236D02*
X185739084Y-102322236D01*
X185739084Y-102322236D02*
X185643846Y-102369855D01*
X185643846Y-102369855D02*
X185596227Y-102417474D01*
X185596227Y-102417474D02*
X185548608Y-102512712D01*
X185548608Y-102512712D02*
X185548608Y-102655569D01*
X185548608Y-102655569D02*
X185596227Y-102750807D01*
X185596227Y-102750807D02*
X185643846Y-102798426D01*
X185643846Y-102798426D02*
X185739084Y-102846045D01*
X185739084Y-102846045D02*
X186120036Y-102846045D01*
X185167655Y-102417474D02*
X185120036Y-102369855D01*
X185120036Y-102369855D02*
X185024798Y-102322236D01*
X185024798Y-102322236D02*
X184786703Y-102322236D01*
X184786703Y-102322236D02*
X184691465Y-102369855D01*
X184691465Y-102369855D02*
X184643846Y-102417474D01*
X184643846Y-102417474D02*
X184596227Y-102512712D01*
X184596227Y-102512712D02*
X184596227Y-102607950D01*
X184596227Y-102607950D02*
X184643846Y-102750807D01*
X184643846Y-102750807D02*
X185215274Y-103322236D01*
X185215274Y-103322236D02*
X184596227Y-103322236D01*
X184262893Y-102322236D02*
X183643846Y-102322236D01*
X183643846Y-102322236D02*
X183977179Y-102703188D01*
X183977179Y-102703188D02*
X183834322Y-102703188D01*
X183834322Y-102703188D02*
X183739084Y-102750807D01*
X183739084Y-102750807D02*
X183691465Y-102798426D01*
X183691465Y-102798426D02*
X183643846Y-102893664D01*
X183643846Y-102893664D02*
X183643846Y-103131759D01*
X183643846Y-103131759D02*
X183691465Y-103226997D01*
X183691465Y-103226997D02*
X183739084Y-103274617D01*
X183739084Y-103274617D02*
X183834322Y-103322236D01*
X183834322Y-103322236D02*
X184120036Y-103322236D01*
X184120036Y-103322236D02*
X184215274Y-103274617D01*
X184215274Y-103274617D02*
X184262893Y-103226997D01*
X181959580Y-101107142D02*
X182007200Y-101059523D01*
X182007200Y-101059523D02*
X182054819Y-100916666D01*
X182054819Y-100916666D02*
X182054819Y-100821428D01*
X182054819Y-100821428D02*
X182007200Y-100678571D01*
X182007200Y-100678571D02*
X181911961Y-100583333D01*
X181911961Y-100583333D02*
X181816723Y-100535714D01*
X181816723Y-100535714D02*
X181626247Y-100488095D01*
X181626247Y-100488095D02*
X181483390Y-100488095D01*
X181483390Y-100488095D02*
X181292914Y-100535714D01*
X181292914Y-100535714D02*
X181197676Y-100583333D01*
X181197676Y-100583333D02*
X181102438Y-100678571D01*
X181102438Y-100678571D02*
X181054819Y-100821428D01*
X181054819Y-100821428D02*
X181054819Y-100916666D01*
X181054819Y-100916666D02*
X181102438Y-101059523D01*
X181102438Y-101059523D02*
X181150057Y-101107142D01*
X182054819Y-102059523D02*
X182054819Y-101488095D01*
X182054819Y-101773809D02*
X181054819Y-101773809D01*
X181054819Y-101773809D02*
X181197676Y-101678571D01*
X181197676Y-101678571D02*
X181292914Y-101583333D01*
X181292914Y-101583333D02*
X181340533Y-101488095D01*
X182054819Y-103011904D02*
X182054819Y-102440476D01*
X182054819Y-102726190D02*
X181054819Y-102726190D01*
X181054819Y-102726190D02*
X181197676Y-102630952D01*
X181197676Y-102630952D02*
X181292914Y-102535714D01*
X181292914Y-102535714D02*
X181340533Y-102440476D01*
X143954818Y-75088096D02*
X144764341Y-75088096D01*
X144764341Y-75088096D02*
X144859579Y-75135715D01*
X144859579Y-75135715D02*
X144907199Y-75183334D01*
X144907199Y-75183334D02*
X144954818Y-75278572D01*
X144954818Y-75278572D02*
X144954818Y-75469048D01*
X144954818Y-75469048D02*
X144907199Y-75564286D01*
X144907199Y-75564286D02*
X144859579Y-75611905D01*
X144859579Y-75611905D02*
X144764341Y-75659524D01*
X144764341Y-75659524D02*
X143954818Y-75659524D01*
X143954818Y-76040477D02*
X143954818Y-76707143D01*
X143954818Y-76707143D02*
X144954818Y-76278572D01*
X187211188Y-87672237D02*
X187544521Y-87196046D01*
X187782616Y-87672237D02*
X187782616Y-86672237D01*
X187782616Y-86672237D02*
X187401664Y-86672237D01*
X187401664Y-86672237D02*
X187306426Y-86719856D01*
X187306426Y-86719856D02*
X187258807Y-86767475D01*
X187258807Y-86767475D02*
X187211188Y-86862713D01*
X187211188Y-86862713D02*
X187211188Y-87005570D01*
X187211188Y-87005570D02*
X187258807Y-87100808D01*
X187258807Y-87100808D02*
X187306426Y-87148427D01*
X187306426Y-87148427D02*
X187401664Y-87196046D01*
X187401664Y-87196046D02*
X187782616Y-87196046D01*
X186830235Y-86767475D02*
X186782616Y-86719856D01*
X186782616Y-86719856D02*
X186687378Y-86672237D01*
X186687378Y-86672237D02*
X186449283Y-86672237D01*
X186449283Y-86672237D02*
X186354045Y-86719856D01*
X186354045Y-86719856D02*
X186306426Y-86767475D01*
X186306426Y-86767475D02*
X186258807Y-86862713D01*
X186258807Y-86862713D02*
X186258807Y-86957951D01*
X186258807Y-86957951D02*
X186306426Y-87100808D01*
X186306426Y-87100808D02*
X186877854Y-87672237D01*
X186877854Y-87672237D02*
X186258807Y-87672237D01*
X185354045Y-86672237D02*
X185830235Y-86672237D01*
X185830235Y-86672237D02*
X185877854Y-87148427D01*
X185877854Y-87148427D02*
X185830235Y-87100808D01*
X185830235Y-87100808D02*
X185734997Y-87053189D01*
X185734997Y-87053189D02*
X185496902Y-87053189D01*
X185496902Y-87053189D02*
X185401664Y-87100808D01*
X185401664Y-87100808D02*
X185354045Y-87148427D01*
X185354045Y-87148427D02*
X185306426Y-87243665D01*
X185306426Y-87243665D02*
X185306426Y-87481760D01*
X185306426Y-87481760D02*
X185354045Y-87576998D01*
X185354045Y-87576998D02*
X185401664Y-87624618D01*
X185401664Y-87624618D02*
X185496902Y-87672237D01*
X185496902Y-87672237D02*
X185734997Y-87672237D01*
X185734997Y-87672237D02*
X185830235Y-87624618D01*
X185830235Y-87624618D02*
X185877854Y-87576998D01*
X116259580Y-101783333D02*
X116307200Y-101735714D01*
X116307200Y-101735714D02*
X116354819Y-101592857D01*
X116354819Y-101592857D02*
X116354819Y-101497619D01*
X116354819Y-101497619D02*
X116307200Y-101354762D01*
X116307200Y-101354762D02*
X116211961Y-101259524D01*
X116211961Y-101259524D02*
X116116723Y-101211905D01*
X116116723Y-101211905D02*
X115926247Y-101164286D01*
X115926247Y-101164286D02*
X115783390Y-101164286D01*
X115783390Y-101164286D02*
X115592914Y-101211905D01*
X115592914Y-101211905D02*
X115497676Y-101259524D01*
X115497676Y-101259524D02*
X115402438Y-101354762D01*
X115402438Y-101354762D02*
X115354819Y-101497619D01*
X115354819Y-101497619D02*
X115354819Y-101592857D01*
X115354819Y-101592857D02*
X115402438Y-101735714D01*
X115402438Y-101735714D02*
X115450057Y-101783333D01*
X115354819Y-102688095D02*
X115354819Y-102211905D01*
X115354819Y-102211905D02*
X115831009Y-102164286D01*
X115831009Y-102164286D02*
X115783390Y-102211905D01*
X115783390Y-102211905D02*
X115735771Y-102307143D01*
X115735771Y-102307143D02*
X115735771Y-102545238D01*
X115735771Y-102545238D02*
X115783390Y-102640476D01*
X115783390Y-102640476D02*
X115831009Y-102688095D01*
X115831009Y-102688095D02*
X115926247Y-102735714D01*
X115926247Y-102735714D02*
X116164342Y-102735714D01*
X116164342Y-102735714D02*
X116259580Y-102688095D01*
X116259580Y-102688095D02*
X116307200Y-102640476D01*
X116307200Y-102640476D02*
X116354819Y-102545238D01*
X116354819Y-102545238D02*
X116354819Y-102307143D01*
X116354819Y-102307143D02*
X116307200Y-102211905D01*
X116307200Y-102211905D02*
X116259580Y-102164286D01*
X194627257Y-70317313D02*
X195341542Y-70317313D01*
X195341542Y-70317313D02*
X195484399Y-70269694D01*
X195484399Y-70269694D02*
X195579638Y-70174456D01*
X195579638Y-70174456D02*
X195627257Y-70031599D01*
X195627257Y-70031599D02*
X195627257Y-69936361D01*
X195055828Y-70936361D02*
X195008209Y-70841123D01*
X195008209Y-70841123D02*
X194960590Y-70793504D01*
X194960590Y-70793504D02*
X194865352Y-70745885D01*
X194865352Y-70745885D02*
X194817733Y-70745885D01*
X194817733Y-70745885D02*
X194722495Y-70793504D01*
X194722495Y-70793504D02*
X194674876Y-70841123D01*
X194674876Y-70841123D02*
X194627257Y-70936361D01*
X194627257Y-70936361D02*
X194627257Y-71126837D01*
X194627257Y-71126837D02*
X194674876Y-71222075D01*
X194674876Y-71222075D02*
X194722495Y-71269694D01*
X194722495Y-71269694D02*
X194817733Y-71317313D01*
X194817733Y-71317313D02*
X194865352Y-71317313D01*
X194865352Y-71317313D02*
X194960590Y-71269694D01*
X194960590Y-71269694D02*
X195008209Y-71222075D01*
X195008209Y-71222075D02*
X195055828Y-71126837D01*
X195055828Y-71126837D02*
X195055828Y-70936361D01*
X195055828Y-70936361D02*
X195103447Y-70841123D01*
X195103447Y-70841123D02*
X195151066Y-70793504D01*
X195151066Y-70793504D02*
X195246304Y-70745885D01*
X195246304Y-70745885D02*
X195436780Y-70745885D01*
X195436780Y-70745885D02*
X195532018Y-70793504D01*
X195532018Y-70793504D02*
X195579638Y-70841123D01*
X195579638Y-70841123D02*
X195627257Y-70936361D01*
X195627257Y-70936361D02*
X195627257Y-71126837D01*
X195627257Y-71126837D02*
X195579638Y-71222075D01*
X195579638Y-71222075D02*
X195532018Y-71269694D01*
X195532018Y-71269694D02*
X195436780Y-71317313D01*
X195436780Y-71317313D02*
X195246304Y-71317313D01*
X195246304Y-71317313D02*
X195151066Y-71269694D01*
X195151066Y-71269694D02*
X195103447Y-71222075D01*
X195103447Y-71222075D02*
X195055828Y-71126837D01*
X177046118Y-56117003D02*
X177618537Y-56015988D01*
X177450179Y-56521064D02*
X178157285Y-55813957D01*
X178157285Y-55813957D02*
X177887911Y-55544583D01*
X177887911Y-55544583D02*
X177786896Y-55510911D01*
X177786896Y-55510911D02*
X177719553Y-55510911D01*
X177719553Y-55510911D02*
X177618537Y-55544583D01*
X177618537Y-55544583D02*
X177517522Y-55645598D01*
X177517522Y-55645598D02*
X177483850Y-55746614D01*
X177483850Y-55746614D02*
X177483850Y-55813957D01*
X177483850Y-55813957D02*
X177517522Y-55914972D01*
X177517522Y-55914972D02*
X177786896Y-56184346D01*
X177416507Y-55207866D02*
X177416507Y-55140522D01*
X177416507Y-55140522D02*
X177382835Y-55039507D01*
X177382835Y-55039507D02*
X177214476Y-54871148D01*
X177214476Y-54871148D02*
X177113461Y-54837476D01*
X177113461Y-54837476D02*
X177046118Y-54837476D01*
X177046118Y-54837476D02*
X176945102Y-54871148D01*
X176945102Y-54871148D02*
X176877759Y-54938492D01*
X176877759Y-54938492D02*
X176810415Y-55073179D01*
X176810415Y-55073179D02*
X176810415Y-55881301D01*
X176810415Y-55881301D02*
X176372683Y-55443568D01*
X176844087Y-54500759D02*
X176372682Y-54029354D01*
X176372682Y-54029354D02*
X175968621Y-55039507D01*
X172404819Y-101107142D02*
X171928628Y-100773809D01*
X172404819Y-100535714D02*
X171404819Y-100535714D01*
X171404819Y-100535714D02*
X171404819Y-100916666D01*
X171404819Y-100916666D02*
X171452438Y-101011904D01*
X171452438Y-101011904D02*
X171500057Y-101059523D01*
X171500057Y-101059523D02*
X171595295Y-101107142D01*
X171595295Y-101107142D02*
X171738152Y-101107142D01*
X171738152Y-101107142D02*
X171833390Y-101059523D01*
X171833390Y-101059523D02*
X171881009Y-101011904D01*
X171881009Y-101011904D02*
X171928628Y-100916666D01*
X171928628Y-100916666D02*
X171928628Y-100535714D01*
X172404819Y-102059523D02*
X172404819Y-101488095D01*
X172404819Y-101773809D02*
X171404819Y-101773809D01*
X171404819Y-101773809D02*
X171547676Y-101678571D01*
X171547676Y-101678571D02*
X171642914Y-101583333D01*
X171642914Y-101583333D02*
X171690533Y-101488095D01*
X172404819Y-103011904D02*
X172404819Y-102440476D01*
X172404819Y-102726190D02*
X171404819Y-102726190D01*
X171404819Y-102726190D02*
X171547676Y-102630952D01*
X171547676Y-102630952D02*
X171642914Y-102535714D01*
X171642914Y-102535714D02*
X171690533Y-102440476D01*
X114009580Y-101833333D02*
X114057200Y-101785714D01*
X114057200Y-101785714D02*
X114104819Y-101642857D01*
X114104819Y-101642857D02*
X114104819Y-101547619D01*
X114104819Y-101547619D02*
X114057200Y-101404762D01*
X114057200Y-101404762D02*
X113961961Y-101309524D01*
X113961961Y-101309524D02*
X113866723Y-101261905D01*
X113866723Y-101261905D02*
X113676247Y-101214286D01*
X113676247Y-101214286D02*
X113533390Y-101214286D01*
X113533390Y-101214286D02*
X113342914Y-101261905D01*
X113342914Y-101261905D02*
X113247676Y-101309524D01*
X113247676Y-101309524D02*
X113152438Y-101404762D01*
X113152438Y-101404762D02*
X113104819Y-101547619D01*
X113104819Y-101547619D02*
X113104819Y-101642857D01*
X113104819Y-101642857D02*
X113152438Y-101785714D01*
X113152438Y-101785714D02*
X113200057Y-101833333D01*
X113438152Y-102690476D02*
X114104819Y-102690476D01*
X113057200Y-102452381D02*
X113771485Y-102214286D01*
X113771485Y-102214286D02*
X113771485Y-102833333D01*
X182454819Y-87857142D02*
X181978628Y-87523809D01*
X182454819Y-87285714D02*
X181454819Y-87285714D01*
X181454819Y-87285714D02*
X181454819Y-87666666D01*
X181454819Y-87666666D02*
X181502438Y-87761904D01*
X181502438Y-87761904D02*
X181550057Y-87809523D01*
X181550057Y-87809523D02*
X181645295Y-87857142D01*
X181645295Y-87857142D02*
X181788152Y-87857142D01*
X181788152Y-87857142D02*
X181883390Y-87809523D01*
X181883390Y-87809523D02*
X181931009Y-87761904D01*
X181931009Y-87761904D02*
X181978628Y-87666666D01*
X181978628Y-87666666D02*
X181978628Y-87285714D01*
X181550057Y-88238095D02*
X181502438Y-88285714D01*
X181502438Y-88285714D02*
X181454819Y-88380952D01*
X181454819Y-88380952D02*
X181454819Y-88619047D01*
X181454819Y-88619047D02*
X181502438Y-88714285D01*
X181502438Y-88714285D02*
X181550057Y-88761904D01*
X181550057Y-88761904D02*
X181645295Y-88809523D01*
X181645295Y-88809523D02*
X181740533Y-88809523D01*
X181740533Y-88809523D02*
X181883390Y-88761904D01*
X181883390Y-88761904D02*
X182454819Y-88190476D01*
X182454819Y-88190476D02*
X182454819Y-88809523D01*
X181550057Y-89190476D02*
X181502438Y-89238095D01*
X181502438Y-89238095D02*
X181454819Y-89333333D01*
X181454819Y-89333333D02*
X181454819Y-89571428D01*
X181454819Y-89571428D02*
X181502438Y-89666666D01*
X181502438Y-89666666D02*
X181550057Y-89714285D01*
X181550057Y-89714285D02*
X181645295Y-89761904D01*
X181645295Y-89761904D02*
X181740533Y-89761904D01*
X181740533Y-89761904D02*
X181883390Y-89714285D01*
X181883390Y-89714285D02*
X182454819Y-89142857D01*
X182454819Y-89142857D02*
X182454819Y-89761904D01*
X182384819Y-55332142D02*
X181908628Y-54998809D01*
X182384819Y-54760714D02*
X181384819Y-54760714D01*
X181384819Y-54760714D02*
X181384819Y-55141666D01*
X181384819Y-55141666D02*
X181432438Y-55236904D01*
X181432438Y-55236904D02*
X181480057Y-55284523D01*
X181480057Y-55284523D02*
X181575295Y-55332142D01*
X181575295Y-55332142D02*
X181718152Y-55332142D01*
X181718152Y-55332142D02*
X181813390Y-55284523D01*
X181813390Y-55284523D02*
X181861009Y-55236904D01*
X181861009Y-55236904D02*
X181908628Y-55141666D01*
X181908628Y-55141666D02*
X181908628Y-54760714D01*
X181480057Y-55713095D02*
X181432438Y-55760714D01*
X181432438Y-55760714D02*
X181384819Y-55855952D01*
X181384819Y-55855952D02*
X181384819Y-56094047D01*
X181384819Y-56094047D02*
X181432438Y-56189285D01*
X181432438Y-56189285D02*
X181480057Y-56236904D01*
X181480057Y-56236904D02*
X181575295Y-56284523D01*
X181575295Y-56284523D02*
X181670533Y-56284523D01*
X181670533Y-56284523D02*
X181813390Y-56236904D01*
X181813390Y-56236904D02*
X182384819Y-55665476D01*
X182384819Y-55665476D02*
X182384819Y-56284523D01*
X181813390Y-56855952D02*
X181765771Y-56760714D01*
X181765771Y-56760714D02*
X181718152Y-56713095D01*
X181718152Y-56713095D02*
X181622914Y-56665476D01*
X181622914Y-56665476D02*
X181575295Y-56665476D01*
X181575295Y-56665476D02*
X181480057Y-56713095D01*
X181480057Y-56713095D02*
X181432438Y-56760714D01*
X181432438Y-56760714D02*
X181384819Y-56855952D01*
X181384819Y-56855952D02*
X181384819Y-57046428D01*
X181384819Y-57046428D02*
X181432438Y-57141666D01*
X181432438Y-57141666D02*
X181480057Y-57189285D01*
X181480057Y-57189285D02*
X181575295Y-57236904D01*
X181575295Y-57236904D02*
X181622914Y-57236904D01*
X181622914Y-57236904D02*
X181718152Y-57189285D01*
X181718152Y-57189285D02*
X181765771Y-57141666D01*
X181765771Y-57141666D02*
X181813390Y-57046428D01*
X181813390Y-57046428D02*
X181813390Y-56855952D01*
X181813390Y-56855952D02*
X181861009Y-56760714D01*
X181861009Y-56760714D02*
X181908628Y-56713095D01*
X181908628Y-56713095D02*
X182003866Y-56665476D01*
X182003866Y-56665476D02*
X182194342Y-56665476D01*
X182194342Y-56665476D02*
X182289580Y-56713095D01*
X182289580Y-56713095D02*
X182337200Y-56760714D01*
X182337200Y-56760714D02*
X182384819Y-56855952D01*
X182384819Y-56855952D02*
X182384819Y-57046428D01*
X182384819Y-57046428D02*
X182337200Y-57141666D01*
X182337200Y-57141666D02*
X182289580Y-57189285D01*
X182289580Y-57189285D02*
X182194342Y-57236904D01*
X182194342Y-57236904D02*
X182003866Y-57236904D01*
X182003866Y-57236904D02*
X181908628Y-57189285D01*
X181908628Y-57189285D02*
X181861009Y-57141666D01*
X181861009Y-57141666D02*
X181813390Y-57046428D01*
X162354819Y-101933333D02*
X161878628Y-101600000D01*
X162354819Y-101361905D02*
X161354819Y-101361905D01*
X161354819Y-101361905D02*
X161354819Y-101742857D01*
X161354819Y-101742857D02*
X161402438Y-101838095D01*
X161402438Y-101838095D02*
X161450057Y-101885714D01*
X161450057Y-101885714D02*
X161545295Y-101933333D01*
X161545295Y-101933333D02*
X161688152Y-101933333D01*
X161688152Y-101933333D02*
X161783390Y-101885714D01*
X161783390Y-101885714D02*
X161831009Y-101838095D01*
X161831009Y-101838095D02*
X161878628Y-101742857D01*
X161878628Y-101742857D02*
X161878628Y-101361905D01*
X161354819Y-102790476D02*
X161354819Y-102600000D01*
X161354819Y-102600000D02*
X161402438Y-102504762D01*
X161402438Y-102504762D02*
X161450057Y-102457143D01*
X161450057Y-102457143D02*
X161592914Y-102361905D01*
X161592914Y-102361905D02*
X161783390Y-102314286D01*
X161783390Y-102314286D02*
X162164342Y-102314286D01*
X162164342Y-102314286D02*
X162259580Y-102361905D01*
X162259580Y-102361905D02*
X162307200Y-102409524D01*
X162307200Y-102409524D02*
X162354819Y-102504762D01*
X162354819Y-102504762D02*
X162354819Y-102695238D01*
X162354819Y-102695238D02*
X162307200Y-102790476D01*
X162307200Y-102790476D02*
X162259580Y-102838095D01*
X162259580Y-102838095D02*
X162164342Y-102885714D01*
X162164342Y-102885714D02*
X161926247Y-102885714D01*
X161926247Y-102885714D02*
X161831009Y-102838095D01*
X161831009Y-102838095D02*
X161783390Y-102790476D01*
X161783390Y-102790476D02*
X161735771Y-102695238D01*
X161735771Y-102695238D02*
X161735771Y-102504762D01*
X161735771Y-102504762D02*
X161783390Y-102409524D01*
X161783390Y-102409524D02*
X161831009Y-102361905D01*
X161831009Y-102361905D02*
X161926247Y-102314286D01*
X152992857Y-87859580D02*
X153040476Y-87907200D01*
X153040476Y-87907200D02*
X153183333Y-87954819D01*
X153183333Y-87954819D02*
X153278571Y-87954819D01*
X153278571Y-87954819D02*
X153421428Y-87907200D01*
X153421428Y-87907200D02*
X153516666Y-87811961D01*
X153516666Y-87811961D02*
X153564285Y-87716723D01*
X153564285Y-87716723D02*
X153611904Y-87526247D01*
X153611904Y-87526247D02*
X153611904Y-87383390D01*
X153611904Y-87383390D02*
X153564285Y-87192914D01*
X153564285Y-87192914D02*
X153516666Y-87097676D01*
X153516666Y-87097676D02*
X153421428Y-87002438D01*
X153421428Y-87002438D02*
X153278571Y-86954819D01*
X153278571Y-86954819D02*
X153183333Y-86954819D01*
X153183333Y-86954819D02*
X153040476Y-87002438D01*
X153040476Y-87002438D02*
X152992857Y-87050057D01*
X152611904Y-87050057D02*
X152564285Y-87002438D01*
X152564285Y-87002438D02*
X152469047Y-86954819D01*
X152469047Y-86954819D02*
X152230952Y-86954819D01*
X152230952Y-86954819D02*
X152135714Y-87002438D01*
X152135714Y-87002438D02*
X152088095Y-87050057D01*
X152088095Y-87050057D02*
X152040476Y-87145295D01*
X152040476Y-87145295D02*
X152040476Y-87240533D01*
X152040476Y-87240533D02*
X152088095Y-87383390D01*
X152088095Y-87383390D02*
X152659523Y-87954819D01*
X152659523Y-87954819D02*
X152040476Y-87954819D01*
X151421428Y-86954819D02*
X151326190Y-86954819D01*
X151326190Y-86954819D02*
X151230952Y-87002438D01*
X151230952Y-87002438D02*
X151183333Y-87050057D01*
X151183333Y-87050057D02*
X151135714Y-87145295D01*
X151135714Y-87145295D02*
X151088095Y-87335771D01*
X151088095Y-87335771D02*
X151088095Y-87573866D01*
X151088095Y-87573866D02*
X151135714Y-87764342D01*
X151135714Y-87764342D02*
X151183333Y-87859580D01*
X151183333Y-87859580D02*
X151230952Y-87907200D01*
X151230952Y-87907200D02*
X151326190Y-87954819D01*
X151326190Y-87954819D02*
X151421428Y-87954819D01*
X151421428Y-87954819D02*
X151516666Y-87907200D01*
X151516666Y-87907200D02*
X151564285Y-87859580D01*
X151564285Y-87859580D02*
X151611904Y-87764342D01*
X151611904Y-87764342D02*
X151659523Y-87573866D01*
X151659523Y-87573866D02*
X151659523Y-87335771D01*
X151659523Y-87335771D02*
X151611904Y-87145295D01*
X151611904Y-87145295D02*
X151564285Y-87050057D01*
X151564285Y-87050057D02*
X151516666Y-87002438D01*
X151516666Y-87002438D02*
X151421428Y-86954819D01*
X138092857Y-95009580D02*
X138140476Y-95057200D01*
X138140476Y-95057200D02*
X138283333Y-95104819D01*
X138283333Y-95104819D02*
X138378571Y-95104819D01*
X138378571Y-95104819D02*
X138521428Y-95057200D01*
X138521428Y-95057200D02*
X138616666Y-94961961D01*
X138616666Y-94961961D02*
X138664285Y-94866723D01*
X138664285Y-94866723D02*
X138711904Y-94676247D01*
X138711904Y-94676247D02*
X138711904Y-94533390D01*
X138711904Y-94533390D02*
X138664285Y-94342914D01*
X138664285Y-94342914D02*
X138616666Y-94247676D01*
X138616666Y-94247676D02*
X138521428Y-94152438D01*
X138521428Y-94152438D02*
X138378571Y-94104819D01*
X138378571Y-94104819D02*
X138283333Y-94104819D01*
X138283333Y-94104819D02*
X138140476Y-94152438D01*
X138140476Y-94152438D02*
X138092857Y-94200057D01*
X137759523Y-94104819D02*
X137140476Y-94104819D01*
X137140476Y-94104819D02*
X137473809Y-94485771D01*
X137473809Y-94485771D02*
X137330952Y-94485771D01*
X137330952Y-94485771D02*
X137235714Y-94533390D01*
X137235714Y-94533390D02*
X137188095Y-94581009D01*
X137188095Y-94581009D02*
X137140476Y-94676247D01*
X137140476Y-94676247D02*
X137140476Y-94914342D01*
X137140476Y-94914342D02*
X137188095Y-95009580D01*
X137188095Y-95009580D02*
X137235714Y-95057200D01*
X137235714Y-95057200D02*
X137330952Y-95104819D01*
X137330952Y-95104819D02*
X137616666Y-95104819D01*
X137616666Y-95104819D02*
X137711904Y-95057200D01*
X137711904Y-95057200D02*
X137759523Y-95009580D01*
X136235714Y-94104819D02*
X136711904Y-94104819D01*
X136711904Y-94104819D02*
X136759523Y-94581009D01*
X136759523Y-94581009D02*
X136711904Y-94533390D01*
X136711904Y-94533390D02*
X136616666Y-94485771D01*
X136616666Y-94485771D02*
X136378571Y-94485771D01*
X136378571Y-94485771D02*
X136283333Y-94533390D01*
X136283333Y-94533390D02*
X136235714Y-94581009D01*
X136235714Y-94581009D02*
X136188095Y-94676247D01*
X136188095Y-94676247D02*
X136188095Y-94914342D01*
X136188095Y-94914342D02*
X136235714Y-95009580D01*
X136235714Y-95009580D02*
X136283333Y-95057200D01*
X136283333Y-95057200D02*
X136378571Y-95104819D01*
X136378571Y-95104819D02*
X136616666Y-95104819D01*
X136616666Y-95104819D02*
X136711904Y-95057200D01*
X136711904Y-95057200D02*
X136759523Y-95009580D01*
X118054819Y-89738095D02*
X118864342Y-89738095D01*
X118864342Y-89738095D02*
X118959580Y-89785714D01*
X118959580Y-89785714D02*
X119007200Y-89833333D01*
X119007200Y-89833333D02*
X119054819Y-89928571D01*
X119054819Y-89928571D02*
X119054819Y-90119047D01*
X119054819Y-90119047D02*
X119007200Y-90214285D01*
X119007200Y-90214285D02*
X118959580Y-90261904D01*
X118959580Y-90261904D02*
X118864342Y-90309523D01*
X118864342Y-90309523D02*
X118054819Y-90309523D01*
X118054819Y-91214285D02*
X118054819Y-91023809D01*
X118054819Y-91023809D02*
X118102438Y-90928571D01*
X118102438Y-90928571D02*
X118150057Y-90880952D01*
X118150057Y-90880952D02*
X118292914Y-90785714D01*
X118292914Y-90785714D02*
X118483390Y-90738095D01*
X118483390Y-90738095D02*
X118864342Y-90738095D01*
X118864342Y-90738095D02*
X118959580Y-90785714D01*
X118959580Y-90785714D02*
X119007200Y-90833333D01*
X119007200Y-90833333D02*
X119054819Y-90928571D01*
X119054819Y-90928571D02*
X119054819Y-91119047D01*
X119054819Y-91119047D02*
X119007200Y-91214285D01*
X119007200Y-91214285D02*
X118959580Y-91261904D01*
X118959580Y-91261904D02*
X118864342Y-91309523D01*
X118864342Y-91309523D02*
X118626247Y-91309523D01*
X118626247Y-91309523D02*
X118531009Y-91261904D01*
X118531009Y-91261904D02*
X118483390Y-91214285D01*
X118483390Y-91214285D02*
X118435771Y-91119047D01*
X118435771Y-91119047D02*
X118435771Y-90928571D01*
X118435771Y-90928571D02*
X118483390Y-90833333D01*
X118483390Y-90833333D02*
X118531009Y-90785714D01*
X118531009Y-90785714D02*
X118626247Y-90738095D01*
X155167857Y-74674819D02*
X155501190Y-74198628D01*
X155739285Y-74674819D02*
X155739285Y-73674819D01*
X155739285Y-73674819D02*
X155358333Y-73674819D01*
X155358333Y-73674819D02*
X155263095Y-73722438D01*
X155263095Y-73722438D02*
X155215476Y-73770057D01*
X155215476Y-73770057D02*
X155167857Y-73865295D01*
X155167857Y-73865295D02*
X155167857Y-74008152D01*
X155167857Y-74008152D02*
X155215476Y-74103390D01*
X155215476Y-74103390D02*
X155263095Y-74151009D01*
X155263095Y-74151009D02*
X155358333Y-74198628D01*
X155358333Y-74198628D02*
X155739285Y-74198628D01*
X154834523Y-73674819D02*
X154215476Y-73674819D01*
X154215476Y-73674819D02*
X154548809Y-74055771D01*
X154548809Y-74055771D02*
X154405952Y-74055771D01*
X154405952Y-74055771D02*
X154310714Y-74103390D01*
X154310714Y-74103390D02*
X154263095Y-74151009D01*
X154263095Y-74151009D02*
X154215476Y-74246247D01*
X154215476Y-74246247D02*
X154215476Y-74484342D01*
X154215476Y-74484342D02*
X154263095Y-74579580D01*
X154263095Y-74579580D02*
X154310714Y-74627200D01*
X154310714Y-74627200D02*
X154405952Y-74674819D01*
X154405952Y-74674819D02*
X154691666Y-74674819D01*
X154691666Y-74674819D02*
X154786904Y-74627200D01*
X154786904Y-74627200D02*
X154834523Y-74579580D01*
X153596428Y-73674819D02*
X153501190Y-73674819D01*
X153501190Y-73674819D02*
X153405952Y-73722438D01*
X153405952Y-73722438D02*
X153358333Y-73770057D01*
X153358333Y-73770057D02*
X153310714Y-73865295D01*
X153310714Y-73865295D02*
X153263095Y-74055771D01*
X153263095Y-74055771D02*
X153263095Y-74293866D01*
X153263095Y-74293866D02*
X153310714Y-74484342D01*
X153310714Y-74484342D02*
X153358333Y-74579580D01*
X153358333Y-74579580D02*
X153405952Y-74627200D01*
X153405952Y-74627200D02*
X153501190Y-74674819D01*
X153501190Y-74674819D02*
X153596428Y-74674819D01*
X153596428Y-74674819D02*
X153691666Y-74627200D01*
X153691666Y-74627200D02*
X153739285Y-74579580D01*
X153739285Y-74579580D02*
X153786904Y-74484342D01*
X153786904Y-74484342D02*
X153834523Y-74293866D01*
X153834523Y-74293866D02*
X153834523Y-74055771D01*
X153834523Y-74055771D02*
X153786904Y-73865295D01*
X153786904Y-73865295D02*
X153739285Y-73770057D01*
X153739285Y-73770057D02*
X153691666Y-73722438D01*
X153691666Y-73722438D02*
X153596428Y-73674819D01*
X166302562Y-103312011D02*
X166635895Y-102835820D01*
X166873990Y-103312011D02*
X166873990Y-102312011D01*
X166873990Y-102312011D02*
X166493038Y-102312011D01*
X166493038Y-102312011D02*
X166397800Y-102359630D01*
X166397800Y-102359630D02*
X166350181Y-102407249D01*
X166350181Y-102407249D02*
X166302562Y-102502487D01*
X166302562Y-102502487D02*
X166302562Y-102645344D01*
X166302562Y-102645344D02*
X166350181Y-102740582D01*
X166350181Y-102740582D02*
X166397800Y-102788201D01*
X166397800Y-102788201D02*
X166493038Y-102835820D01*
X166493038Y-102835820D02*
X166873990Y-102835820D01*
X165969228Y-102312011D02*
X165302562Y-102312011D01*
X165302562Y-102312011D02*
X165731133Y-103312011D01*
X149609580Y-98157142D02*
X149657200Y-98109523D01*
X149657200Y-98109523D02*
X149704819Y-97966666D01*
X149704819Y-97966666D02*
X149704819Y-97871428D01*
X149704819Y-97871428D02*
X149657200Y-97728571D01*
X149657200Y-97728571D02*
X149561961Y-97633333D01*
X149561961Y-97633333D02*
X149466723Y-97585714D01*
X149466723Y-97585714D02*
X149276247Y-97538095D01*
X149276247Y-97538095D02*
X149133390Y-97538095D01*
X149133390Y-97538095D02*
X148942914Y-97585714D01*
X148942914Y-97585714D02*
X148847676Y-97633333D01*
X148847676Y-97633333D02*
X148752438Y-97728571D01*
X148752438Y-97728571D02*
X148704819Y-97871428D01*
X148704819Y-97871428D02*
X148704819Y-97966666D01*
X148704819Y-97966666D02*
X148752438Y-98109523D01*
X148752438Y-98109523D02*
X148800057Y-98157142D01*
X148704819Y-98490476D02*
X148704819Y-99109523D01*
X148704819Y-99109523D02*
X149085771Y-98776190D01*
X149085771Y-98776190D02*
X149085771Y-98919047D01*
X149085771Y-98919047D02*
X149133390Y-99014285D01*
X149133390Y-99014285D02*
X149181009Y-99061904D01*
X149181009Y-99061904D02*
X149276247Y-99109523D01*
X149276247Y-99109523D02*
X149514342Y-99109523D01*
X149514342Y-99109523D02*
X149609580Y-99061904D01*
X149609580Y-99061904D02*
X149657200Y-99014285D01*
X149657200Y-99014285D02*
X149704819Y-98919047D01*
X149704819Y-98919047D02*
X149704819Y-98633333D01*
X149704819Y-98633333D02*
X149657200Y-98538095D01*
X149657200Y-98538095D02*
X149609580Y-98490476D01*
X148800057Y-99490476D02*
X148752438Y-99538095D01*
X148752438Y-99538095D02*
X148704819Y-99633333D01*
X148704819Y-99633333D02*
X148704819Y-99871428D01*
X148704819Y-99871428D02*
X148752438Y-99966666D01*
X148752438Y-99966666D02*
X148800057Y-100014285D01*
X148800057Y-100014285D02*
X148895295Y-100061904D01*
X148895295Y-100061904D02*
X148990533Y-100061904D01*
X148990533Y-100061904D02*
X149133390Y-100014285D01*
X149133390Y-100014285D02*
X149704819Y-99442857D01*
X149704819Y-99442857D02*
X149704819Y-100061904D01*
X189788094Y-103654819D02*
X189788094Y-102654819D01*
X189788094Y-102654819D02*
X189549999Y-102654819D01*
X189549999Y-102654819D02*
X189407142Y-102702438D01*
X189407142Y-102702438D02*
X189311904Y-102797676D01*
X189311904Y-102797676D02*
X189264285Y-102892914D01*
X189264285Y-102892914D02*
X189216666Y-103083390D01*
X189216666Y-103083390D02*
X189216666Y-103226247D01*
X189216666Y-103226247D02*
X189264285Y-103416723D01*
X189264285Y-103416723D02*
X189311904Y-103511961D01*
X189311904Y-103511961D02*
X189407142Y-103607200D01*
X189407142Y-103607200D02*
X189549999Y-103654819D01*
X189549999Y-103654819D02*
X189788094Y-103654819D01*
X188359523Y-102988152D02*
X188359523Y-103654819D01*
X188597618Y-102607200D02*
X188835713Y-103321485D01*
X188835713Y-103321485D02*
X188216666Y-103321485D01*
X173442857Y-95459580D02*
X173490476Y-95507200D01*
X173490476Y-95507200D02*
X173633333Y-95554819D01*
X173633333Y-95554819D02*
X173728571Y-95554819D01*
X173728571Y-95554819D02*
X173871428Y-95507200D01*
X173871428Y-95507200D02*
X173966666Y-95411961D01*
X173966666Y-95411961D02*
X174014285Y-95316723D01*
X174014285Y-95316723D02*
X174061904Y-95126247D01*
X174061904Y-95126247D02*
X174061904Y-94983390D01*
X174061904Y-94983390D02*
X174014285Y-94792914D01*
X174014285Y-94792914D02*
X173966666Y-94697676D01*
X173966666Y-94697676D02*
X173871428Y-94602438D01*
X173871428Y-94602438D02*
X173728571Y-94554819D01*
X173728571Y-94554819D02*
X173633333Y-94554819D01*
X173633333Y-94554819D02*
X173490476Y-94602438D01*
X173490476Y-94602438D02*
X173442857Y-94650057D01*
X172490476Y-95554819D02*
X173061904Y-95554819D01*
X172776190Y-95554819D02*
X172776190Y-94554819D01*
X172776190Y-94554819D02*
X172871428Y-94697676D01*
X172871428Y-94697676D02*
X172966666Y-94792914D01*
X172966666Y-94792914D02*
X173061904Y-94840533D01*
X171585714Y-94554819D02*
X172061904Y-94554819D01*
X172061904Y-94554819D02*
X172109523Y-95031009D01*
X172109523Y-95031009D02*
X172061904Y-94983390D01*
X172061904Y-94983390D02*
X171966666Y-94935771D01*
X171966666Y-94935771D02*
X171728571Y-94935771D01*
X171728571Y-94935771D02*
X171633333Y-94983390D01*
X171633333Y-94983390D02*
X171585714Y-95031009D01*
X171585714Y-95031009D02*
X171538095Y-95126247D01*
X171538095Y-95126247D02*
X171538095Y-95364342D01*
X171538095Y-95364342D02*
X171585714Y-95459580D01*
X171585714Y-95459580D02*
X171633333Y-95507200D01*
X171633333Y-95507200D02*
X171728571Y-95554819D01*
X171728571Y-95554819D02*
X171966666Y-95554819D01*
X171966666Y-95554819D02*
X172061904Y-95507200D01*
X172061904Y-95507200D02*
X172109523Y-95459580D01*
X152354819Y-78011905D02*
X151354819Y-78011905D01*
X151354819Y-78011905D02*
X151354819Y-78250000D01*
X151354819Y-78250000D02*
X151402438Y-78392857D01*
X151402438Y-78392857D02*
X151497676Y-78488095D01*
X151497676Y-78488095D02*
X151592914Y-78535714D01*
X151592914Y-78535714D02*
X151783390Y-78583333D01*
X151783390Y-78583333D02*
X151926247Y-78583333D01*
X151926247Y-78583333D02*
X152116723Y-78535714D01*
X152116723Y-78535714D02*
X152211961Y-78488095D01*
X152211961Y-78488095D02*
X152307200Y-78392857D01*
X152307200Y-78392857D02*
X152354819Y-78250000D01*
X152354819Y-78250000D02*
X152354819Y-78011905D01*
X151450057Y-78964286D02*
X151402438Y-79011905D01*
X151402438Y-79011905D02*
X151354819Y-79107143D01*
X151354819Y-79107143D02*
X151354819Y-79345238D01*
X151354819Y-79345238D02*
X151402438Y-79440476D01*
X151402438Y-79440476D02*
X151450057Y-79488095D01*
X151450057Y-79488095D02*
X151545295Y-79535714D01*
X151545295Y-79535714D02*
X151640533Y-79535714D01*
X151640533Y-79535714D02*
X151783390Y-79488095D01*
X151783390Y-79488095D02*
X152354819Y-78916667D01*
X152354819Y-78916667D02*
X152354819Y-79535714D01*
X159038094Y-79204819D02*
X159038094Y-80014342D01*
X159038094Y-80014342D02*
X158990475Y-80109580D01*
X158990475Y-80109580D02*
X158942856Y-80157200D01*
X158942856Y-80157200D02*
X158847618Y-80204819D01*
X158847618Y-80204819D02*
X158657142Y-80204819D01*
X158657142Y-80204819D02*
X158561904Y-80157200D01*
X158561904Y-80157200D02*
X158514285Y-80109580D01*
X158514285Y-80109580D02*
X158466666Y-80014342D01*
X158466666Y-80014342D02*
X158466666Y-79204819D01*
X157466666Y-80204819D02*
X158038094Y-80204819D01*
X157752380Y-80204819D02*
X157752380Y-79204819D01*
X157752380Y-79204819D02*
X157847618Y-79347676D01*
X157847618Y-79347676D02*
X157942856Y-79442914D01*
X157942856Y-79442914D02*
X158038094Y-79490533D01*
X157085713Y-79300057D02*
X157038094Y-79252438D01*
X157038094Y-79252438D02*
X156942856Y-79204819D01*
X156942856Y-79204819D02*
X156704761Y-79204819D01*
X156704761Y-79204819D02*
X156609523Y-79252438D01*
X156609523Y-79252438D02*
X156561904Y-79300057D01*
X156561904Y-79300057D02*
X156514285Y-79395295D01*
X156514285Y-79395295D02*
X156514285Y-79490533D01*
X156514285Y-79490533D02*
X156561904Y-79633390D01*
X156561904Y-79633390D02*
X157133332Y-80204819D01*
X157133332Y-80204819D02*
X156514285Y-80204819D01*
X188109580Y-101083333D02*
X188157200Y-101035714D01*
X188157200Y-101035714D02*
X188204819Y-100892857D01*
X188204819Y-100892857D02*
X188204819Y-100797619D01*
X188204819Y-100797619D02*
X188157200Y-100654762D01*
X188157200Y-100654762D02*
X188061961Y-100559524D01*
X188061961Y-100559524D02*
X187966723Y-100511905D01*
X187966723Y-100511905D02*
X187776247Y-100464286D01*
X187776247Y-100464286D02*
X187633390Y-100464286D01*
X187633390Y-100464286D02*
X187442914Y-100511905D01*
X187442914Y-100511905D02*
X187347676Y-100559524D01*
X187347676Y-100559524D02*
X187252438Y-100654762D01*
X187252438Y-100654762D02*
X187204819Y-100797619D01*
X187204819Y-100797619D02*
X187204819Y-100892857D01*
X187204819Y-100892857D02*
X187252438Y-101035714D01*
X187252438Y-101035714D02*
X187300057Y-101083333D01*
X187300057Y-101464286D02*
X187252438Y-101511905D01*
X187252438Y-101511905D02*
X187204819Y-101607143D01*
X187204819Y-101607143D02*
X187204819Y-101845238D01*
X187204819Y-101845238D02*
X187252438Y-101940476D01*
X187252438Y-101940476D02*
X187300057Y-101988095D01*
X187300057Y-101988095D02*
X187395295Y-102035714D01*
X187395295Y-102035714D02*
X187490533Y-102035714D01*
X187490533Y-102035714D02*
X187633390Y-101988095D01*
X187633390Y-101988095D02*
X188204819Y-101416667D01*
X188204819Y-101416667D02*
X188204819Y-102035714D01*
X163992857Y-80204819D02*
X164326190Y-79728628D01*
X164564285Y-80204819D02*
X164564285Y-79204819D01*
X164564285Y-79204819D02*
X164183333Y-79204819D01*
X164183333Y-79204819D02*
X164088095Y-79252438D01*
X164088095Y-79252438D02*
X164040476Y-79300057D01*
X164040476Y-79300057D02*
X163992857Y-79395295D01*
X163992857Y-79395295D02*
X163992857Y-79538152D01*
X163992857Y-79538152D02*
X164040476Y-79633390D01*
X164040476Y-79633390D02*
X164088095Y-79681009D01*
X164088095Y-79681009D02*
X164183333Y-79728628D01*
X164183333Y-79728628D02*
X164564285Y-79728628D01*
X163611904Y-79300057D02*
X163564285Y-79252438D01*
X163564285Y-79252438D02*
X163469047Y-79204819D01*
X163469047Y-79204819D02*
X163230952Y-79204819D01*
X163230952Y-79204819D02*
X163135714Y-79252438D01*
X163135714Y-79252438D02*
X163088095Y-79300057D01*
X163088095Y-79300057D02*
X163040476Y-79395295D01*
X163040476Y-79395295D02*
X163040476Y-79490533D01*
X163040476Y-79490533D02*
X163088095Y-79633390D01*
X163088095Y-79633390D02*
X163659523Y-80204819D01*
X163659523Y-80204819D02*
X163040476Y-80204819D01*
X162564285Y-80204819D02*
X162373809Y-80204819D01*
X162373809Y-80204819D02*
X162278571Y-80157200D01*
X162278571Y-80157200D02*
X162230952Y-80109580D01*
X162230952Y-80109580D02*
X162135714Y-79966723D01*
X162135714Y-79966723D02*
X162088095Y-79776247D01*
X162088095Y-79776247D02*
X162088095Y-79395295D01*
X162088095Y-79395295D02*
X162135714Y-79300057D01*
X162135714Y-79300057D02*
X162183333Y-79252438D01*
X162183333Y-79252438D02*
X162278571Y-79204819D01*
X162278571Y-79204819D02*
X162469047Y-79204819D01*
X162469047Y-79204819D02*
X162564285Y-79252438D01*
X162564285Y-79252438D02*
X162611904Y-79300057D01*
X162611904Y-79300057D02*
X162659523Y-79395295D01*
X162659523Y-79395295D02*
X162659523Y-79633390D01*
X162659523Y-79633390D02*
X162611904Y-79728628D01*
X162611904Y-79728628D02*
X162564285Y-79776247D01*
X162564285Y-79776247D02*
X162469047Y-79823866D01*
X162469047Y-79823866D02*
X162278571Y-79823866D01*
X162278571Y-79823866D02*
X162183333Y-79776247D01*
X162183333Y-79776247D02*
X162135714Y-79728628D01*
X162135714Y-79728628D02*
X162088095Y-79633390D01*
X164342857Y-94309580D02*
X164390476Y-94357200D01*
X164390476Y-94357200D02*
X164533333Y-94404819D01*
X164533333Y-94404819D02*
X164628571Y-94404819D01*
X164628571Y-94404819D02*
X164771428Y-94357200D01*
X164771428Y-94357200D02*
X164866666Y-94261961D01*
X164866666Y-94261961D02*
X164914285Y-94166723D01*
X164914285Y-94166723D02*
X164961904Y-93976247D01*
X164961904Y-93976247D02*
X164961904Y-93833390D01*
X164961904Y-93833390D02*
X164914285Y-93642914D01*
X164914285Y-93642914D02*
X164866666Y-93547676D01*
X164866666Y-93547676D02*
X164771428Y-93452438D01*
X164771428Y-93452438D02*
X164628571Y-93404819D01*
X164628571Y-93404819D02*
X164533333Y-93404819D01*
X164533333Y-93404819D02*
X164390476Y-93452438D01*
X164390476Y-93452438D02*
X164342857Y-93500057D01*
X163390476Y-94404819D02*
X163961904Y-94404819D01*
X163676190Y-94404819D02*
X163676190Y-93404819D01*
X163676190Y-93404819D02*
X163771428Y-93547676D01*
X163771428Y-93547676D02*
X163866666Y-93642914D01*
X163866666Y-93642914D02*
X163961904Y-93690533D01*
X162914285Y-94404819D02*
X162723809Y-94404819D01*
X162723809Y-94404819D02*
X162628571Y-94357200D01*
X162628571Y-94357200D02*
X162580952Y-94309580D01*
X162580952Y-94309580D02*
X162485714Y-94166723D01*
X162485714Y-94166723D02*
X162438095Y-93976247D01*
X162438095Y-93976247D02*
X162438095Y-93595295D01*
X162438095Y-93595295D02*
X162485714Y-93500057D01*
X162485714Y-93500057D02*
X162533333Y-93452438D01*
X162533333Y-93452438D02*
X162628571Y-93404819D01*
X162628571Y-93404819D02*
X162819047Y-93404819D01*
X162819047Y-93404819D02*
X162914285Y-93452438D01*
X162914285Y-93452438D02*
X162961904Y-93500057D01*
X162961904Y-93500057D02*
X163009523Y-93595295D01*
X163009523Y-93595295D02*
X163009523Y-93833390D01*
X163009523Y-93833390D02*
X162961904Y-93928628D01*
X162961904Y-93928628D02*
X162914285Y-93976247D01*
X162914285Y-93976247D02*
X162819047Y-94023866D01*
X162819047Y-94023866D02*
X162628571Y-94023866D01*
X162628571Y-94023866D02*
X162533333Y-93976247D01*
X162533333Y-93976247D02*
X162485714Y-93928628D01*
X162485714Y-93928628D02*
X162438095Y-93833390D01*
X191385609Y-93725789D02*
X190909418Y-93392456D01*
X191385609Y-93154361D02*
X190385609Y-93154361D01*
X190385609Y-93154361D02*
X190385609Y-93535313D01*
X190385609Y-93535313D02*
X190433228Y-93630551D01*
X190433228Y-93630551D02*
X190480847Y-93678170D01*
X190480847Y-93678170D02*
X190576085Y-93725789D01*
X190576085Y-93725789D02*
X190718942Y-93725789D01*
X190718942Y-93725789D02*
X190814180Y-93678170D01*
X190814180Y-93678170D02*
X190861799Y-93630551D01*
X190861799Y-93630551D02*
X190909418Y-93535313D01*
X190909418Y-93535313D02*
X190909418Y-93154361D01*
X190718942Y-94582932D02*
X191385609Y-94582932D01*
X190337990Y-94344837D02*
X191052275Y-94106742D01*
X191052275Y-94106742D02*
X191052275Y-94725789D01*
X163942857Y-100259580D02*
X163990476Y-100307200D01*
X163990476Y-100307200D02*
X164133333Y-100354819D01*
X164133333Y-100354819D02*
X164228571Y-100354819D01*
X164228571Y-100354819D02*
X164371428Y-100307200D01*
X164371428Y-100307200D02*
X164466666Y-100211961D01*
X164466666Y-100211961D02*
X164514285Y-100116723D01*
X164514285Y-100116723D02*
X164561904Y-99926247D01*
X164561904Y-99926247D02*
X164561904Y-99783390D01*
X164561904Y-99783390D02*
X164514285Y-99592914D01*
X164514285Y-99592914D02*
X164466666Y-99497676D01*
X164466666Y-99497676D02*
X164371428Y-99402438D01*
X164371428Y-99402438D02*
X164228571Y-99354819D01*
X164228571Y-99354819D02*
X164133333Y-99354819D01*
X164133333Y-99354819D02*
X163990476Y-99402438D01*
X163990476Y-99402438D02*
X163942857Y-99450057D01*
X162990476Y-100354819D02*
X163561904Y-100354819D01*
X163276190Y-100354819D02*
X163276190Y-99354819D01*
X163276190Y-99354819D02*
X163371428Y-99497676D01*
X163371428Y-99497676D02*
X163466666Y-99592914D01*
X163466666Y-99592914D02*
X163561904Y-99640533D01*
X162133333Y-99354819D02*
X162323809Y-99354819D01*
X162323809Y-99354819D02*
X162419047Y-99402438D01*
X162419047Y-99402438D02*
X162466666Y-99450057D01*
X162466666Y-99450057D02*
X162561904Y-99592914D01*
X162561904Y-99592914D02*
X162609523Y-99783390D01*
X162609523Y-99783390D02*
X162609523Y-100164342D01*
X162609523Y-100164342D02*
X162561904Y-100259580D01*
X162561904Y-100259580D02*
X162514285Y-100307200D01*
X162514285Y-100307200D02*
X162419047Y-100354819D01*
X162419047Y-100354819D02*
X162228571Y-100354819D01*
X162228571Y-100354819D02*
X162133333Y-100307200D01*
X162133333Y-100307200D02*
X162085714Y-100259580D01*
X162085714Y-100259580D02*
X162038095Y-100164342D01*
X162038095Y-100164342D02*
X162038095Y-99926247D01*
X162038095Y-99926247D02*
X162085714Y-99831009D01*
X162085714Y-99831009D02*
X162133333Y-99783390D01*
X162133333Y-99783390D02*
X162228571Y-99735771D01*
X162228571Y-99735771D02*
X162419047Y-99735771D01*
X162419047Y-99735771D02*
X162514285Y-99783390D01*
X162514285Y-99783390D02*
X162561904Y-99831009D01*
X162561904Y-99831009D02*
X162609523Y-99926247D01*
X159368269Y-89872625D02*
X159844459Y-89872625D01*
X159844459Y-89872625D02*
X159844459Y-88872625D01*
X158511126Y-89872625D02*
X159082554Y-89872625D01*
X158796840Y-89872625D02*
X158796840Y-88872625D01*
X158796840Y-88872625D02*
X158892078Y-89015482D01*
X158892078Y-89015482D02*
X158987316Y-89110720D01*
X158987316Y-89110720D02*
X159082554Y-89158339D01*
X161854819Y-97383333D02*
X161378628Y-97050000D01*
X161854819Y-96811905D02*
X160854819Y-96811905D01*
X160854819Y-96811905D02*
X160854819Y-97192857D01*
X160854819Y-97192857D02*
X160902438Y-97288095D01*
X160902438Y-97288095D02*
X160950057Y-97335714D01*
X160950057Y-97335714D02*
X161045295Y-97383333D01*
X161045295Y-97383333D02*
X161188152Y-97383333D01*
X161188152Y-97383333D02*
X161283390Y-97335714D01*
X161283390Y-97335714D02*
X161331009Y-97288095D01*
X161331009Y-97288095D02*
X161378628Y-97192857D01*
X161378628Y-97192857D02*
X161378628Y-96811905D01*
X161854819Y-97859524D02*
X161854819Y-98050000D01*
X161854819Y-98050000D02*
X161807200Y-98145238D01*
X161807200Y-98145238D02*
X161759580Y-98192857D01*
X161759580Y-98192857D02*
X161616723Y-98288095D01*
X161616723Y-98288095D02*
X161426247Y-98335714D01*
X161426247Y-98335714D02*
X161045295Y-98335714D01*
X161045295Y-98335714D02*
X160950057Y-98288095D01*
X160950057Y-98288095D02*
X160902438Y-98240476D01*
X160902438Y-98240476D02*
X160854819Y-98145238D01*
X160854819Y-98145238D02*
X160854819Y-97954762D01*
X160854819Y-97954762D02*
X160902438Y-97859524D01*
X160902438Y-97859524D02*
X160950057Y-97811905D01*
X160950057Y-97811905D02*
X161045295Y-97764286D01*
X161045295Y-97764286D02*
X161283390Y-97764286D01*
X161283390Y-97764286D02*
X161378628Y-97811905D01*
X161378628Y-97811905D02*
X161426247Y-97859524D01*
X161426247Y-97859524D02*
X161473866Y-97954762D01*
X161473866Y-97954762D02*
X161473866Y-98145238D01*
X161473866Y-98145238D02*
X161426247Y-98240476D01*
X161426247Y-98240476D02*
X161378628Y-98288095D01*
X161378628Y-98288095D02*
X161283390Y-98335714D01*
D12*
%TO.C,J3*%
X184260650Y-53671150D02*
G75*
G02*
X183498650Y-53671150I-381000J0D01*
G01*
X183498650Y-53671150D02*
G75*
G02*
X184260650Y-53671150I381000J0D01*
G01*
%TO.C,J1*%
X152311900Y-97504299D02*
G75*
G02*
X151549900Y-97504299I-381000J0D01*
G01*
X151549900Y-97504299D02*
G75*
G02*
X152311900Y-97504299I381000J0D01*
G01*
%TO.C,J4*%
X177410650Y-53671150D02*
G75*
G02*
X176648650Y-53671150I-381000J0D01*
G01*
X176648650Y-53671150D02*
G75*
G02*
X177410650Y-53671150I381000J0D01*
G01*
D13*
%TO.C,RN1*%
X183650000Y-67030000D02*
X181550000Y-67030000D01*
X183650000Y-72370000D02*
X181550000Y-72370000D01*
%TO.C,C10*%
X183392047Y-93569958D02*
X182869541Y-93569958D01*
X183392047Y-95039958D02*
X182869541Y-95039958D01*
%TO.C,C21*%
X153638396Y-89695941D02*
X153638396Y-91118445D01*
X156358396Y-89695941D02*
X156358396Y-91118445D01*
%TO.C,C1*%
X140540581Y-95631998D02*
X140259419Y-95631998D01*
X140540581Y-96651998D02*
X140259419Y-96651998D01*
%TO.C,R5*%
X183195790Y-91844524D02*
X183195790Y-91390396D01*
X184665790Y-91844524D02*
X184665790Y-91390396D01*
%TO.C,R10*%
X168088396Y-98317630D02*
X168088396Y-98771758D01*
X169558396Y-98317630D02*
X169558396Y-98771758D01*
%TO.C,R24*%
X188495791Y-87715394D02*
X188495791Y-88169522D01*
X189965791Y-87715394D02*
X189965791Y-88169522D01*
%TO.C,RN2*%
X183650000Y-61290000D02*
X181550000Y-61290000D01*
X183650000Y-66630000D02*
X181550000Y-66630000D01*
%TO.C,D1*%
X119527502Y-92015000D02*
X122212501Y-92015000D01*
X119527502Y-93935000D02*
X119527502Y-92015000D01*
X122212501Y-93935000D02*
X119527502Y-93935000D01*
%TO.C,C87*%
X180465581Y-72790000D02*
X180184419Y-72790000D01*
X180465581Y-73810000D02*
X180184419Y-73810000D01*
D14*
%TO.C,L3*%
X190693292Y-96154959D02*
X190693292Y-100654959D01*
X190693292Y-100654959D02*
X195193292Y-100654959D01*
X195193292Y-96154959D02*
X190693292Y-96154959D01*
X195193292Y-100654959D02*
X195193292Y-96154959D01*
D15*
X190718292Y-95304959D02*
G75*
G02*
X190318292Y-95304959I-200000J0D01*
G01*
X190318292Y-95304959D02*
G75*
G02*
X190718292Y-95304959I200000J0D01*
G01*
D13*
%TO.C,C38*%
X138764999Y-86032581D02*
X138764999Y-85751419D01*
X139784999Y-86032581D02*
X139784999Y-85751419D01*
%TO.C,R12*%
X157116840Y-103210484D02*
X157116840Y-102735968D01*
X158161840Y-103210484D02*
X158161840Y-102735968D01*
%TO.C,R14*%
X121262258Y-94127500D02*
X120787742Y-94127500D01*
X121262258Y-95172500D02*
X120787742Y-95172500D01*
%TO.C,C8*%
X186320411Y-90132419D02*
X186842917Y-90132419D01*
X186320411Y-91602419D02*
X186842917Y-91602419D01*
%TO.C,R8*%
X168362960Y-88247194D02*
X167908832Y-88247194D01*
X168362960Y-89717194D02*
X167908832Y-89717194D01*
%TO.C,R15*%
X154337258Y-78477500D02*
X153862742Y-78477500D01*
X154337258Y-79522500D02*
X153862742Y-79522500D01*
D14*
%TO.C,U2*%
X165223395Y-90357192D02*
X165223395Y-90057192D01*
X165223395Y-94007030D02*
X165223395Y-93707030D01*
X165523395Y-90057192D02*
X165223395Y-90057192D01*
X165523395Y-94007030D02*
X165223395Y-94007030D01*
X169173233Y-94007030D02*
X168873233Y-94007030D01*
X169173233Y-94007030D02*
X169173233Y-93707030D01*
X169173395Y-90057192D02*
X168373313Y-90057192D01*
X169173395Y-90492193D02*
X169173395Y-90057192D01*
D13*
%TO.C,C6*%
X186307078Y-94132417D02*
X186829584Y-94132417D01*
X186307078Y-95602417D02*
X186829584Y-95602417D01*
%TO.C,C9*%
X195770631Y-101996288D02*
X195770631Y-100573784D01*
X198490631Y-101996288D02*
X198490631Y-100573784D01*
%TO.C,C14*%
X148490000Y-70115581D02*
X148490000Y-69834419D01*
X149510000Y-70115581D02*
X149510000Y-69834419D01*
D16*
%TO.C,U10*%
X139720800Y-87571101D02*
X140014460Y-87571101D01*
X139720800Y-92320899D02*
X139720800Y-87571101D01*
X140014462Y-92320900D02*
X139720800Y-92320899D01*
X149485540Y-87571101D02*
X149779200Y-87571101D01*
X149779200Y-87571101D02*
X149779200Y-92320899D01*
X149779200Y-92320899D02*
X149485540Y-92320899D01*
D17*
G36*
X143315502Y-94111600D02*
G01*
X142934502Y-94111600D01*
X142934502Y-93857600D01*
X143315502Y-93857600D01*
X143315502Y-94111600D01*
G37*
G36*
X143965501Y-86034401D02*
G01*
X143584501Y-86034400D01*
X143584501Y-85780400D01*
X143965500Y-85780400D01*
X143965501Y-86034401D01*
G37*
D13*
%TO.C,C37*%
X149240581Y-84732000D02*
X148959419Y-84732000D01*
X149240581Y-85752000D02*
X148959419Y-85752000D01*
%TO.C,C40*%
X157390000Y-74384419D02*
X157390000Y-74665581D01*
X158410000Y-74384419D02*
X158410000Y-74665581D01*
%TO.C,R16*%
X140427499Y-84754255D02*
X140427499Y-84279739D01*
X141472499Y-84754255D02*
X141472499Y-84279739D01*
%TO.C,C34*%
X150390000Y-95809419D02*
X150390000Y-96090581D01*
X151410000Y-95809419D02*
X151410000Y-96090581D01*
%TO.C,C39*%
X142640004Y-83645081D02*
X142640004Y-83363919D01*
X143660004Y-83645081D02*
X143660004Y-83363919D01*
%TO.C,C7*%
X198970793Y-101991206D02*
X198970793Y-100568702D01*
X201690793Y-101991206D02*
X201690793Y-100568702D01*
%TO.C,C12*%
X170113398Y-91320939D02*
X170113398Y-92743443D01*
X171933398Y-91320939D02*
X171933398Y-92743443D01*
%TO.C,C18*%
X166409650Y-96547193D02*
X165887144Y-96547193D01*
X166409650Y-98017193D02*
X165887144Y-98017193D01*
D14*
%TO.C,U1*%
X183480708Y-99544877D02*
X183480708Y-99979878D01*
X183480708Y-99979878D02*
X184280790Y-99979878D01*
X183480870Y-96030040D02*
X183480870Y-96330040D01*
X183480870Y-96030040D02*
X183780870Y-96030040D01*
X187130708Y-96030040D02*
X187430708Y-96030040D01*
X187130708Y-99979878D02*
X187430708Y-99979878D01*
X187430708Y-96030040D02*
X187430708Y-96330040D01*
X187430708Y-99679878D02*
X187430708Y-99979878D01*
D13*
%TO.C,C3*%
X186313746Y-92132420D02*
X186836252Y-92132420D01*
X186313746Y-93602420D02*
X186836252Y-93602420D01*
%TO.C,R13*%
X193677500Y-102637258D02*
X193677500Y-102162742D01*
X194722500Y-102637258D02*
X194722500Y-102162742D01*
%TO.C,D3*%
X158628853Y-101163730D02*
X160548853Y-101163730D01*
X158628853Y-103848729D02*
X158628853Y-101163730D01*
X160548853Y-101163730D02*
X160548853Y-103848729D01*
%TO.C,C13*%
X150790000Y-70115581D02*
X150790000Y-69834419D01*
X151810000Y-70115581D02*
X151810000Y-69834419D01*
%TO.C,C17*%
X162263397Y-91093445D02*
X162263397Y-90570939D01*
X163733397Y-91093445D02*
X163733397Y-90570939D01*
%TO.C,C41*%
X160690000Y-75715581D02*
X160690000Y-75434419D01*
X161710000Y-75715581D02*
X161710000Y-75434419D01*
%TO.C,C36*%
X151465581Y-93190000D02*
X151184419Y-93190000D01*
X151465581Y-94210000D02*
X151184419Y-94210000D01*
%TO.C,R23*%
X184316227Y-100519958D02*
X184770355Y-100519958D01*
X184316227Y-101989958D02*
X184770355Y-101989958D01*
%TO.C,C11*%
X180738395Y-98668447D02*
X180738395Y-97245943D01*
X182558395Y-98668447D02*
X182558395Y-97245943D01*
%TO.C,U7*%
X145589999Y-74000001D02*
X145590000Y-77760001D01*
X145590000Y-77760001D02*
X146849999Y-77760001D01*
X152410000Y-77760001D02*
X151150001Y-77760001D01*
X152410001Y-74000001D02*
X152410000Y-77760001D01*
X145690000Y-72720001D02*
X145360000Y-72960001D01*
X145360000Y-72480001D01*
X145690000Y-72720001D01*
G36*
X145690000Y-72720001D02*
G01*
X145360000Y-72960001D01*
X145360000Y-72480001D01*
X145690000Y-72720001D01*
G37*
%TO.C,R25*%
X186795395Y-88132418D02*
X186341267Y-88132418D01*
X186795395Y-89602418D02*
X186341267Y-89602418D01*
%TO.C,C5*%
X115399987Y-99419419D02*
X115399987Y-99700581D01*
X116419987Y-99419419D02*
X116419987Y-99700581D01*
D18*
%TO.C,J8*%
X187837500Y-76380000D02*
X187837500Y-73570000D01*
X189457500Y-78025000D02*
X196517500Y-78025000D01*
X189857500Y-63275000D02*
X196517500Y-63275000D01*
X199357499Y-63275000D02*
X202337500Y-63275000D01*
X199357499Y-78025000D02*
X202337500Y-78025000D01*
X202337500Y-63275000D02*
X202337500Y-78025000D01*
D14*
X186087500Y-72900000D02*
G75*
G02*
X185887500Y-72900000I-100000J0D01*
G01*
X185887500Y-72900000D02*
G75*
G02*
X186087500Y-72900000I100000J0D01*
G01*
D13*
%TO.C,R27*%
X175640773Y-56812022D02*
X175441962Y-56613211D01*
X176362022Y-56090773D02*
X176163211Y-55891962D01*
%TO.C,R11*%
X169988399Y-98317628D02*
X169988399Y-98771756D01*
X171458399Y-98317628D02*
X171458399Y-98771756D01*
%TO.C,C4*%
X113099987Y-99419419D02*
X113099987Y-99700581D01*
X114119987Y-99419419D02*
X114119987Y-99700581D01*
%TO.C,R22*%
X181295791Y-91819523D02*
X181295791Y-91365395D01*
X182765791Y-91819523D02*
X182765791Y-91365395D01*
%TO.C,R28*%
X179990000Y-56115581D02*
X179990000Y-55834419D01*
X181010000Y-56115581D02*
X181010000Y-55834419D01*
%TO.C,R6*%
X162763398Y-102346758D02*
X162763398Y-101892630D01*
X164233398Y-102346758D02*
X164233398Y-101892630D01*
%TO.C,C20*%
X150388396Y-89695941D02*
X150388396Y-91118445D01*
X153108396Y-89695941D02*
X153108396Y-91118445D01*
%TO.C,C35*%
X140540579Y-94157000D02*
X140259417Y-94157000D01*
X140540579Y-95177000D02*
X140259417Y-95177000D01*
%TO.C,U6*%
X112499986Y-95485000D02*
X112499987Y-91725000D01*
X112499987Y-91725000D02*
X113759986Y-91725000D01*
X119319987Y-91725000D02*
X118059988Y-91725000D01*
X119319988Y-95485000D02*
X119319987Y-91725000D01*
X119549987Y-97005000D02*
X119219987Y-96765000D01*
X119549987Y-96525000D01*
X119549987Y-97005000D01*
G36*
X119549987Y-97005000D02*
G01*
X119219987Y-96765000D01*
X119549987Y-96525000D01*
X119549987Y-97005000D01*
G37*
%TO.C,R30*%
X154762258Y-75127500D02*
X154287742Y-75127500D01*
X154762258Y-76172500D02*
X154287742Y-76172500D01*
%TO.C,R7*%
X165908832Y-100472192D02*
X166362960Y-100472192D01*
X165908832Y-101942192D02*
X166362960Y-101942192D01*
%TO.C,C32*%
X148890001Y-95809418D02*
X148890001Y-96090580D01*
X149910001Y-95809418D02*
X149910001Y-96090580D01*
%TO.C,D4*%
X190077502Y-102265000D02*
X192762501Y-102265000D01*
X190077502Y-104185000D02*
X190077502Y-102265000D01*
X192762501Y-104185000D02*
X190077502Y-104185000D01*
%TO.C,C15*%
X169312143Y-95122191D02*
X169834649Y-95122191D01*
X169312143Y-96592191D02*
X169834649Y-96592191D01*
%TO.C,D2*%
X152627500Y-76365000D02*
X155312499Y-76365000D01*
X152627500Y-78285000D02*
X152627500Y-76365000D01*
X155312499Y-78285000D02*
X152627500Y-78285000D01*
%TO.C,U12*%
X157117500Y-76140000D02*
X157117501Y-76315000D01*
X157117500Y-78860000D02*
X157792500Y-78860000D01*
X157117501Y-78685000D02*
X157117500Y-78860000D01*
X157792500Y-76140000D02*
X157117500Y-76140000D01*
X159662500Y-78860000D02*
X160337500Y-78860000D01*
X160337499Y-76315000D02*
X160337500Y-76140000D01*
X160337500Y-76140000D02*
X159662500Y-76140000D01*
X160337500Y-78860000D02*
X160337499Y-78685000D01*
X156987500Y-78250000D02*
X156657500Y-78490000D01*
X156657500Y-78009999D01*
X156987500Y-78250000D01*
G36*
X156987500Y-78250000D02*
G01*
X156657500Y-78490000D01*
X156657500Y-78009999D01*
X156987500Y-78250000D01*
G37*
%TO.C,C2*%
X188595792Y-99093703D02*
X188595792Y-99616209D01*
X190065792Y-99093703D02*
X190065792Y-99616209D01*
%TO.C,R29*%
X160187742Y-79227500D02*
X160662258Y-79227500D01*
X160187742Y-80272500D02*
X160662258Y-80272500D01*
%TO.C,C19*%
X166409649Y-94547191D02*
X165887143Y-94547191D01*
X166409649Y-96017191D02*
X165887143Y-96017191D01*
%TO.C,R4*%
X188545790Y-94119520D02*
X188545790Y-93665392D01*
X190015790Y-94119520D02*
X190015790Y-93665392D01*
%TO.C,C16*%
X166409651Y-98522191D02*
X165887145Y-98522191D01*
X166409651Y-99992191D02*
X165887145Y-99992191D01*
D14*
%TO.C,L1*%
X156987500Y-90350000D02*
X156987500Y-94850000D01*
X156987500Y-94850000D02*
X161487500Y-94850000D01*
X161487500Y-90350000D02*
X156987500Y-90350000D01*
X161487500Y-94850000D02*
X161487500Y-90350000D01*
D15*
X161862500Y-95700000D02*
G75*
G02*
X161462500Y-95700000I-200000J0D01*
G01*
X161462500Y-95700000D02*
G75*
G02*
X161862500Y-95700000I200000J0D01*
G01*
D13*
%TO.C,R9*%
X162763398Y-96067630D02*
X162763398Y-96521758D01*
X164233398Y-96067630D02*
X164233398Y-96521758D01*
%TD*%
M02*
