%TF.GenerationSoftware,KiCad,Pcbnew,9.0.5*%
%TF.CreationDate,2026-01-21T19:05:33-06:00*%
%TF.ProjectId,Elysium_2026_ACB,456c7973-6975-46d5-9f32-3032365f4143,rev?*%
%TF.SameCoordinates,Original*%
%TF.FileFunction,Paste,Top*%
%TF.FilePolarity,Positive*%
%FSLAX46Y46*%
G04 Gerber Fmt 4.6, Leading zero omitted, Abs format (unit mm)*
G04 Created by KiCad (PCBNEW 9.0.5) date 2026-01-21 19:05:33*
%MOMM*%
%LPD*%
G01*
G04 APERTURE LIST*
G04 Aperture macros list*
%AMRoundRect*
0 Rectangle with rounded corners*
0 $1 Rounding radius*
0 $2 $3 $4 $5 $6 $7 $8 $9 X,Y pos of 4 corners*
0 Add a 4 corners polygon primitive as box body*
4,1,4,$2,$3,$4,$5,$6,$7,$8,$9,$2,$3,0*
0 Add four circle primitives for the rounded corners*
1,1,$1+$1,$2,$3*
1,1,$1+$1,$4,$5*
1,1,$1+$1,$6,$7*
1,1,$1+$1,$8,$9*
0 Add four rect primitives between the rounded corners*
20,1,$1+$1,$2,$3,$4,$5,0*
20,1,$1+$1,$4,$5,$6,$7,0*
20,1,$1+$1,$6,$7,$8,$9,0*
20,1,$1+$1,$8,$9,$2,$3,0*%
G04 Aperture macros list end*
%ADD10R,1.600000X2.100000*%
%ADD11R,1.803400X1.498600*%
%ADD12R,1.498600X1.803400*%
%ADD13RoundRect,0.250000X0.362500X1.425000X-0.362500X1.425000X-0.362500X-1.425000X0.362500X-1.425000X0*%
%ADD14RoundRect,0.225000X0.017678X-0.335876X0.335876X-0.017678X-0.017678X0.335876X-0.335876X0.017678X0*%
%ADD15RoundRect,0.243750X-0.243750X-0.456250X0.243750X-0.456250X0.243750X0.456250X-0.243750X0.456250X0*%
%ADD16RoundRect,0.200000X0.335876X0.053033X0.053033X0.335876X-0.335876X-0.053033X-0.053033X-0.335876X0*%
%ADD17RoundRect,0.200000X-0.335876X-0.053033X-0.053033X-0.335876X0.335876X0.053033X0.053033X0.335876X0*%
%ADD18RoundRect,0.225000X-0.225000X-0.250000X0.225000X-0.250000X0.225000X0.250000X-0.225000X0.250000X0*%
%ADD19RoundRect,0.375000X0.625000X0.375000X-0.625000X0.375000X-0.625000X-0.375000X0.625000X-0.375000X0*%
%ADD20RoundRect,0.500000X0.500000X1.400000X-0.500000X1.400000X-0.500000X-1.400000X0.500000X-1.400000X0*%
%ADD21RoundRect,0.225000X0.250000X-0.225000X0.250000X0.225000X-0.250000X0.225000X-0.250000X-0.225000X0*%
%ADD22RoundRect,0.200000X0.200000X0.275000X-0.200000X0.275000X-0.200000X-0.275000X0.200000X-0.275000X0*%
%ADD23R,0.558800X1.320800*%
%ADD24RoundRect,0.200000X-0.200000X-0.275000X0.200000X-0.275000X0.200000X0.275000X-0.200000X0.275000X0*%
%ADD25RoundRect,0.200000X-0.053033X0.335876X-0.335876X0.053033X0.053033X-0.335876X0.335876X-0.053033X0*%
%ADD26RoundRect,0.200000X-0.275000X0.200000X-0.275000X-0.200000X0.275000X-0.200000X0.275000X0.200000X0*%
%ADD27RoundRect,0.087500X0.026517X0.150260X-0.150260X-0.026517X-0.026517X-0.150260X0.150260X0.026517X0*%
%ADD28RoundRect,0.087500X-0.026517X0.150260X-0.150260X0.026517X0.026517X-0.150260X0.150260X-0.026517X0*%
G04 APERTURE END LIST*
D10*
%TO.C,LS1*%
X123600000Y-101500000D03*
X133600000Y-101500000D03*
X123600000Y-95500000D03*
X133600000Y-95500000D03*
%TD*%
D11*
%TO.C,U11*%
X79649998Y-73700000D03*
X79649998Y-75600001D03*
X79649998Y-77500000D03*
X79649998Y-79399999D03*
X79649998Y-81300000D03*
D12*
X82450000Y-84100002D03*
X84350001Y-84100002D03*
X86250000Y-84100002D03*
X88149999Y-84100002D03*
X90050000Y-84100002D03*
D11*
X92850002Y-81300000D03*
X92850002Y-79399999D03*
X92850002Y-77500000D03*
X92850002Y-75600001D03*
X92850002Y-73700000D03*
D12*
X90050000Y-70899998D03*
X88149999Y-70899998D03*
X86250000Y-70899998D03*
X84350001Y-70899998D03*
X82450000Y-70899998D03*
%TD*%
D13*
%TO.C,R26*%
X123650000Y-91300000D03*
X117725000Y-91300000D03*
%TD*%
D14*
%TO.C,R20*%
X141000000Y-80100000D03*
X142096016Y-79003984D03*
%TD*%
D15*
%TO.C,D5*%
X188250000Y-94704963D03*
X190125002Y-94704963D03*
%TD*%
D16*
%TO.C,R2*%
X153516726Y-85216726D03*
X152350000Y-84050000D03*
%TD*%
D17*
%TO.C,R1*%
X154650000Y-87200000D03*
X155816726Y-88366726D03*
%TD*%
D18*
%TO.C,C44*%
X196749999Y-100754961D03*
X198299999Y-100754961D03*
%TD*%
D19*
%TO.C,U16*%
X194774999Y-103042461D03*
X194774998Y-100742461D03*
D20*
X188475000Y-100742461D03*
D19*
X194774999Y-98442461D03*
%TD*%
D21*
%TO.C,C42*%
X158350000Y-88300000D03*
X158350000Y-86750000D03*
%TD*%
D22*
%TO.C,R17*%
X143475000Y-87225000D03*
X141825000Y-87225000D03*
%TD*%
D18*
%TO.C,C43*%
X196749999Y-98454959D03*
X198299999Y-98454959D03*
%TD*%
D23*
%TO.C,Q2*%
X131549999Y-91291900D03*
X133450001Y-91291900D03*
X132500000Y-89261500D03*
%TD*%
D24*
%TO.C,R19*%
X157300000Y-83850000D03*
X158950000Y-83850000D03*
%TD*%
D22*
%TO.C,R21*%
X190125000Y-96404958D03*
X188475000Y-96404958D03*
%TD*%
D16*
%TO.C,R3*%
X151675000Y-85975000D03*
X150508274Y-84808274D03*
%TD*%
D25*
%TO.C,R31*%
X152900000Y-86950000D03*
X151733274Y-88116726D03*
%TD*%
D26*
%TO.C,R18*%
X141875002Y-89104500D03*
X141875002Y-90754500D03*
%TD*%
D27*
%TO.C,U14*%
X156788445Y-85462607D03*
X156434891Y-85109053D03*
D28*
X155886883Y-84932277D03*
X155533330Y-85285830D03*
X155179777Y-85639383D03*
D27*
X155356553Y-86187391D03*
X155710107Y-86540945D03*
D28*
X156258115Y-86717721D03*
X156611668Y-86364168D03*
X156965221Y-86010615D03*
%TD*%
M02*
