M48
; DRILL file {KiCad 9.0.5} date 2026-01-21T19:06:16-0600
; FORMAT={-:-/ absolute / metric / decimal}
; #@! TF.CreationDate,2026-01-21T19:06:16-06:00
; #@! TF.GenerationSoftware,Kicad,Pcbnew,9.0.5
; #@! TF.FileFunction,Plated,1,4,PTH
FMAT,2
METRIC
; #@! TA.AperFunction,Plated,PTH,ViaDrill
T1C0.300
; #@! TA.AperFunction,Plated,PTH,ComponentDrill
T2C0.300
; #@! TA.AperFunction,Plated,PTH,ComponentDrill
T3C0.813
; #@! TA.AperFunction,Plated,PTH,ComponentDrill
T4C1.000
; #@! TA.AperFunction,Plated,PTH,ComponentDrill
T5C1.020
; #@! TA.AperFunction,Plated,PTH,ComponentDrill
T6C1.194
; #@! TA.AperFunction,Plated,PTH,ComponentDrill
T7C1.200
; #@! TA.AperFunction,Plated,PTH,ComponentDrill
T8C3.200
%
G90
G05
T1
X81.35Y-75.6
X81.35Y-77.5
X94.6Y-77.475
X95.54Y-75.615
X112.25Y-101.75
X112.25Y-102.65
X141.075Y-88.55
X142.475Y-85.729
X144.15Y-81.855
X144.775Y-82.4
X145.3Y-83.075
X145.725Y-85.475
X146.7Y-85.575
X150.825Y-86.85
X152.024Y-94.725
X152.45Y-64.75
X152.736Y-85.833
X152.85Y-69.8
X156.05Y-86.0
X157.033Y-76.218
X157.75Y-84.8
X159.099Y-75.85
X159.227Y-77.285
X159.95Y-76.05
X160.55Y-77.45
X168.823Y-94.482
X170.3Y-66.325
X170.723Y-100.582
X171.7Y-96.75
X180.623Y-92.75
X182.031Y-89.381
X182.45Y-83.4
X182.998Y-95.73
X183.15Y-68.675
X183.2Y-70.525
X183.2Y-71.7
X184.275Y-76.475
X185.1Y-65.5
X185.3Y-62.15
X185.4Y-72.599
X186.25Y-62.15
X187.1Y-62.15
X196.75Y-97.075
X198.706Y-96.98
X200.525Y-97.65
T2
X166.423Y-92.032
X167.198Y-91.257
X167.198Y-92.807
X167.973Y-92.032
X184.681Y-98.005
X185.456Y-97.23
X185.456Y-98.78
X186.231Y-98.005
T3
X141.768Y-97.504
X143.768Y-97.504
X145.768Y-97.504
X147.768Y-97.504
X171.663Y-53.671
X173.663Y-53.671
X178.513Y-53.671
X180.513Y-53.671
T4
X115.92Y-74.99
X115.92Y-77.53
X115.92Y-80.07
X115.92Y-82.61
X115.92Y-85.15
X115.92Y-87.69
X115.95Y-67.36
X115.95Y-69.9
X135.9Y-67.4
X135.9Y-69.94
X135.94Y-75.02
X135.94Y-77.56
X135.94Y-80.1
X135.94Y-82.64
X135.94Y-85.18
X135.94Y-87.72
X157.307Y-96.554
X160.843Y-100.089
T5
X147.46Y-58.7
X147.46Y-81.56
X150.0Y-58.7
X150.0Y-81.56
X152.54Y-58.7
X152.54Y-81.56
X155.08Y-58.7
X155.08Y-81.56
X157.62Y-58.7
X157.62Y-81.56
X160.16Y-58.7
X160.16Y-81.56
X162.7Y-58.7
X162.7Y-81.56
X165.24Y-58.7
X165.24Y-81.56
X167.78Y-58.7
X167.78Y-81.56
X170.32Y-58.7
X170.32Y-81.56
X172.86Y-58.7
X172.86Y-81.56
X175.4Y-58.7
X175.4Y-81.56
X177.94Y-58.7
X177.94Y-81.56
X180.48Y-58.7
X180.48Y-81.56
X183.02Y-58.7
X183.02Y-81.56
X185.56Y-58.7
X185.56Y-81.56
X188.1Y-58.7
X188.1Y-81.56
X190.64Y-58.7
X190.64Y-81.56
X193.18Y-58.7
X193.18Y-81.56
X195.72Y-58.7
X195.72Y-81.56
X198.26Y-58.7
X198.26Y-81.56
X200.8Y-58.7
X200.8Y-81.56
T6
X175.163Y-51.971
X182.013Y-51.971
T7
X173.757Y-96.56
X173.757Y-100.06
X173.8Y-87.05
X173.8Y-90.55
X178.757Y-96.56
X178.757Y-100.06
X178.8Y-87.05
X178.8Y-90.55
T8
X64.0Y-53.5
X64.0Y-101.5
X199.0Y-53.5
X199.0Y-92.0
M30
