%TF.GenerationSoftware,KiCad,Pcbnew,9.0.5*%
%TF.CreationDate,2026-01-21T19:05:34-06:00*%
%TF.ProjectId,Elysium_2026_ACB,456c7973-6975-46d5-9f32-3032365f4143,rev?*%
%TF.SameCoordinates,Original*%
%TF.FileFunction,Soldermask,Top*%
%TF.FilePolarity,Negative*%
%FSLAX46Y46*%
G04 Gerber Fmt 4.6, Leading zero omitted, Abs format (unit mm)*
G04 Created by KiCad (PCBNEW 9.0.5) date 2026-01-21 19:05:34*
%MOMM*%
%LPD*%
G01*
G04 APERTURE LIST*
G04 Aperture macros list*
%AMRoundRect*
0 Rectangle with rounded corners*
0 $1 Rounding radius*
0 $2 $3 $4 $5 $6 $7 $8 $9 X,Y pos of 4 corners*
0 Add a 4 corners polygon primitive as box body*
4,1,4,$2,$3,$4,$5,$6,$7,$8,$9,$2,$3,0*
0 Add four circle primitives for the rounded corners*
1,1,$1+$1,$2,$3*
1,1,$1+$1,$4,$5*
1,1,$1+$1,$6,$7*
1,1,$1+$1,$8,$9*
0 Add four rect primitives between the rounded corners*
20,1,$1+$1,$2,$3,$4,$5,0*
20,1,$1+$1,$4,$5,$6,$7,0*
20,1,$1+$1,$6,$7,$8,$9,0*
20,1,$1+$1,$8,$9,$2,$3,0*%
G04 Aperture macros list end*
%ADD10C,3.600000*%
%ADD11C,5.600000*%
%ADD12RoundRect,0.102000X0.800000X-1.050000X0.800000X1.050000X-0.800000X1.050000X-0.800000X-1.050000X0*%
%ADD13R,1.803400X1.498600*%
%ADD14R,1.498600X1.803400*%
%ADD15RoundRect,0.250000X0.362500X1.425000X-0.362500X1.425000X-0.362500X-1.425000X0.362500X-1.425000X0*%
%ADD16O,1.700000X1.700000*%
%ADD17R,1.700000X1.700000*%
%ADD18RoundRect,0.225000X0.017678X-0.335876X0.335876X-0.017678X-0.017678X0.335876X-0.335876X0.017678X0*%
%ADD19RoundRect,0.250000X-1.060660X0.000000X0.000000X-1.060660X1.060660X0.000000X0.000000X1.060660X0*%
%ADD20C,2.000000*%
%ADD21RoundRect,0.243750X-0.243750X-0.456250X0.243750X-0.456250X0.243750X0.456250X-0.243750X0.456250X0*%
%ADD22RoundRect,0.200000X0.335876X0.053033X0.053033X0.335876X-0.335876X-0.053033X-0.053033X-0.335876X0*%
%ADD23RoundRect,0.200000X-0.335876X-0.053033X-0.053033X-0.335876X0.335876X0.053033X0.053033X0.335876X0*%
%ADD24RoundRect,0.225000X-0.225000X-0.250000X0.225000X-0.250000X0.225000X0.250000X-0.225000X0.250000X0*%
%ADD25RoundRect,0.375000X0.625000X0.375000X-0.625000X0.375000X-0.625000X-0.375000X0.625000X-0.375000X0*%
%ADD26RoundRect,0.500000X0.500000X1.400000X-0.500000X1.400000X-0.500000X-1.400000X0.500000X-1.400000X0*%
%ADD27RoundRect,0.225000X0.250000X-0.225000X0.250000X0.225000X-0.250000X0.225000X-0.250000X-0.225000X0*%
%ADD28RoundRect,0.200000X0.200000X0.275000X-0.200000X0.275000X-0.200000X-0.275000X0.200000X-0.275000X0*%
%ADD29R,2.300000X1.500000*%
%ADD30RoundRect,0.250001X-0.899999X0.499999X-0.899999X-0.499999X0.899999X-0.499999X0.899999X0.499999X0*%
%ADD31O,2.300000X1.500000*%
%ADD32R,0.558800X1.320800*%
%ADD33RoundRect,0.200000X-0.200000X-0.275000X0.200000X-0.275000X0.200000X0.275000X-0.200000X0.275000X0*%
%ADD34RoundRect,0.102000X0.765000X-0.765000X0.765000X0.765000X-0.765000X0.765000X-0.765000X-0.765000X0*%
%ADD35C,1.734000*%
%ADD36C,1.320800*%
%ADD37C,1.701800*%
%ADD38RoundRect,0.200000X-0.053033X0.335876X-0.335876X0.053033X0.053033X-0.335876X0.335876X-0.053033X0*%
%ADD39RoundRect,0.200000X-0.275000X0.200000X-0.275000X-0.200000X0.275000X-0.200000X0.275000X0.200000X0*%
%ADD40RoundRect,0.087500X0.026517X0.150260X-0.150260X-0.026517X-0.026517X-0.150260X0.150260X0.026517X0*%
%ADD41RoundRect,0.087500X-0.026517X0.150260X-0.150260X0.026517X0.026517X-0.150260X0.150260X-0.026517X0*%
%ADD42C,0.500000*%
%ADD43C,1.000000*%
G04 APERTURE END LIST*
D10*
%TO.C,REF\u002A\u002A*%
X64000000Y-53500000D03*
D11*
X64000000Y-53500000D03*
%TD*%
D12*
%TO.C,LS1*%
X123600000Y-101500000D03*
X133600000Y-101500000D03*
X123600000Y-95500000D03*
X133600000Y-95500000D03*
%TD*%
D10*
%TO.C,REF\u002A\u002A*%
X64000000Y-101500000D03*
D11*
X64000000Y-101500000D03*
%TD*%
D13*
%TO.C,U11*%
X79649998Y-73700000D03*
X79649998Y-75600001D03*
X79649998Y-77500000D03*
X79649998Y-79399999D03*
X79649998Y-81300000D03*
D14*
X82450000Y-84100002D03*
X84350001Y-84100002D03*
X86250000Y-84100002D03*
X88149999Y-84100002D03*
X90050000Y-84100002D03*
D13*
X92850002Y-81300000D03*
X92850002Y-79399999D03*
X92850002Y-77500000D03*
X92850002Y-75600001D03*
X92850002Y-73700000D03*
D14*
X90050000Y-70899998D03*
X88149999Y-70899998D03*
X86250000Y-70899998D03*
X84350001Y-70899998D03*
X82450000Y-70899998D03*
%TD*%
D15*
%TO.C,R26*%
X123650000Y-91300000D03*
X117725000Y-91300000D03*
%TD*%
D16*
%TO.C,U13*%
X115950000Y-67360000D03*
D17*
X115950000Y-69900000D03*
X115920000Y-74990000D03*
D16*
X115920000Y-77530000D03*
X115920000Y-80070000D03*
X115920000Y-82610000D03*
X115920000Y-85150000D03*
X115920000Y-87690000D03*
X135900000Y-67400000D03*
D17*
X135900000Y-69940000D03*
X135940000Y-75020000D03*
D16*
X135940000Y-77560000D03*
X135940000Y-80100000D03*
X135940000Y-82640000D03*
X135940000Y-85180000D03*
X135940000Y-87720000D03*
%TD*%
D18*
%TO.C,R20*%
X141000000Y-80100000D03*
X142096016Y-79003984D03*
%TD*%
D19*
%TO.C,C33*%
X157307233Y-96553546D03*
D20*
X160842767Y-100089080D03*
%TD*%
D21*
%TO.C,D5*%
X188250000Y-94704963D03*
X190125002Y-94704963D03*
%TD*%
D22*
%TO.C,R2*%
X153516726Y-85216726D03*
X152350000Y-84050000D03*
%TD*%
D23*
%TO.C,R1*%
X154650000Y-87200000D03*
X155816726Y-88366726D03*
%TD*%
D24*
%TO.C,C44*%
X196749999Y-100754961D03*
X198299999Y-100754961D03*
%TD*%
D10*
%TO.C,REF\u002A\u002A*%
X199000000Y-92000000D03*
D11*
X199000000Y-92000000D03*
%TD*%
D25*
%TO.C,U16*%
X194774999Y-103042461D03*
X194774998Y-100742461D03*
D26*
X188475000Y-100742461D03*
D25*
X194774999Y-98442461D03*
%TD*%
D27*
%TO.C,C42*%
X158350000Y-88300000D03*
X158350000Y-86750000D03*
%TD*%
D28*
%TO.C,R17*%
X143475000Y-87225000D03*
X141825000Y-87225000D03*
%TD*%
D29*
%TO.C,J2*%
X178757500Y-96560000D03*
D30*
X173757500Y-96560000D03*
D31*
X178757500Y-100060000D03*
X173757500Y-100060000D03*
%TD*%
D24*
%TO.C,C43*%
X196749999Y-98454959D03*
X198299999Y-98454959D03*
%TD*%
D32*
%TO.C,Q2*%
X131549999Y-91291900D03*
X133450001Y-91291900D03*
X132500000Y-89261500D03*
%TD*%
D33*
%TO.C,R19*%
X157300000Y-83850000D03*
X158950000Y-83850000D03*
%TD*%
D29*
%TO.C,BT1*%
X178800000Y-87050000D03*
D30*
X173800000Y-87050000D03*
D31*
X178800000Y-90550000D03*
X173800000Y-90550000D03*
%TD*%
D34*
%TO.C,U15*%
X147460000Y-81560000D03*
D35*
X150000000Y-81560001D03*
X152540000Y-81560000D03*
X155080000Y-81560000D03*
X157620000Y-81560000D03*
X160159999Y-81560000D03*
X162700001Y-81560000D03*
X165240000Y-81560000D03*
X167780000Y-81560000D03*
X170320000Y-81560000D03*
X172860001Y-81560000D03*
X175400000Y-81560000D03*
X177940000Y-81560000D03*
X180480000Y-81560000D03*
X183019999Y-81560000D03*
X185560001Y-81560000D03*
X188100000Y-81560000D03*
X190640000Y-81560000D03*
X193180000Y-81560000D03*
X195720001Y-81560000D03*
X198260000Y-81560000D03*
X200800000Y-81560000D03*
X147460000Y-58700000D03*
X150000000Y-58699999D03*
X152540000Y-58700000D03*
X155080000Y-58700000D03*
X157620000Y-58700000D03*
X160159999Y-58700000D03*
X162700001Y-58700000D03*
X165240000Y-58700000D03*
X167780000Y-58700000D03*
X170320000Y-58700000D03*
X172860001Y-58700000D03*
X175400000Y-58700000D03*
X177940000Y-58700000D03*
X180480000Y-58700000D03*
X183019999Y-58700000D03*
X185560001Y-58700000D03*
X188100000Y-58700000D03*
X190640000Y-58700000D03*
X193180000Y-58700000D03*
X195720001Y-58700000D03*
X198260000Y-58700000D03*
X200800000Y-58700000D03*
%TD*%
D36*
%TO.C,J3*%
X180512750Y-53671150D03*
X178512749Y-53671150D03*
D37*
X182012750Y-51971150D03*
%TD*%
D28*
%TO.C,R21*%
X190125000Y-96404958D03*
X188475000Y-96404958D03*
%TD*%
D22*
%TO.C,R3*%
X151675000Y-85975000D03*
X150508274Y-84808274D03*
%TD*%
D36*
%TO.C,J1*%
X147768099Y-97504299D03*
X145768100Y-97504299D03*
X143768099Y-97504299D03*
X141768101Y-97504299D03*
%TD*%
D10*
%TO.C,REF\u002A\u002A*%
X199000000Y-53500000D03*
D11*
X199000000Y-53500000D03*
%TD*%
D36*
%TO.C,J4*%
X173662750Y-53671150D03*
X171662749Y-53671150D03*
D37*
X175162750Y-51971150D03*
%TD*%
D38*
%TO.C,R31*%
X152900000Y-86950000D03*
X151733274Y-88116726D03*
%TD*%
D39*
%TO.C,R18*%
X141875002Y-89104500D03*
X141875002Y-90754500D03*
%TD*%
D40*
%TO.C,U14*%
X156788445Y-85462607D03*
X156434891Y-85109053D03*
D41*
X155886883Y-84932277D03*
X155533330Y-85285830D03*
X155179777Y-85639383D03*
D40*
X155356553Y-86187391D03*
X155710107Y-86540945D03*
D41*
X156258115Y-86717721D03*
X156611668Y-86364168D03*
X156965221Y-86010615D03*
%TD*%
D42*
%TO.C,U2*%
X167973314Y-92032111D03*
X167198314Y-92807111D03*
X167198314Y-91257111D03*
X166423314Y-92032111D03*
%TD*%
%TO.C,U1*%
X184680789Y-98004959D03*
X185455789Y-97229959D03*
X185455789Y-98779959D03*
X186230789Y-98004959D03*
%TD*%
D43*
%TO.C,J8*%
X198337500Y-65699999D03*
X198337500Y-73700000D03*
%TD*%
M02*
