%TF.GenerationSoftware,KiCad,Pcbnew,9.0.5*%
%TF.CreationDate,2026-01-21T19:05:34-06:00*%
%TF.ProjectId,Elysium_2026_ACB,456c7973-6975-46d5-9f32-3032365f4143,rev?*%
%TF.SameCoordinates,Original*%
%TF.FileFunction,Soldermask,Bot*%
%TF.FilePolarity,Negative*%
%FSLAX46Y46*%
G04 Gerber Fmt 4.6, Leading zero omitted, Abs format (unit mm)*
G04 Created by KiCad (PCBNEW 9.0.5) date 2026-01-21 19:05:34*
%MOMM*%
%LPD*%
G01*
G04 APERTURE LIST*
G04 Aperture macros list*
%AMRoundRect*
0 Rectangle with rounded corners*
0 $1 Rounding radius*
0 $2 $3 $4 $5 $6 $7 $8 $9 X,Y pos of 4 corners*
0 Add a 4 corners polygon primitive as box body*
4,1,4,$2,$3,$4,$5,$6,$7,$8,$9,$2,$3,0*
0 Add four circle primitives for the rounded corners*
1,1,$1+$1,$2,$3*
1,1,$1+$1,$4,$5*
1,1,$1+$1,$6,$7*
1,1,$1+$1,$8,$9*
0 Add four rect primitives between the rounded corners*
20,1,$1+$1,$2,$3,$4,$5,0*
20,1,$1+$1,$4,$5,$6,$7,0*
20,1,$1+$1,$6,$7,$8,$9,0*
20,1,$1+$1,$8,$9,$2,$3,0*%
G04 Aperture macros list end*
%ADD10C,3.600000*%
%ADD11C,5.600000*%
%ADD12O,1.700000X1.700000*%
%ADD13R,1.700000X1.700000*%
%ADD14RoundRect,0.250000X-1.060660X0.000000X0.000000X-1.060660X1.060660X0.000000X0.000000X1.060660X0*%
%ADD15C,2.000000*%
%ADD16R,2.300000X1.500000*%
%ADD17RoundRect,0.250001X-0.899999X0.499999X-0.899999X-0.499999X0.899999X-0.499999X0.899999X0.499999X0*%
%ADD18O,2.300000X1.500000*%
%ADD19RoundRect,0.102000X0.765000X-0.765000X0.765000X0.765000X-0.765000X0.765000X-0.765000X-0.765000X0*%
%ADD20C,1.734000*%
%ADD21C,1.320800*%
%ADD22C,1.701800*%
%ADD23R,0.900000X0.900000*%
%ADD24RoundRect,0.250000X0.250000X0.475000X-0.250000X0.475000X-0.250000X-0.475000X0.250000X-0.475000X0*%
%ADD25RoundRect,0.250000X-1.100000X0.325000X-1.100000X-0.325000X1.100000X-0.325000X1.100000X0.325000X0*%
%ADD26RoundRect,0.225000X0.225000X0.250000X-0.225000X0.250000X-0.225000X-0.250000X0.225000X-0.250000X0*%
%ADD27RoundRect,0.250000X0.450000X-0.262500X0.450000X0.262500X-0.450000X0.262500X-0.450000X-0.262500X0*%
%ADD28RoundRect,0.250000X-0.450000X0.262500X-0.450000X-0.262500X0.450000X-0.262500X0.450000X0.262500X0*%
%ADD29RoundRect,0.243750X-0.243750X-0.456250X0.243750X-0.456250X0.243750X0.456250X-0.243750X0.456250X0*%
%ADD30RoundRect,0.102000X-0.600000X1.900000X-0.600000X-1.900000X0.600000X-1.900000X0.600000X1.900000X0*%
%ADD31RoundRect,0.225000X0.250000X-0.225000X0.250000X0.225000X-0.250000X0.225000X-0.250000X-0.225000X0*%
%ADD32RoundRect,0.200000X0.275000X-0.200000X0.275000X0.200000X-0.275000X0.200000X-0.275000X-0.200000X0*%
%ADD33RoundRect,0.200000X0.200000X0.275000X-0.200000X0.275000X-0.200000X-0.275000X0.200000X-0.275000X0*%
%ADD34RoundRect,0.250000X-0.250000X-0.475000X0.250000X-0.475000X0.250000X0.475000X-0.250000X0.475000X0*%
%ADD35RoundRect,0.250000X0.262500X0.450000X-0.262500X0.450000X-0.262500X-0.450000X0.262500X-0.450000X0*%
%ADD36O,0.240000X0.599999*%
%ADD37O,0.599999X0.240000*%
%ADD38C,0.500000*%
%ADD39R,2.050001X2.050001*%
%ADD40RoundRect,0.250000X1.100000X-0.325000X1.100000X0.325000X-1.100000X0.325000X-1.100000X-0.325000X0*%
%ADD41R,0.355600X1.473200*%
%ADD42R,4.038600X3.098800*%
%ADD43RoundRect,0.225000X-0.250000X0.225000X-0.250000X-0.225000X0.250000X-0.225000X0.250000X0.225000X0*%
%ADD44RoundRect,0.250000X-0.650000X0.325000X-0.650000X-0.325000X0.650000X-0.325000X0.650000X0.325000X0*%
%ADD45RoundRect,0.243750X-0.456250X0.243750X-0.456250X-0.243750X0.456250X-0.243750X0.456250X0.243750X0*%
%ADD46RoundRect,0.250000X0.475000X-0.250000X0.475000X0.250000X-0.475000X0.250000X-0.475000X-0.250000X0*%
%ADD47RoundRect,0.250000X-0.262500X-0.450000X0.262500X-0.450000X0.262500X0.450000X-0.262500X0.450000X0*%
%ADD48RoundRect,0.250000X0.650000X-0.325000X0.650000X0.325000X-0.650000X0.325000X-0.650000X-0.325000X0*%
%ADD49RoundRect,0.375000X-0.375000X0.625000X-0.375000X-0.625000X0.375000X-0.625000X0.375000X0.625000X0*%
%ADD50RoundRect,0.500000X-1.400000X0.500000X-1.400000X-0.500000X1.400000X-0.500000X1.400000X0.500000X0*%
%ADD51C,1.000000*%
%ADD52RoundRect,0.102000X-0.800000X0.350000X-0.800000X-0.350000X0.800000X-0.350000X0.800000X0.350000X0*%
%ADD53RoundRect,0.102000X-0.900000X0.600000X-0.900000X-0.600000X0.900000X-0.600000X0.900000X0.600000X0*%
%ADD54RoundRect,0.102000X-0.750000X0.800000X-0.750000X-0.800000X0.750000X-0.800000X0.750000X0.800000X0*%
%ADD55RoundRect,0.102000X-1.100000X0.600000X-1.100000X-0.600000X1.100000X-0.600000X1.100000X0.600000X0*%
%ADD56RoundRect,0.225000X0.335876X0.017678X0.017678X0.335876X-0.335876X-0.017678X-0.017678X-0.335876X0*%
%ADD57RoundRect,0.375000X0.375000X-0.625000X0.375000X0.625000X-0.375000X0.625000X-0.375000X-0.625000X0*%
%ADD58RoundRect,0.500000X1.400000X-0.500000X1.400000X0.500000X-1.400000X0.500000X-1.400000X-0.500000X0*%
%ADD59RoundRect,0.087500X-0.225000X-0.087500X0.225000X-0.087500X0.225000X0.087500X-0.225000X0.087500X0*%
%ADD60RoundRect,0.087500X-0.087500X-0.225000X0.087500X-0.225000X0.087500X0.225000X-0.087500X0.225000X0*%
%ADD61RoundRect,0.250000X-0.475000X0.250000X-0.475000X-0.250000X0.475000X-0.250000X0.475000X0.250000X0*%
%ADD62RoundRect,0.200000X-0.200000X-0.275000X0.200000X-0.275000X0.200000X0.275000X-0.200000X0.275000X0*%
%ADD63RoundRect,0.102000X0.600000X-1.900000X0.600000X1.900000X-0.600000X1.900000X-0.600000X-1.900000X0*%
G04 APERTURE END LIST*
D10*
%TO.C,REF\u002A\u002A*%
X64000000Y-53500000D03*
D11*
X64000000Y-53500000D03*
%TD*%
D10*
%TO.C,REF\u002A\u002A*%
X64000000Y-101500000D03*
D11*
X64000000Y-101500000D03*
%TD*%
D12*
%TO.C,U13*%
X115950000Y-67360000D03*
D13*
X115950000Y-69900000D03*
X115920000Y-74990000D03*
D12*
X115920000Y-77530000D03*
X115920000Y-80070000D03*
X115920000Y-82610000D03*
X115920000Y-85150000D03*
X115920000Y-87690000D03*
X135900000Y-67400000D03*
D13*
X135900000Y-69940000D03*
X135940000Y-75020000D03*
D12*
X135940000Y-77560000D03*
X135940000Y-80100000D03*
X135940000Y-82640000D03*
X135940000Y-85180000D03*
X135940000Y-87720000D03*
%TD*%
D14*
%TO.C,C33*%
X157307233Y-96553546D03*
D15*
X160842767Y-100089080D03*
%TD*%
D10*
%TO.C,REF\u002A\u002A*%
X199000000Y-92000000D03*
D11*
X199000000Y-92000000D03*
%TD*%
D16*
%TO.C,J2*%
X178757500Y-96560000D03*
D17*
X173757500Y-96560000D03*
D18*
X178757500Y-100060000D03*
X173757500Y-100060000D03*
%TD*%
D16*
%TO.C,BT1*%
X178800000Y-87050000D03*
D17*
X173800000Y-87050000D03*
D18*
X178800000Y-90550000D03*
X173800000Y-90550000D03*
%TD*%
D19*
%TO.C,U15*%
X147460000Y-81560000D03*
D20*
X150000000Y-81560001D03*
X152540000Y-81560000D03*
X155080000Y-81560000D03*
X157620000Y-81560000D03*
X160159999Y-81560000D03*
X162700001Y-81560000D03*
X165240000Y-81560000D03*
X167780000Y-81560000D03*
X170320000Y-81560000D03*
X172860001Y-81560000D03*
X175400000Y-81560000D03*
X177940000Y-81560000D03*
X180480000Y-81560000D03*
X183019999Y-81560000D03*
X185560001Y-81560000D03*
X188100000Y-81560000D03*
X190640000Y-81560000D03*
X193180000Y-81560000D03*
X195720001Y-81560000D03*
X198260000Y-81560000D03*
X200800000Y-81560000D03*
X147460000Y-58700000D03*
X150000000Y-58699999D03*
X152540000Y-58700000D03*
X155080000Y-58700000D03*
X157620000Y-58700000D03*
X160159999Y-58700000D03*
X162700001Y-58700000D03*
X165240000Y-58700000D03*
X167780000Y-58700000D03*
X170320000Y-58700000D03*
X172860001Y-58700000D03*
X175400000Y-58700000D03*
X177940000Y-58700000D03*
X180480000Y-58700000D03*
X183019999Y-58700000D03*
X185560001Y-58700000D03*
X188100000Y-58700000D03*
X190640000Y-58700000D03*
X193180000Y-58700000D03*
X195720001Y-58700000D03*
X198260000Y-58700000D03*
X200800000Y-58700000D03*
%TD*%
D21*
%TO.C,J3*%
X180512750Y-53671150D03*
X178512749Y-53671150D03*
D22*
X182012750Y-51971150D03*
%TD*%
D21*
%TO.C,J1*%
X147768099Y-97504299D03*
X145768100Y-97504299D03*
X143768099Y-97504299D03*
X141768101Y-97504299D03*
%TD*%
D10*
%TO.C,REF\u002A\u002A*%
X199000000Y-53500000D03*
D11*
X199000000Y-53500000D03*
%TD*%
D21*
%TO.C,J4*%
X173662750Y-53671150D03*
X171662749Y-53671150D03*
D22*
X175162750Y-51971150D03*
%TD*%
D23*
%TO.C,RN1*%
X181100000Y-71700000D03*
X181100000Y-70360000D03*
X181100000Y-69040000D03*
X181100000Y-67700000D03*
X184100000Y-67700000D03*
X184100000Y-69040000D03*
X184100000Y-70360000D03*
X184100000Y-71700000D03*
%TD*%
D24*
%TO.C,C10*%
X184080793Y-94304958D03*
X182180795Y-94304958D03*
%TD*%
D25*
%TO.C,C21*%
X154998396Y-88932192D03*
X154998396Y-91882194D03*
%TD*%
D26*
%TO.C,C1*%
X141175000Y-96141998D03*
X139625000Y-96141998D03*
%TD*%
D27*
%TO.C,R5*%
X183930790Y-92529960D03*
X183930790Y-90704960D03*
%TD*%
D28*
%TO.C,R10*%
X168823396Y-97632194D03*
X168823396Y-99457194D03*
%TD*%
%TO.C,R24*%
X189230791Y-87029958D03*
X189230791Y-88854958D03*
%TD*%
D23*
%TO.C,RN2*%
X181100000Y-65960000D03*
X181100000Y-64620000D03*
X181100000Y-63300000D03*
X181100000Y-61960000D03*
X184100000Y-61960000D03*
X184100000Y-63300000D03*
X184100000Y-64620000D03*
X184100000Y-65960000D03*
%TD*%
D29*
%TO.C,D1*%
X120275000Y-92975000D03*
X122150002Y-92975000D03*
%TD*%
D26*
%TO.C,C87*%
X181100000Y-73300000D03*
X179550000Y-73300000D03*
%TD*%
D30*
%TO.C,L3*%
X191718292Y-98404959D03*
X194168292Y-98404959D03*
%TD*%
D31*
%TO.C,C38*%
X139274999Y-86667000D03*
X139274999Y-85117000D03*
%TD*%
D32*
%TO.C,R12*%
X157639340Y-103798226D03*
X157639340Y-102148226D03*
%TD*%
D33*
%TO.C,R14*%
X121850000Y-94650000D03*
X120200000Y-94650000D03*
%TD*%
D34*
%TO.C,C8*%
X185631665Y-90867419D03*
X187531663Y-90867419D03*
%TD*%
D35*
%TO.C,R8*%
X169048396Y-88982194D03*
X167223396Y-88982194D03*
%TD*%
D33*
%TO.C,R15*%
X154925000Y-79000000D03*
X153275000Y-79000000D03*
%TD*%
D36*
%TO.C,U2*%
X167948396Y-90382112D03*
D37*
X168848313Y-91032192D03*
X168848313Y-91532191D03*
X168848313Y-92032192D03*
X168848313Y-92532191D03*
X168848313Y-93032193D03*
D36*
X167948396Y-93682110D03*
X166448394Y-93682110D03*
D37*
X165548315Y-93032193D03*
X165548315Y-92532191D03*
X165548315Y-92032192D03*
X165548315Y-91532191D03*
X165548315Y-91032192D03*
D36*
X166448394Y-90382112D03*
D38*
X167973314Y-92032111D03*
D39*
X167198395Y-92032192D03*
D38*
X167198314Y-92807111D03*
X167198314Y-91257111D03*
X166423314Y-92032111D03*
%TD*%
D34*
%TO.C,C6*%
X185618332Y-94867417D03*
X187518330Y-94867417D03*
%TD*%
D40*
%TO.C,C9*%
X197130631Y-102760037D03*
X197130631Y-99810035D03*
%TD*%
D31*
%TO.C,C14*%
X149000000Y-70750000D03*
X149000000Y-69200000D03*
%TD*%
D41*
%TO.C,U10*%
X148975000Y-92867000D03*
X148324999Y-92867000D03*
X147675000Y-92867000D03*
X147024999Y-92867000D03*
X146375001Y-92867000D03*
X145724998Y-92867000D03*
X145075001Y-92866999D03*
X144425002Y-92867000D03*
X143775002Y-92867000D03*
X143125002Y-92867000D03*
X142475001Y-92867000D03*
X141825002Y-92867000D03*
X141175001Y-92867000D03*
X140525002Y-92867000D03*
X140525000Y-87025000D03*
X141175001Y-87025000D03*
X141825000Y-87025000D03*
X142475001Y-87025000D03*
X143124999Y-87025000D03*
X143775002Y-87025000D03*
X144424999Y-87025001D03*
X145075001Y-87025001D03*
X145724998Y-87025000D03*
X146375001Y-87025000D03*
X147024999Y-87025000D03*
X147675000Y-87025000D03*
X148324999Y-87025000D03*
X148975000Y-87025000D03*
D42*
X144750000Y-89946000D03*
%TD*%
D26*
%TO.C,C37*%
X149875000Y-85242000D03*
X148325000Y-85242000D03*
%TD*%
D43*
%TO.C,C40*%
X157900000Y-73750000D03*
X157900000Y-75300000D03*
%TD*%
D32*
%TO.C,R16*%
X140949999Y-85341997D03*
X140949999Y-83691997D03*
%TD*%
D43*
%TO.C,C34*%
X150900000Y-95175000D03*
X150900000Y-96725000D03*
%TD*%
D31*
%TO.C,C39*%
X143150004Y-84279500D03*
X143150004Y-82729500D03*
%TD*%
D40*
%TO.C,C7*%
X200330793Y-102754955D03*
X200330793Y-99804953D03*
%TD*%
D44*
%TO.C,C12*%
X171023398Y-90557190D03*
X171023398Y-93507192D03*
%TD*%
D24*
%TO.C,C18*%
X167098396Y-97282193D03*
X165198398Y-97282193D03*
%TD*%
D36*
%TO.C,U1*%
X184705707Y-99654958D03*
D37*
X183805790Y-99004878D03*
X183805790Y-98504879D03*
X183805790Y-98004878D03*
X183805790Y-97504879D03*
X183805790Y-97004877D03*
D36*
X184705707Y-96354960D03*
X186205709Y-96354960D03*
D37*
X187105788Y-97004877D03*
X187105788Y-97504879D03*
X187105788Y-98004878D03*
X187105788Y-98504879D03*
X187105788Y-99004878D03*
D36*
X186205709Y-99654958D03*
D38*
X184680789Y-98004959D03*
D39*
X185455708Y-98004878D03*
D38*
X185455789Y-97229959D03*
X185455789Y-98779959D03*
X186230789Y-98004959D03*
%TD*%
D34*
%TO.C,C3*%
X185625000Y-92867420D03*
X187524998Y-92867420D03*
%TD*%
D32*
%TO.C,R13*%
X194200000Y-103225000D03*
X194200000Y-101575000D03*
%TD*%
D45*
%TO.C,D3*%
X159588853Y-101911228D03*
X159588853Y-103786230D03*
%TD*%
D31*
%TO.C,C13*%
X151300000Y-70750000D03*
X151300000Y-69200000D03*
%TD*%
D46*
%TO.C,C17*%
X162998397Y-91782191D03*
X162998397Y-89882193D03*
%TD*%
D31*
%TO.C,C41*%
X161200000Y-76350000D03*
X161200000Y-74800000D03*
%TD*%
D26*
%TO.C,C36*%
X152100000Y-93700000D03*
X150550000Y-93700000D03*
%TD*%
D47*
%TO.C,R23*%
X183630791Y-101254958D03*
X185455791Y-101254958D03*
%TD*%
D48*
%TO.C,C11*%
X181648395Y-99432196D03*
X181648395Y-96482194D03*
%TD*%
D49*
%TO.C,U7*%
X146700000Y-72700001D03*
X149000000Y-72700002D03*
D50*
X149000000Y-79000000D03*
D49*
X151300000Y-72700001D03*
%TD*%
D35*
%TO.C,R25*%
X187480831Y-88867418D03*
X185655831Y-88867418D03*
%TD*%
D43*
%TO.C,C5*%
X115909987Y-98785000D03*
X115909987Y-100335000D03*
%TD*%
D51*
%TO.C,J8*%
X198337500Y-65699999D03*
X198337500Y-73700000D03*
D52*
X187337500Y-72900000D03*
X187337500Y-71800000D03*
X187337500Y-70700000D03*
X187337500Y-69599999D03*
X187337500Y-68500000D03*
X187337499Y-67400000D03*
X187337500Y-66300000D03*
X187337499Y-65200000D03*
X187337500Y-64100000D03*
D53*
X188637500Y-62900000D03*
D54*
X188387500Y-77500000D03*
D55*
X197937500Y-62900000D03*
X197937500Y-78400000D03*
%TD*%
D56*
%TO.C,R27*%
X176450000Y-56900000D03*
X175353984Y-55803984D03*
%TD*%
D28*
%TO.C,R11*%
X170723399Y-97632192D03*
X170723399Y-99457192D03*
%TD*%
D43*
%TO.C,C4*%
X113609987Y-98785000D03*
X113609987Y-100335000D03*
%TD*%
D27*
%TO.C,R22*%
X182030791Y-92504959D03*
X182030791Y-90679959D03*
%TD*%
D31*
%TO.C,R28*%
X180500000Y-56750000D03*
X180500000Y-55200000D03*
%TD*%
D27*
%TO.C,R6*%
X163498398Y-103032194D03*
X163498398Y-101207194D03*
%TD*%
D25*
%TO.C,C20*%
X151748396Y-88932192D03*
X151748396Y-91882194D03*
%TD*%
D26*
%TO.C,C35*%
X141174998Y-94667000D03*
X139624998Y-94667000D03*
%TD*%
D57*
%TO.C,U6*%
X118209987Y-96785000D03*
X115909987Y-96784999D03*
D58*
X115909987Y-90485001D03*
D57*
X113609987Y-96785000D03*
%TD*%
D33*
%TO.C,R30*%
X155350000Y-75650000D03*
X153700000Y-75650000D03*
%TD*%
D47*
%TO.C,R7*%
X165223396Y-101207192D03*
X167048396Y-101207192D03*
%TD*%
D43*
%TO.C,C32*%
X149400001Y-95174999D03*
X149400001Y-96724999D03*
%TD*%
D29*
%TO.C,D4*%
X190825000Y-103225000D03*
X192700002Y-103225000D03*
%TD*%
D34*
%TO.C,C15*%
X168623397Y-95857191D03*
X170523395Y-95857191D03*
%TD*%
D29*
%TO.C,D2*%
X153374998Y-77325000D03*
X155250000Y-77325000D03*
%TD*%
D59*
%TO.C,U12*%
X157564999Y-78250000D03*
X157565000Y-77750000D03*
X157565000Y-77250000D03*
X157564999Y-76750000D03*
D60*
X158227501Y-76587500D03*
X158727500Y-76587500D03*
X159227499Y-76587500D03*
D59*
X159890001Y-76750000D03*
X159890000Y-77250000D03*
X159890000Y-77750000D03*
X159890001Y-78250000D03*
D60*
X159227499Y-78412500D03*
X158727500Y-78412500D03*
X158227501Y-78412500D03*
%TD*%
D61*
%TO.C,C2*%
X189330792Y-98404957D03*
X189330792Y-100304955D03*
%TD*%
D62*
%TO.C,R29*%
X159600000Y-79750000D03*
X161250000Y-79750000D03*
%TD*%
D24*
%TO.C,C19*%
X167098395Y-95282191D03*
X165198397Y-95282191D03*
%TD*%
D27*
%TO.C,R4*%
X189280790Y-94804956D03*
X189280790Y-92979956D03*
%TD*%
D24*
%TO.C,C16*%
X167098397Y-99257191D03*
X165198399Y-99257191D03*
%TD*%
D63*
%TO.C,L1*%
X160462500Y-92600000D03*
X158012500Y-92600000D03*
%TD*%
D28*
%TO.C,R9*%
X163498398Y-95382194D03*
X163498398Y-97207194D03*
%TD*%
M02*
