%TF.GenerationSoftware,KiCad,Pcbnew,9.0.5*%
%TF.CreationDate,2026-01-21T19:05:33-06:00*%
%TF.ProjectId,Elysium_2026_ACB,456c7973-6975-46d5-9f32-3032365f4143,rev?*%
%TF.SameCoordinates,Original*%
%TF.FileFunction,Legend,Top*%
%TF.FilePolarity,Positive*%
%FSLAX46Y46*%
G04 Gerber Fmt 4.6, Leading zero omitted, Abs format (unit mm)*
G04 Created by KiCad (PCBNEW 9.0.5) date 2026-01-21 19:05:33*
%MOMM*%
%LPD*%
G01*
G04 APERTURE LIST*
%ADD10C,0.200000*%
%ADD11C,0.150000*%
%ADD12C,0.100000*%
%ADD13C,0.127000*%
%ADD14C,0.152400*%
%ADD15C,0.120000*%
%ADD16C,0.050000*%
%ADD17C,0.508000*%
G04 APERTURE END LIST*
D10*
X61250000Y-52500000D02*
X63450000Y-52500000D01*
X64250000Y-52500000D02*
X66450000Y-52500000D01*
X67250000Y-52500000D02*
X69450000Y-52500000D01*
X70250000Y-52500000D02*
X72450000Y-52500000D01*
X73250000Y-52500000D02*
X75450000Y-52500000D01*
X76250000Y-52500000D02*
X78450000Y-52500000D01*
X79250000Y-52500000D02*
X81450000Y-52500000D01*
X82250000Y-52500000D02*
X84450000Y-52500000D01*
X85250000Y-52500000D02*
X87450000Y-52500000D01*
X88250000Y-52500000D02*
X90450000Y-52500000D01*
X91250000Y-52500000D02*
X93450000Y-52500000D01*
X94250000Y-52500000D02*
X96450000Y-52500000D01*
X97250000Y-52500000D02*
X99450000Y-52500000D01*
X100250000Y-52500000D02*
X102450000Y-52500000D01*
X103250000Y-52500000D02*
X105450000Y-52500000D01*
X106250000Y-52500000D02*
X108450000Y-52500000D01*
X109250000Y-52500000D02*
X111250000Y-52500000D01*
X111250000Y-52500000D02*
X111250000Y-54700000D01*
X111250000Y-55500000D02*
X111250000Y-57700000D01*
X111250000Y-58500000D02*
X111250000Y-60700000D01*
X111250000Y-61500000D02*
X111250000Y-63700000D01*
X111250000Y-64500000D02*
X111250000Y-66700000D01*
X111250000Y-67500000D02*
X111250000Y-69700000D01*
X111250000Y-70500000D02*
X111250000Y-72700000D01*
X111250000Y-73500000D02*
X111250000Y-75700000D01*
X111250000Y-76500000D02*
X111250000Y-78700000D01*
X111250000Y-79500000D02*
X111250000Y-81700000D01*
X111250000Y-82500000D02*
X111250000Y-84700000D01*
X111250000Y-85500000D02*
X111250000Y-87700000D01*
X111250000Y-88500000D02*
X111250000Y-90700000D01*
X111250000Y-91500000D02*
X111250000Y-93700000D01*
X111250000Y-94500000D02*
X111250000Y-96700000D01*
X111250000Y-97500000D02*
X111250000Y-99700000D01*
X111250000Y-100500000D02*
X111250000Y-102500000D01*
X111250000Y-102500000D02*
X109050000Y-102500000D01*
X108250000Y-102500000D02*
X106050000Y-102500000D01*
X105250000Y-102500000D02*
X103050000Y-102500000D01*
X102250000Y-102500000D02*
X100050000Y-102500000D01*
X99250000Y-102500000D02*
X97050000Y-102500000D01*
X96250000Y-102500000D02*
X94050000Y-102500000D01*
X93250000Y-102500000D02*
X91050000Y-102500000D01*
X90250000Y-102500000D02*
X88050000Y-102500000D01*
X87250000Y-102500000D02*
X85050000Y-102500000D01*
X84250000Y-102500000D02*
X82050000Y-102500000D01*
X81250000Y-102500000D02*
X79050000Y-102500000D01*
X78250000Y-102500000D02*
X76050000Y-102500000D01*
X75250000Y-102500000D02*
X73050000Y-102500000D01*
X72250000Y-102500000D02*
X70050000Y-102500000D01*
X69250000Y-102500000D02*
X67050000Y-102500000D01*
X66250000Y-102500000D02*
X64050000Y-102500000D01*
X63250000Y-102500000D02*
X61250000Y-102500000D01*
X61250000Y-102500000D02*
X61250000Y-100300000D01*
X61250000Y-99500000D02*
X61250000Y-97300000D01*
X61250000Y-96500000D02*
X61250000Y-94300000D01*
X61250000Y-93500000D02*
X61250000Y-91300000D01*
X61250000Y-90500000D02*
X61250000Y-88300000D01*
X61250000Y-87500000D02*
X61250000Y-85300000D01*
X61250000Y-84500000D02*
X61250000Y-82300000D01*
X61250000Y-81500000D02*
X61250000Y-79300000D01*
X61250000Y-78500000D02*
X61250000Y-76300000D01*
X61250000Y-75500000D02*
X61250000Y-73300000D01*
X61250000Y-72500000D02*
X61250000Y-70300000D01*
X61250000Y-69500000D02*
X61250000Y-67300000D01*
X61250000Y-66500000D02*
X61250000Y-64300000D01*
X61250000Y-63500000D02*
X61250000Y-61300000D01*
X61250000Y-60500000D02*
X61250000Y-58300000D01*
X61250000Y-57500000D02*
X61250000Y-55300000D01*
X61250000Y-54500000D02*
X61250000Y-52500000D01*
D11*
X121369819Y-101217857D02*
X121369819Y-101694047D01*
X121369819Y-101694047D02*
X120369819Y-101694047D01*
X121322200Y-100932142D02*
X121369819Y-100789285D01*
X121369819Y-100789285D02*
X121369819Y-100551190D01*
X121369819Y-100551190D02*
X121322200Y-100455952D01*
X121322200Y-100455952D02*
X121274580Y-100408333D01*
X121274580Y-100408333D02*
X121179342Y-100360714D01*
X121179342Y-100360714D02*
X121084104Y-100360714D01*
X121084104Y-100360714D02*
X120988866Y-100408333D01*
X120988866Y-100408333D02*
X120941247Y-100455952D01*
X120941247Y-100455952D02*
X120893628Y-100551190D01*
X120893628Y-100551190D02*
X120846009Y-100741666D01*
X120846009Y-100741666D02*
X120798390Y-100836904D01*
X120798390Y-100836904D02*
X120750771Y-100884523D01*
X120750771Y-100884523D02*
X120655533Y-100932142D01*
X120655533Y-100932142D02*
X120560295Y-100932142D01*
X120560295Y-100932142D02*
X120465057Y-100884523D01*
X120465057Y-100884523D02*
X120417438Y-100836904D01*
X120417438Y-100836904D02*
X120369819Y-100741666D01*
X120369819Y-100741666D02*
X120369819Y-100503571D01*
X120369819Y-100503571D02*
X120417438Y-100360714D01*
X121369819Y-99408333D02*
X121369819Y-99979761D01*
X121369819Y-99694047D02*
X120369819Y-99694047D01*
X120369819Y-99694047D02*
X120512676Y-99789285D01*
X120512676Y-99789285D02*
X120607914Y-99884523D01*
X120607914Y-99884523D02*
X120655533Y-99979761D01*
X85011905Y-76954819D02*
X85011905Y-77764342D01*
X85011905Y-77764342D02*
X85059524Y-77859580D01*
X85059524Y-77859580D02*
X85107143Y-77907200D01*
X85107143Y-77907200D02*
X85202381Y-77954819D01*
X85202381Y-77954819D02*
X85392857Y-77954819D01*
X85392857Y-77954819D02*
X85488095Y-77907200D01*
X85488095Y-77907200D02*
X85535714Y-77859580D01*
X85535714Y-77859580D02*
X85583333Y-77764342D01*
X85583333Y-77764342D02*
X85583333Y-76954819D01*
X86583333Y-77954819D02*
X86011905Y-77954819D01*
X86297619Y-77954819D02*
X86297619Y-76954819D01*
X86297619Y-76954819D02*
X86202381Y-77097676D01*
X86202381Y-77097676D02*
X86107143Y-77192914D01*
X86107143Y-77192914D02*
X86011905Y-77240533D01*
X87535714Y-77954819D02*
X86964286Y-77954819D01*
X87250000Y-77954819D02*
X87250000Y-76954819D01*
X87250000Y-76954819D02*
X87154762Y-77097676D01*
X87154762Y-77097676D02*
X87059524Y-77192914D01*
X87059524Y-77192914D02*
X86964286Y-77240533D01*
X78113299Y-73154819D02*
X78113299Y-73392914D01*
X77875204Y-73297676D02*
X78113299Y-73392914D01*
X78113299Y-73392914D02*
X78351394Y-73297676D01*
X77970442Y-73583390D02*
X78113299Y-73392914D01*
X78113299Y-73392914D02*
X78256156Y-73583390D01*
X78113299Y-73154819D02*
X78113299Y-73392914D01*
X77875204Y-73297676D02*
X78113299Y-73392914D01*
X78113299Y-73392914D02*
X78351394Y-73297676D01*
X77970442Y-73583390D02*
X78113299Y-73392914D01*
X78113299Y-73392914D02*
X78256156Y-73583390D01*
X120044642Y-94384819D02*
X119711309Y-93908628D01*
X119473214Y-94384819D02*
X119473214Y-93384819D01*
X119473214Y-93384819D02*
X119854166Y-93384819D01*
X119854166Y-93384819D02*
X119949404Y-93432438D01*
X119949404Y-93432438D02*
X119997023Y-93480057D01*
X119997023Y-93480057D02*
X120044642Y-93575295D01*
X120044642Y-93575295D02*
X120044642Y-93718152D01*
X120044642Y-93718152D02*
X119997023Y-93813390D01*
X119997023Y-93813390D02*
X119949404Y-93861009D01*
X119949404Y-93861009D02*
X119854166Y-93908628D01*
X119854166Y-93908628D02*
X119473214Y-93908628D01*
X120425595Y-93480057D02*
X120473214Y-93432438D01*
X120473214Y-93432438D02*
X120568452Y-93384819D01*
X120568452Y-93384819D02*
X120806547Y-93384819D01*
X120806547Y-93384819D02*
X120901785Y-93432438D01*
X120901785Y-93432438D02*
X120949404Y-93480057D01*
X120949404Y-93480057D02*
X120997023Y-93575295D01*
X120997023Y-93575295D02*
X120997023Y-93670533D01*
X120997023Y-93670533D02*
X120949404Y-93813390D01*
X120949404Y-93813390D02*
X120377976Y-94384819D01*
X120377976Y-94384819D02*
X120997023Y-94384819D01*
X121854166Y-93384819D02*
X121663690Y-93384819D01*
X121663690Y-93384819D02*
X121568452Y-93432438D01*
X121568452Y-93432438D02*
X121520833Y-93480057D01*
X121520833Y-93480057D02*
X121425595Y-93622914D01*
X121425595Y-93622914D02*
X121377976Y-93813390D01*
X121377976Y-93813390D02*
X121377976Y-94194342D01*
X121377976Y-94194342D02*
X121425595Y-94289580D01*
X121425595Y-94289580D02*
X121473214Y-94337200D01*
X121473214Y-94337200D02*
X121568452Y-94384819D01*
X121568452Y-94384819D02*
X121758928Y-94384819D01*
X121758928Y-94384819D02*
X121854166Y-94337200D01*
X121854166Y-94337200D02*
X121901785Y-94289580D01*
X121901785Y-94289580D02*
X121949404Y-94194342D01*
X121949404Y-94194342D02*
X121949404Y-93956247D01*
X121949404Y-93956247D02*
X121901785Y-93861009D01*
X121901785Y-93861009D02*
X121854166Y-93813390D01*
X121854166Y-93813390D02*
X121758928Y-93765771D01*
X121758928Y-93765771D02*
X121568452Y-93765771D01*
X121568452Y-93765771D02*
X121473214Y-93813390D01*
X121473214Y-93813390D02*
X121425595Y-93861009D01*
X121425595Y-93861009D02*
X121377976Y-93956247D01*
D12*
X124621905Y-72032419D02*
X124621905Y-72841942D01*
X124621905Y-72841942D02*
X124669524Y-72937180D01*
X124669524Y-72937180D02*
X124717143Y-72984800D01*
X124717143Y-72984800D02*
X124812381Y-73032419D01*
X124812381Y-73032419D02*
X125002857Y-73032419D01*
X125002857Y-73032419D02*
X125098095Y-72984800D01*
X125098095Y-72984800D02*
X125145714Y-72937180D01*
X125145714Y-72937180D02*
X125193333Y-72841942D01*
X125193333Y-72841942D02*
X125193333Y-72032419D01*
X126193333Y-73032419D02*
X125621905Y-73032419D01*
X125907619Y-73032419D02*
X125907619Y-72032419D01*
X125907619Y-72032419D02*
X125812381Y-72175276D01*
X125812381Y-72175276D02*
X125717143Y-72270514D01*
X125717143Y-72270514D02*
X125621905Y-72318133D01*
X126526667Y-72032419D02*
X127145714Y-72032419D01*
X127145714Y-72032419D02*
X126812381Y-72413371D01*
X126812381Y-72413371D02*
X126955238Y-72413371D01*
X126955238Y-72413371D02*
X127050476Y-72460990D01*
X127050476Y-72460990D02*
X127098095Y-72508609D01*
X127098095Y-72508609D02*
X127145714Y-72603847D01*
X127145714Y-72603847D02*
X127145714Y-72841942D01*
X127145714Y-72841942D02*
X127098095Y-72937180D01*
X127098095Y-72937180D02*
X127050476Y-72984800D01*
X127050476Y-72984800D02*
X126955238Y-73032419D01*
X126955238Y-73032419D02*
X126669524Y-73032419D01*
X126669524Y-73032419D02*
X126574286Y-72984800D01*
X126574286Y-72984800D02*
X126526667Y-72937180D01*
D11*
X140403881Y-79317003D02*
X139831462Y-79215988D01*
X139999820Y-79721064D02*
X139292714Y-79013957D01*
X139292714Y-79013957D02*
X139562088Y-78744583D01*
X139562088Y-78744583D02*
X139663103Y-78710911D01*
X139663103Y-78710911D02*
X139730446Y-78710911D01*
X139730446Y-78710911D02*
X139831462Y-78744583D01*
X139831462Y-78744583D02*
X139932477Y-78845598D01*
X139932477Y-78845598D02*
X139966149Y-78946614D01*
X139966149Y-78946614D02*
X139966149Y-79013957D01*
X139966149Y-79013957D02*
X139932477Y-79114972D01*
X139932477Y-79114972D02*
X139663103Y-79384346D01*
X140033492Y-78407866D02*
X140033492Y-78340522D01*
X140033492Y-78340522D02*
X140067164Y-78239507D01*
X140067164Y-78239507D02*
X140235523Y-78071148D01*
X140235523Y-78071148D02*
X140336538Y-78037476D01*
X140336538Y-78037476D02*
X140403881Y-78037476D01*
X140403881Y-78037476D02*
X140504897Y-78071148D01*
X140504897Y-78071148D02*
X140572240Y-78138492D01*
X140572240Y-78138492D02*
X140639584Y-78273179D01*
X140639584Y-78273179D02*
X140639584Y-79081301D01*
X140639584Y-79081301D02*
X141077316Y-78643568D01*
X140807943Y-77498728D02*
X140875286Y-77431385D01*
X140875286Y-77431385D02*
X140976301Y-77397713D01*
X140976301Y-77397713D02*
X141043645Y-77397713D01*
X141043645Y-77397713D02*
X141144660Y-77431385D01*
X141144660Y-77431385D02*
X141313019Y-77532400D01*
X141313019Y-77532400D02*
X141481378Y-77700759D01*
X141481378Y-77700759D02*
X141582393Y-77869117D01*
X141582393Y-77869117D02*
X141616065Y-77970133D01*
X141616065Y-77970133D02*
X141616065Y-78037476D01*
X141616065Y-78037476D02*
X141582393Y-78138491D01*
X141582393Y-78138491D02*
X141515049Y-78205835D01*
X141515049Y-78205835D02*
X141414034Y-78239507D01*
X141414034Y-78239507D02*
X141346691Y-78239507D01*
X141346691Y-78239507D02*
X141245675Y-78205835D01*
X141245675Y-78205835D02*
X141077317Y-78104820D01*
X141077317Y-78104820D02*
X140908958Y-77936461D01*
X140908958Y-77936461D02*
X140807943Y-77768102D01*
X140807943Y-77768102D02*
X140774271Y-77667087D01*
X140774271Y-77667087D02*
X140774271Y-77599743D01*
X140774271Y-77599743D02*
X140807943Y-77498728D01*
X162785586Y-93701589D02*
X162718242Y-93701589D01*
X162718242Y-93701589D02*
X162583555Y-93634245D01*
X162583555Y-93634245D02*
X162516212Y-93566902D01*
X162516212Y-93566902D02*
X162448868Y-93432215D01*
X162448868Y-93432215D02*
X162448868Y-93297528D01*
X162448868Y-93297528D02*
X162482540Y-93196513D01*
X162482540Y-93196513D02*
X162583555Y-93028154D01*
X162583555Y-93028154D02*
X162684570Y-92927139D01*
X162684570Y-92927139D02*
X162852929Y-92826123D01*
X162852929Y-92826123D02*
X162953944Y-92792452D01*
X162953944Y-92792452D02*
X163088631Y-92792452D01*
X163088631Y-92792452D02*
X163223318Y-92859795D01*
X163223318Y-92859795D02*
X163290662Y-92927139D01*
X163290662Y-92927139D02*
X163358005Y-93061826D01*
X163358005Y-93061826D02*
X163358005Y-93129169D01*
X163661051Y-93297528D02*
X164098784Y-93735261D01*
X164098784Y-93735261D02*
X163593708Y-93768932D01*
X163593708Y-93768932D02*
X163694723Y-93869948D01*
X163694723Y-93869948D02*
X163728395Y-93970963D01*
X163728395Y-93970963D02*
X163728395Y-94038306D01*
X163728395Y-94038306D02*
X163694723Y-94139322D01*
X163694723Y-94139322D02*
X163526364Y-94307680D01*
X163526364Y-94307680D02*
X163425349Y-94341352D01*
X163425349Y-94341352D02*
X163358005Y-94341352D01*
X163358005Y-94341352D02*
X163256990Y-94307680D01*
X163256990Y-94307680D02*
X163054960Y-94105650D01*
X163054960Y-94105650D02*
X163021288Y-94004635D01*
X163021288Y-94004635D02*
X163021288Y-93937291D01*
X164334486Y-93970963D02*
X164772219Y-94408696D01*
X164772219Y-94408696D02*
X164267143Y-94442368D01*
X164267143Y-94442368D02*
X164368158Y-94543383D01*
X164368158Y-94543383D02*
X164401830Y-94644398D01*
X164401830Y-94644398D02*
X164401830Y-94711742D01*
X164401830Y-94711742D02*
X164368158Y-94812757D01*
X164368158Y-94812757D02*
X164199799Y-94981116D01*
X164199799Y-94981116D02*
X164098784Y-95014787D01*
X164098784Y-95014787D02*
X164031441Y-95014787D01*
X164031441Y-95014787D02*
X163930425Y-94981116D01*
X163930425Y-94981116D02*
X163728395Y-94779085D01*
X163728395Y-94779085D02*
X163694723Y-94678070D01*
X163694723Y-94678070D02*
X163694723Y-94610726D01*
X188449406Y-93509782D02*
X188449406Y-92509782D01*
X188449406Y-92509782D02*
X188687501Y-92509782D01*
X188687501Y-92509782D02*
X188830358Y-92557401D01*
X188830358Y-92557401D02*
X188925596Y-92652639D01*
X188925596Y-92652639D02*
X188973215Y-92747877D01*
X188973215Y-92747877D02*
X189020834Y-92938353D01*
X189020834Y-92938353D02*
X189020834Y-93081210D01*
X189020834Y-93081210D02*
X188973215Y-93271686D01*
X188973215Y-93271686D02*
X188925596Y-93366924D01*
X188925596Y-93366924D02*
X188830358Y-93462163D01*
X188830358Y-93462163D02*
X188687501Y-93509782D01*
X188687501Y-93509782D02*
X188449406Y-93509782D01*
X189925596Y-92509782D02*
X189449406Y-92509782D01*
X189449406Y-92509782D02*
X189401787Y-92985972D01*
X189401787Y-92985972D02*
X189449406Y-92938353D01*
X189449406Y-92938353D02*
X189544644Y-92890734D01*
X189544644Y-92890734D02*
X189782739Y-92890734D01*
X189782739Y-92890734D02*
X189877977Y-92938353D01*
X189877977Y-92938353D02*
X189925596Y-92985972D01*
X189925596Y-92985972D02*
X189973215Y-93081210D01*
X189973215Y-93081210D02*
X189973215Y-93319305D01*
X189973215Y-93319305D02*
X189925596Y-93414543D01*
X189925596Y-93414543D02*
X189877977Y-93462163D01*
X189877977Y-93462163D02*
X189782739Y-93509782D01*
X189782739Y-93509782D02*
X189544644Y-93509782D01*
X189544644Y-93509782D02*
X189449406Y-93462163D01*
X189449406Y-93462163D02*
X189401787Y-93414543D01*
X154010543Y-84353754D02*
X154111558Y-83781335D01*
X153606482Y-83949693D02*
X154313589Y-83242587D01*
X154313589Y-83242587D02*
X154582963Y-83511961D01*
X154582963Y-83511961D02*
X154616635Y-83612976D01*
X154616635Y-83612976D02*
X154616635Y-83680319D01*
X154616635Y-83680319D02*
X154582963Y-83781335D01*
X154582963Y-83781335D02*
X154481948Y-83882350D01*
X154481948Y-83882350D02*
X154380932Y-83916022D01*
X154380932Y-83916022D02*
X154313589Y-83916022D01*
X154313589Y-83916022D02*
X154212574Y-83882350D01*
X154212574Y-83882350D02*
X153943200Y-83612976D01*
X154919680Y-83983365D02*
X154987024Y-83983365D01*
X154987024Y-83983365D02*
X155088039Y-84017037D01*
X155088039Y-84017037D02*
X155256398Y-84185396D01*
X155256398Y-84185396D02*
X155290070Y-84286411D01*
X155290070Y-84286411D02*
X155290070Y-84353754D01*
X155290070Y-84353754D02*
X155256398Y-84454770D01*
X155256398Y-84454770D02*
X155189054Y-84522113D01*
X155189054Y-84522113D02*
X155054367Y-84589457D01*
X155054367Y-84589457D02*
X154246245Y-84589457D01*
X154246245Y-84589457D02*
X154683978Y-85027189D01*
X156460543Y-89653754D02*
X156561558Y-89081335D01*
X156056482Y-89249693D02*
X156763589Y-88542587D01*
X156763589Y-88542587D02*
X157032963Y-88811961D01*
X157032963Y-88811961D02*
X157066635Y-88912976D01*
X157066635Y-88912976D02*
X157066635Y-88980319D01*
X157066635Y-88980319D02*
X157032963Y-89081335D01*
X157032963Y-89081335D02*
X156931948Y-89182350D01*
X156931948Y-89182350D02*
X156830932Y-89216022D01*
X156830932Y-89216022D02*
X156763589Y-89216022D01*
X156763589Y-89216022D02*
X156662574Y-89182350D01*
X156662574Y-89182350D02*
X156393200Y-88912976D01*
X157133978Y-90327189D02*
X156729917Y-89923128D01*
X156931948Y-90125159D02*
X157639054Y-89418052D01*
X157639054Y-89418052D02*
X157470696Y-89451724D01*
X157470696Y-89451724D02*
X157336009Y-89451724D01*
X157336009Y-89451724D02*
X157234993Y-89418052D01*
X199857142Y-101509580D02*
X199809523Y-101557200D01*
X199809523Y-101557200D02*
X199666666Y-101604819D01*
X199666666Y-101604819D02*
X199571428Y-101604819D01*
X199571428Y-101604819D02*
X199428571Y-101557200D01*
X199428571Y-101557200D02*
X199333333Y-101461961D01*
X199333333Y-101461961D02*
X199285714Y-101366723D01*
X199285714Y-101366723D02*
X199238095Y-101176247D01*
X199238095Y-101176247D02*
X199238095Y-101033390D01*
X199238095Y-101033390D02*
X199285714Y-100842914D01*
X199285714Y-100842914D02*
X199333333Y-100747676D01*
X199333333Y-100747676D02*
X199428571Y-100652438D01*
X199428571Y-100652438D02*
X199571428Y-100604819D01*
X199571428Y-100604819D02*
X199666666Y-100604819D01*
X199666666Y-100604819D02*
X199809523Y-100652438D01*
X199809523Y-100652438D02*
X199857142Y-100700057D01*
X200714285Y-100938152D02*
X200714285Y-101604819D01*
X200476190Y-100557200D02*
X200238095Y-101271485D01*
X200238095Y-101271485D02*
X200857142Y-101271485D01*
X201666666Y-100938152D02*
X201666666Y-101604819D01*
X201428571Y-100557200D02*
X201190476Y-101271485D01*
X201190476Y-101271485D02*
X201809523Y-101271485D01*
X190911905Y-98754819D02*
X190911905Y-99564342D01*
X190911905Y-99564342D02*
X190959524Y-99659580D01*
X190959524Y-99659580D02*
X191007143Y-99707200D01*
X191007143Y-99707200D02*
X191102381Y-99754819D01*
X191102381Y-99754819D02*
X191292857Y-99754819D01*
X191292857Y-99754819D02*
X191388095Y-99707200D01*
X191388095Y-99707200D02*
X191435714Y-99659580D01*
X191435714Y-99659580D02*
X191483333Y-99564342D01*
X191483333Y-99564342D02*
X191483333Y-98754819D01*
X192483333Y-99754819D02*
X191911905Y-99754819D01*
X192197619Y-99754819D02*
X192197619Y-98754819D01*
X192197619Y-98754819D02*
X192102381Y-98897676D01*
X192102381Y-98897676D02*
X192007143Y-98992914D01*
X192007143Y-98992914D02*
X191911905Y-99040533D01*
X193340476Y-98754819D02*
X193150000Y-98754819D01*
X193150000Y-98754819D02*
X193054762Y-98802438D01*
X193054762Y-98802438D02*
X193007143Y-98850057D01*
X193007143Y-98850057D02*
X192911905Y-98992914D01*
X192911905Y-98992914D02*
X192864286Y-99183390D01*
X192864286Y-99183390D02*
X192864286Y-99564342D01*
X192864286Y-99564342D02*
X192911905Y-99659580D01*
X192911905Y-99659580D02*
X192959524Y-99707200D01*
X192959524Y-99707200D02*
X193054762Y-99754819D01*
X193054762Y-99754819D02*
X193245238Y-99754819D01*
X193245238Y-99754819D02*
X193340476Y-99707200D01*
X193340476Y-99707200D02*
X193388095Y-99659580D01*
X193388095Y-99659580D02*
X193435714Y-99564342D01*
X193435714Y-99564342D02*
X193435714Y-99326247D01*
X193435714Y-99326247D02*
X193388095Y-99231009D01*
X193388095Y-99231009D02*
X193340476Y-99183390D01*
X193340476Y-99183390D02*
X193245238Y-99135771D01*
X193245238Y-99135771D02*
X193054762Y-99135771D01*
X193054762Y-99135771D02*
X192959524Y-99183390D01*
X192959524Y-99183390D02*
X192911905Y-99231009D01*
X192911905Y-99231009D02*
X192864286Y-99326247D01*
X160159580Y-88142857D02*
X160207200Y-88190476D01*
X160207200Y-88190476D02*
X160254819Y-88333333D01*
X160254819Y-88333333D02*
X160254819Y-88428571D01*
X160254819Y-88428571D02*
X160207200Y-88571428D01*
X160207200Y-88571428D02*
X160111961Y-88666666D01*
X160111961Y-88666666D02*
X160016723Y-88714285D01*
X160016723Y-88714285D02*
X159826247Y-88761904D01*
X159826247Y-88761904D02*
X159683390Y-88761904D01*
X159683390Y-88761904D02*
X159492914Y-88714285D01*
X159492914Y-88714285D02*
X159397676Y-88666666D01*
X159397676Y-88666666D02*
X159302438Y-88571428D01*
X159302438Y-88571428D02*
X159254819Y-88428571D01*
X159254819Y-88428571D02*
X159254819Y-88333333D01*
X159254819Y-88333333D02*
X159302438Y-88190476D01*
X159302438Y-88190476D02*
X159350057Y-88142857D01*
X159588152Y-87285714D02*
X160254819Y-87285714D01*
X159207200Y-87523809D02*
X159921485Y-87761904D01*
X159921485Y-87761904D02*
X159921485Y-87142857D01*
X159350057Y-86809523D02*
X159302438Y-86761904D01*
X159302438Y-86761904D02*
X159254819Y-86666666D01*
X159254819Y-86666666D02*
X159254819Y-86428571D01*
X159254819Y-86428571D02*
X159302438Y-86333333D01*
X159302438Y-86333333D02*
X159350057Y-86285714D01*
X159350057Y-86285714D02*
X159445295Y-86238095D01*
X159445295Y-86238095D02*
X159540533Y-86238095D01*
X159540533Y-86238095D02*
X159683390Y-86285714D01*
X159683390Y-86285714D02*
X160254819Y-86857142D01*
X160254819Y-86857142D02*
X160254819Y-86238095D01*
X144907142Y-87654819D02*
X144573809Y-87178628D01*
X144335714Y-87654819D02*
X144335714Y-86654819D01*
X144335714Y-86654819D02*
X144716666Y-86654819D01*
X144716666Y-86654819D02*
X144811904Y-86702438D01*
X144811904Y-86702438D02*
X144859523Y-86750057D01*
X144859523Y-86750057D02*
X144907142Y-86845295D01*
X144907142Y-86845295D02*
X144907142Y-86988152D01*
X144907142Y-86988152D02*
X144859523Y-87083390D01*
X144859523Y-87083390D02*
X144811904Y-87131009D01*
X144811904Y-87131009D02*
X144716666Y-87178628D01*
X144716666Y-87178628D02*
X144335714Y-87178628D01*
X145859523Y-87654819D02*
X145288095Y-87654819D01*
X145573809Y-87654819D02*
X145573809Y-86654819D01*
X145573809Y-86654819D02*
X145478571Y-86797676D01*
X145478571Y-86797676D02*
X145383333Y-86892914D01*
X145383333Y-86892914D02*
X145288095Y-86940533D01*
X146192857Y-86654819D02*
X146859523Y-86654819D01*
X146859523Y-86654819D02*
X146430952Y-87654819D01*
X181632320Y-98583333D02*
X182346605Y-98583333D01*
X182346605Y-98583333D02*
X182489462Y-98630952D01*
X182489462Y-98630952D02*
X182584701Y-98726190D01*
X182584701Y-98726190D02*
X182632320Y-98869047D01*
X182632320Y-98869047D02*
X182632320Y-98964285D01*
X181727558Y-98154761D02*
X181679939Y-98107142D01*
X181679939Y-98107142D02*
X181632320Y-98011904D01*
X181632320Y-98011904D02*
X181632320Y-97773809D01*
X181632320Y-97773809D02*
X181679939Y-97678571D01*
X181679939Y-97678571D02*
X181727558Y-97630952D01*
X181727558Y-97630952D02*
X181822796Y-97583333D01*
X181822796Y-97583333D02*
X181918034Y-97583333D01*
X181918034Y-97583333D02*
X182060891Y-97630952D01*
X182060891Y-97630952D02*
X182632320Y-98202380D01*
X182632320Y-98202380D02*
X182632320Y-97583333D01*
X196882141Y-97384539D02*
X196834522Y-97432159D01*
X196834522Y-97432159D02*
X196691665Y-97479778D01*
X196691665Y-97479778D02*
X196596427Y-97479778D01*
X196596427Y-97479778D02*
X196453570Y-97432159D01*
X196453570Y-97432159D02*
X196358332Y-97336920D01*
X196358332Y-97336920D02*
X196310713Y-97241682D01*
X196310713Y-97241682D02*
X196263094Y-97051206D01*
X196263094Y-97051206D02*
X196263094Y-96908349D01*
X196263094Y-96908349D02*
X196310713Y-96717873D01*
X196310713Y-96717873D02*
X196358332Y-96622635D01*
X196358332Y-96622635D02*
X196453570Y-96527397D01*
X196453570Y-96527397D02*
X196596427Y-96479778D01*
X196596427Y-96479778D02*
X196691665Y-96479778D01*
X196691665Y-96479778D02*
X196834522Y-96527397D01*
X196834522Y-96527397D02*
X196882141Y-96575016D01*
X197739284Y-96813111D02*
X197739284Y-97479778D01*
X197501189Y-96432159D02*
X197263094Y-97146444D01*
X197263094Y-97146444D02*
X197882141Y-97146444D01*
X198167856Y-96479778D02*
X198786903Y-96479778D01*
X198786903Y-96479778D02*
X198453570Y-96860730D01*
X198453570Y-96860730D02*
X198596427Y-96860730D01*
X198596427Y-96860730D02*
X198691665Y-96908349D01*
X198691665Y-96908349D02*
X198739284Y-96955968D01*
X198739284Y-96955968D02*
X198786903Y-97051206D01*
X198786903Y-97051206D02*
X198786903Y-97289301D01*
X198786903Y-97289301D02*
X198739284Y-97384539D01*
X198739284Y-97384539D02*
X198691665Y-97432159D01*
X198691665Y-97432159D02*
X198596427Y-97479778D01*
X198596427Y-97479778D02*
X198310713Y-97479778D01*
X198310713Y-97479778D02*
X198215475Y-97432159D01*
X198215475Y-97432159D02*
X198167856Y-97384539D01*
X130754761Y-89150057D02*
X130659523Y-89102438D01*
X130659523Y-89102438D02*
X130564285Y-89007200D01*
X130564285Y-89007200D02*
X130421428Y-88864342D01*
X130421428Y-88864342D02*
X130326190Y-88816723D01*
X130326190Y-88816723D02*
X130230952Y-88816723D01*
X130278571Y-89054819D02*
X130183333Y-89007200D01*
X130183333Y-89007200D02*
X130088095Y-88911961D01*
X130088095Y-88911961D02*
X130040476Y-88721485D01*
X130040476Y-88721485D02*
X130040476Y-88388152D01*
X130040476Y-88388152D02*
X130088095Y-88197676D01*
X130088095Y-88197676D02*
X130183333Y-88102438D01*
X130183333Y-88102438D02*
X130278571Y-88054819D01*
X130278571Y-88054819D02*
X130469047Y-88054819D01*
X130469047Y-88054819D02*
X130564285Y-88102438D01*
X130564285Y-88102438D02*
X130659523Y-88197676D01*
X130659523Y-88197676D02*
X130707142Y-88388152D01*
X130707142Y-88388152D02*
X130707142Y-88721485D01*
X130707142Y-88721485D02*
X130659523Y-88911961D01*
X130659523Y-88911961D02*
X130564285Y-89007200D01*
X130564285Y-89007200D02*
X130469047Y-89054819D01*
X130469047Y-89054819D02*
X130278571Y-89054819D01*
X131088095Y-88150057D02*
X131135714Y-88102438D01*
X131135714Y-88102438D02*
X131230952Y-88054819D01*
X131230952Y-88054819D02*
X131469047Y-88054819D01*
X131469047Y-88054819D02*
X131564285Y-88102438D01*
X131564285Y-88102438D02*
X131611904Y-88150057D01*
X131611904Y-88150057D02*
X131659523Y-88245295D01*
X131659523Y-88245295D02*
X131659523Y-88340533D01*
X131659523Y-88340533D02*
X131611904Y-88483390D01*
X131611904Y-88483390D02*
X131040476Y-89054819D01*
X131040476Y-89054819D02*
X131659523Y-89054819D01*
X160357142Y-84304819D02*
X160023809Y-83828628D01*
X159785714Y-84304819D02*
X159785714Y-83304819D01*
X159785714Y-83304819D02*
X160166666Y-83304819D01*
X160166666Y-83304819D02*
X160261904Y-83352438D01*
X160261904Y-83352438D02*
X160309523Y-83400057D01*
X160309523Y-83400057D02*
X160357142Y-83495295D01*
X160357142Y-83495295D02*
X160357142Y-83638152D01*
X160357142Y-83638152D02*
X160309523Y-83733390D01*
X160309523Y-83733390D02*
X160261904Y-83781009D01*
X160261904Y-83781009D02*
X160166666Y-83828628D01*
X160166666Y-83828628D02*
X159785714Y-83828628D01*
X161309523Y-84304819D02*
X160738095Y-84304819D01*
X161023809Y-84304819D02*
X161023809Y-83304819D01*
X161023809Y-83304819D02*
X160928571Y-83447676D01*
X160928571Y-83447676D02*
X160833333Y-83542914D01*
X160833333Y-83542914D02*
X160738095Y-83590533D01*
X161785714Y-84304819D02*
X161976190Y-84304819D01*
X161976190Y-84304819D02*
X162071428Y-84257200D01*
X162071428Y-84257200D02*
X162119047Y-84209580D01*
X162119047Y-84209580D02*
X162214285Y-84066723D01*
X162214285Y-84066723D02*
X162261904Y-83876247D01*
X162261904Y-83876247D02*
X162261904Y-83495295D01*
X162261904Y-83495295D02*
X162214285Y-83400057D01*
X162214285Y-83400057D02*
X162166666Y-83352438D01*
X162166666Y-83352438D02*
X162071428Y-83304819D01*
X162071428Y-83304819D02*
X161880952Y-83304819D01*
X161880952Y-83304819D02*
X161785714Y-83352438D01*
X161785714Y-83352438D02*
X161738095Y-83400057D01*
X161738095Y-83400057D02*
X161690476Y-83495295D01*
X161690476Y-83495295D02*
X161690476Y-83733390D01*
X161690476Y-83733390D02*
X161738095Y-83828628D01*
X161738095Y-83828628D02*
X161785714Y-83876247D01*
X161785714Y-83876247D02*
X161880952Y-83923866D01*
X161880952Y-83923866D02*
X162071428Y-83923866D01*
X162071428Y-83923866D02*
X162166666Y-83876247D01*
X162166666Y-83876247D02*
X162214285Y-83828628D01*
X162214285Y-83828628D02*
X162261904Y-83733390D01*
X182151010Y-89525714D02*
X182198629Y-89382857D01*
X182198629Y-89382857D02*
X182246248Y-89335238D01*
X182246248Y-89335238D02*
X182341486Y-89287619D01*
X182341486Y-89287619D02*
X182484343Y-89287619D01*
X182484343Y-89287619D02*
X182579581Y-89335238D01*
X182579581Y-89335238D02*
X182627201Y-89382857D01*
X182627201Y-89382857D02*
X182674820Y-89478095D01*
X182674820Y-89478095D02*
X182674820Y-89859047D01*
X182674820Y-89859047D02*
X181674820Y-89859047D01*
X181674820Y-89859047D02*
X181674820Y-89525714D01*
X181674820Y-89525714D02*
X181722439Y-89430476D01*
X181722439Y-89430476D02*
X181770058Y-89382857D01*
X181770058Y-89382857D02*
X181865296Y-89335238D01*
X181865296Y-89335238D02*
X181960534Y-89335238D01*
X181960534Y-89335238D02*
X182055772Y-89382857D01*
X182055772Y-89382857D02*
X182103391Y-89430476D01*
X182103391Y-89430476D02*
X182151010Y-89525714D01*
X182151010Y-89525714D02*
X182151010Y-89859047D01*
X181674820Y-89001904D02*
X181674820Y-88430476D01*
X182674820Y-88716190D02*
X181674820Y-88716190D01*
X182674820Y-87573333D02*
X182674820Y-88144761D01*
X182674820Y-87859047D02*
X181674820Y-87859047D01*
X181674820Y-87859047D02*
X181817677Y-87954285D01*
X181817677Y-87954285D02*
X181912915Y-88049523D01*
X181912915Y-88049523D02*
X181960534Y-88144761D01*
X143629819Y-81143094D02*
X144439342Y-81143094D01*
X144439342Y-81143094D02*
X144534580Y-81095475D01*
X144534580Y-81095475D02*
X144582200Y-81047856D01*
X144582200Y-81047856D02*
X144629819Y-80952618D01*
X144629819Y-80952618D02*
X144629819Y-80762142D01*
X144629819Y-80762142D02*
X144582200Y-80666904D01*
X144582200Y-80666904D02*
X144534580Y-80619285D01*
X144534580Y-80619285D02*
X144439342Y-80571666D01*
X144439342Y-80571666D02*
X143629819Y-80571666D01*
X144629819Y-79571666D02*
X144629819Y-80143094D01*
X144629819Y-79857380D02*
X143629819Y-79857380D01*
X143629819Y-79857380D02*
X143772676Y-79952618D01*
X143772676Y-79952618D02*
X143867914Y-80047856D01*
X143867914Y-80047856D02*
X143915533Y-80143094D01*
X143629819Y-78666904D02*
X143629819Y-79143094D01*
X143629819Y-79143094D02*
X144106009Y-79190713D01*
X144106009Y-79190713D02*
X144058390Y-79143094D01*
X144058390Y-79143094D02*
X144010771Y-79047856D01*
X144010771Y-79047856D02*
X144010771Y-78809761D01*
X144010771Y-78809761D02*
X144058390Y-78714523D01*
X144058390Y-78714523D02*
X144106009Y-78666904D01*
X144106009Y-78666904D02*
X144201247Y-78619285D01*
X144201247Y-78619285D02*
X144439342Y-78619285D01*
X144439342Y-78619285D02*
X144534580Y-78666904D01*
X144534580Y-78666904D02*
X144582200Y-78714523D01*
X144582200Y-78714523D02*
X144629819Y-78809761D01*
X144629819Y-78809761D02*
X144629819Y-79047856D01*
X144629819Y-79047856D02*
X144582200Y-79143094D01*
X144582200Y-79143094D02*
X144534580Y-79190713D01*
X179216666Y-51954819D02*
X179216666Y-52669104D01*
X179216666Y-52669104D02*
X179169047Y-52811961D01*
X179169047Y-52811961D02*
X179073809Y-52907200D01*
X179073809Y-52907200D02*
X178930952Y-52954819D01*
X178930952Y-52954819D02*
X178835714Y-52954819D01*
X179597619Y-51954819D02*
X180216666Y-51954819D01*
X180216666Y-51954819D02*
X179883333Y-52335771D01*
X179883333Y-52335771D02*
X180026190Y-52335771D01*
X180026190Y-52335771D02*
X180121428Y-52383390D01*
X180121428Y-52383390D02*
X180169047Y-52431009D01*
X180169047Y-52431009D02*
X180216666Y-52526247D01*
X180216666Y-52526247D02*
X180216666Y-52764342D01*
X180216666Y-52764342D02*
X180169047Y-52859580D01*
X180169047Y-52859580D02*
X180121428Y-52907200D01*
X180121428Y-52907200D02*
X180026190Y-52954819D01*
X180026190Y-52954819D02*
X179740476Y-52954819D01*
X179740476Y-52954819D02*
X179645238Y-52907200D01*
X179645238Y-52907200D02*
X179597619Y-52859580D01*
X191682140Y-96929817D02*
X191348807Y-96453626D01*
X191110712Y-96929817D02*
X191110712Y-95929817D01*
X191110712Y-95929817D02*
X191491664Y-95929817D01*
X191491664Y-95929817D02*
X191586902Y-95977436D01*
X191586902Y-95977436D02*
X191634521Y-96025055D01*
X191634521Y-96025055D02*
X191682140Y-96120293D01*
X191682140Y-96120293D02*
X191682140Y-96263150D01*
X191682140Y-96263150D02*
X191634521Y-96358388D01*
X191634521Y-96358388D02*
X191586902Y-96406007D01*
X191586902Y-96406007D02*
X191491664Y-96453626D01*
X191491664Y-96453626D02*
X191110712Y-96453626D01*
X192063093Y-96025055D02*
X192110712Y-95977436D01*
X192110712Y-95977436D02*
X192205950Y-95929817D01*
X192205950Y-95929817D02*
X192444045Y-95929817D01*
X192444045Y-95929817D02*
X192539283Y-95977436D01*
X192539283Y-95977436D02*
X192586902Y-96025055D01*
X192586902Y-96025055D02*
X192634521Y-96120293D01*
X192634521Y-96120293D02*
X192634521Y-96215531D01*
X192634521Y-96215531D02*
X192586902Y-96358388D01*
X192586902Y-96358388D02*
X192015474Y-96929817D01*
X192015474Y-96929817D02*
X192634521Y-96929817D01*
X193586902Y-96929817D02*
X193015474Y-96929817D01*
X193301188Y-96929817D02*
X193301188Y-95929817D01*
X193301188Y-95929817D02*
X193205950Y-96072674D01*
X193205950Y-96072674D02*
X193110712Y-96167912D01*
X193110712Y-96167912D02*
X193015474Y-96215531D01*
X149641017Y-86606554D02*
X149742032Y-86034135D01*
X149236956Y-86202493D02*
X149944063Y-85495387D01*
X149944063Y-85495387D02*
X150213437Y-85764761D01*
X150213437Y-85764761D02*
X150247109Y-85865776D01*
X150247109Y-85865776D02*
X150247109Y-85933119D01*
X150247109Y-85933119D02*
X150213437Y-86034135D01*
X150213437Y-86034135D02*
X150112422Y-86135150D01*
X150112422Y-86135150D02*
X150011406Y-86168822D01*
X150011406Y-86168822D02*
X149944063Y-86168822D01*
X149944063Y-86168822D02*
X149843048Y-86135150D01*
X149843048Y-86135150D02*
X149573674Y-85865776D01*
X150583826Y-86135150D02*
X151021559Y-86572883D01*
X151021559Y-86572883D02*
X150516483Y-86606554D01*
X150516483Y-86606554D02*
X150617498Y-86707570D01*
X150617498Y-86707570D02*
X150651170Y-86808585D01*
X150651170Y-86808585D02*
X150651170Y-86875928D01*
X150651170Y-86875928D02*
X150617498Y-86976944D01*
X150617498Y-86976944D02*
X150449139Y-87145302D01*
X150449139Y-87145302D02*
X150348124Y-87178974D01*
X150348124Y-87178974D02*
X150280780Y-87178974D01*
X150280780Y-87178974D02*
X150179765Y-87145302D01*
X150179765Y-87145302D02*
X149977735Y-86943272D01*
X149977735Y-86943272D02*
X149944063Y-86842257D01*
X149944063Y-86842257D02*
X149944063Y-86774913D01*
X145083333Y-96895180D02*
X145083333Y-96180895D01*
X145083333Y-96180895D02*
X145130952Y-96038038D01*
X145130952Y-96038038D02*
X145226190Y-95942800D01*
X145226190Y-95942800D02*
X145369047Y-95895180D01*
X145369047Y-95895180D02*
X145464285Y-95895180D01*
X144083333Y-95895180D02*
X144654761Y-95895180D01*
X144369047Y-95895180D02*
X144369047Y-96895180D01*
X144369047Y-96895180D02*
X144464285Y-96752323D01*
X144464285Y-96752323D02*
X144559523Y-96657085D01*
X144559523Y-96657085D02*
X144654761Y-96609466D01*
X172316666Y-51854819D02*
X172316666Y-52569104D01*
X172316666Y-52569104D02*
X172269047Y-52711961D01*
X172269047Y-52711961D02*
X172173809Y-52807200D01*
X172173809Y-52807200D02*
X172030952Y-52854819D01*
X172030952Y-52854819D02*
X171935714Y-52854819D01*
X173221428Y-52188152D02*
X173221428Y-52854819D01*
X172983333Y-51807200D02*
X172745238Y-52521485D01*
X172745238Y-52521485D02*
X173364285Y-52521485D01*
X153194836Y-89320700D02*
X152622417Y-89219685D01*
X152790775Y-89724761D02*
X152083669Y-89017654D01*
X152083669Y-89017654D02*
X152353043Y-88748280D01*
X152353043Y-88748280D02*
X152454058Y-88714608D01*
X152454058Y-88714608D02*
X152521401Y-88714608D01*
X152521401Y-88714608D02*
X152622417Y-88748280D01*
X152622417Y-88748280D02*
X152723432Y-88849295D01*
X152723432Y-88849295D02*
X152757104Y-88950311D01*
X152757104Y-88950311D02*
X152757104Y-89017654D01*
X152757104Y-89017654D02*
X152723432Y-89118669D01*
X152723432Y-89118669D02*
X152454058Y-89388043D01*
X152723432Y-88377891D02*
X153161165Y-87940158D01*
X153161165Y-87940158D02*
X153194836Y-88445234D01*
X153194836Y-88445234D02*
X153295852Y-88344219D01*
X153295852Y-88344219D02*
X153396867Y-88310547D01*
X153396867Y-88310547D02*
X153464210Y-88310547D01*
X153464210Y-88310547D02*
X153565226Y-88344219D01*
X153565226Y-88344219D02*
X153733584Y-88512578D01*
X153733584Y-88512578D02*
X153767256Y-88613593D01*
X153767256Y-88613593D02*
X153767256Y-88680937D01*
X153767256Y-88680937D02*
X153733584Y-88781952D01*
X153733584Y-88781952D02*
X153531554Y-88983982D01*
X153531554Y-88983982D02*
X153430539Y-89017654D01*
X153430539Y-89017654D02*
X153363195Y-89017654D01*
X154541707Y-87973830D02*
X154137646Y-88377891D01*
X154339676Y-88175860D02*
X153632569Y-87468753D01*
X153632569Y-87468753D02*
X153666241Y-87637112D01*
X153666241Y-87637112D02*
X153666241Y-87771799D01*
X153666241Y-87771799D02*
X153632569Y-87872814D01*
X143759821Y-90572357D02*
X143283630Y-90905690D01*
X143759821Y-91143785D02*
X142759821Y-91143785D01*
X142759821Y-91143785D02*
X142759821Y-90762833D01*
X142759821Y-90762833D02*
X142807440Y-90667595D01*
X142807440Y-90667595D02*
X142855059Y-90619976D01*
X142855059Y-90619976D02*
X142950297Y-90572357D01*
X142950297Y-90572357D02*
X143093154Y-90572357D01*
X143093154Y-90572357D02*
X143188392Y-90619976D01*
X143188392Y-90619976D02*
X143236011Y-90667595D01*
X143236011Y-90667595D02*
X143283630Y-90762833D01*
X143283630Y-90762833D02*
X143283630Y-91143785D01*
X143759821Y-89619976D02*
X143759821Y-90191404D01*
X143759821Y-89905690D02*
X142759821Y-89905690D01*
X142759821Y-89905690D02*
X142902678Y-90000928D01*
X142902678Y-90000928D02*
X142997916Y-90096166D01*
X142997916Y-90096166D02*
X143045535Y-90191404D01*
X143188392Y-89048547D02*
X143140773Y-89143785D01*
X143140773Y-89143785D02*
X143093154Y-89191404D01*
X143093154Y-89191404D02*
X142997916Y-89239023D01*
X142997916Y-89239023D02*
X142950297Y-89239023D01*
X142950297Y-89239023D02*
X142855059Y-89191404D01*
X142855059Y-89191404D02*
X142807440Y-89143785D01*
X142807440Y-89143785D02*
X142759821Y-89048547D01*
X142759821Y-89048547D02*
X142759821Y-88858071D01*
X142759821Y-88858071D02*
X142807440Y-88762833D01*
X142807440Y-88762833D02*
X142855059Y-88715214D01*
X142855059Y-88715214D02*
X142950297Y-88667595D01*
X142950297Y-88667595D02*
X142997916Y-88667595D01*
X142997916Y-88667595D02*
X143093154Y-88715214D01*
X143093154Y-88715214D02*
X143140773Y-88762833D01*
X143140773Y-88762833D02*
X143188392Y-88858071D01*
X143188392Y-88858071D02*
X143188392Y-89048547D01*
X143188392Y-89048547D02*
X143236011Y-89143785D01*
X143236011Y-89143785D02*
X143283630Y-89191404D01*
X143283630Y-89191404D02*
X143378868Y-89239023D01*
X143378868Y-89239023D02*
X143569344Y-89239023D01*
X143569344Y-89239023D02*
X143664582Y-89191404D01*
X143664582Y-89191404D02*
X143712202Y-89143785D01*
X143712202Y-89143785D02*
X143759821Y-89048547D01*
X143759821Y-89048547D02*
X143759821Y-88858071D01*
X143759821Y-88858071D02*
X143712202Y-88762833D01*
X143712202Y-88762833D02*
X143664582Y-88715214D01*
X143664582Y-88715214D02*
X143569344Y-88667595D01*
X143569344Y-88667595D02*
X143378868Y-88667595D01*
X143378868Y-88667595D02*
X143283630Y-88715214D01*
X143283630Y-88715214D02*
X143236011Y-88762833D01*
X143236011Y-88762833D02*
X143188392Y-88858071D01*
X157911905Y-84854819D02*
X157911905Y-85664342D01*
X157911905Y-85664342D02*
X157959524Y-85759580D01*
X157959524Y-85759580D02*
X158007143Y-85807200D01*
X158007143Y-85807200D02*
X158102381Y-85854819D01*
X158102381Y-85854819D02*
X158292857Y-85854819D01*
X158292857Y-85854819D02*
X158388095Y-85807200D01*
X158388095Y-85807200D02*
X158435714Y-85759580D01*
X158435714Y-85759580D02*
X158483333Y-85664342D01*
X158483333Y-85664342D02*
X158483333Y-84854819D01*
X159483333Y-85854819D02*
X158911905Y-85854819D01*
X159197619Y-85854819D02*
X159197619Y-84854819D01*
X159197619Y-84854819D02*
X159102381Y-84997676D01*
X159102381Y-84997676D02*
X159007143Y-85092914D01*
X159007143Y-85092914D02*
X158911905Y-85140533D01*
X160340476Y-85188152D02*
X160340476Y-85854819D01*
X160102381Y-84807200D02*
X159864286Y-85521485D01*
X159864286Y-85521485D02*
X160483333Y-85521485D01*
D13*
%TO.C,LS1*%
X121600000Y-96000001D02*
X121600000Y-95000000D01*
X122100000Y-95500000D02*
X121100000Y-95500000D01*
X123600000Y-93500000D02*
X123600000Y-94129999D01*
X123600000Y-100130000D02*
X123600000Y-96870000D01*
X123600000Y-102870001D02*
X123600000Y-103500000D01*
X123600000Y-103500000D02*
X133600000Y-103500000D01*
X133600000Y-93500000D02*
X123600000Y-93500000D01*
X133600000Y-94129999D02*
X133600000Y-93500000D01*
X133600000Y-100130000D02*
X133600000Y-96870000D01*
X133600000Y-103500000D02*
X133600000Y-102870001D01*
X135100000Y-96000000D02*
X135100000Y-95000000D01*
D14*
%TO.C,U11*%
X78172800Y-69422800D02*
X78172800Y-85577200D01*
X78172800Y-85577200D02*
X94327200Y-85577200D01*
X94327200Y-69422800D02*
X78172800Y-69422800D01*
X94327200Y-85577200D02*
X94327200Y-69422800D01*
D15*
%TO.C,R26*%
X122864564Y-89590000D02*
X118510436Y-89590000D01*
X122864564Y-93010000D02*
X118510436Y-93010000D01*
D16*
%TO.C,U13*%
X113930000Y-90500000D02*
X113919975Y-52490000D01*
X135910000Y-50500000D02*
X115910000Y-50490000D01*
X135910000Y-92470000D02*
X115910000Y-92480000D01*
X137880000Y-90500000D02*
X137900000Y-52490000D01*
X113919975Y-52490000D02*
G75*
G02*
X115909999Y-50490000I2000024J1D01*
G01*
X115910000Y-92480000D02*
G75*
G02*
X113930000Y-90500000I1J1980001D01*
G01*
X135910000Y-50500000D02*
G75*
G02*
X137900000Y-52490000I0J-1990000D01*
G01*
X137880000Y-90500000D02*
G75*
G02*
X135910000Y-92470000I-1970000J0D01*
G01*
D15*
%TO.C,R20*%
X141087978Y-79290773D02*
X141286789Y-79091962D01*
X141809227Y-80012022D02*
X142008038Y-79813211D01*
%TO.C,C33*%
X157233237Y-92413686D02*
X157940344Y-93120793D01*
X157940344Y-92413686D02*
X157233237Y-93120793D01*
X159103284Y-100103222D02*
X156503253Y-102703254D01*
X159131568Y-100131506D02*
X156538608Y-102724467D01*
X159159853Y-100159791D02*
X156574670Y-102744973D01*
X159188137Y-100188075D02*
X156610733Y-102765479D01*
X159216421Y-100216359D02*
X156647502Y-102785278D01*
X159244706Y-100244643D02*
X156684272Y-102805077D01*
X159272990Y-100272928D02*
X156721041Y-102824876D01*
X159301274Y-100301212D02*
X156757811Y-102844675D01*
X159329558Y-100329496D02*
X156795288Y-102863767D01*
X159357843Y-100357780D02*
X156833471Y-102882152D01*
X159386127Y-100386065D02*
X156870948Y-102901244D01*
X159414411Y-100414349D02*
X156909839Y-102918921D01*
X159442695Y-100442633D02*
X156948023Y-102937306D01*
X159470980Y-100470918D02*
X156986914Y-102954984D01*
X159499264Y-100499202D02*
X157025805Y-102972661D01*
X159527548Y-100527486D02*
X157065402Y-102989632D01*
X159555833Y-100555770D02*
X157105000Y-103006602D01*
X159584117Y-100584055D02*
X157144598Y-103023573D01*
X159612401Y-100612339D02*
X157184904Y-103039837D01*
X159640685Y-100640623D02*
X157225209Y-103056100D01*
X159668970Y-100668907D02*
X157266221Y-103071656D01*
X159697254Y-100697192D02*
X157307233Y-103087213D01*
X159725538Y-100725476D02*
X157348245Y-103102769D01*
X159753822Y-100753760D02*
X157389964Y-103117618D01*
X159782107Y-100782045D02*
X157431684Y-103132467D01*
X159810391Y-100810329D02*
X157474110Y-103146610D01*
X159838675Y-100838613D02*
X157516537Y-103160752D01*
X159866960Y-100866897D02*
X157558963Y-103174894D01*
X159895244Y-100895182D02*
X157602097Y-103188329D01*
X159923528Y-100923466D02*
X157645937Y-103201057D01*
X159951812Y-100951750D02*
X157689778Y-103213785D01*
X159980097Y-100980034D02*
X157733618Y-103226513D01*
X160008381Y-101008319D02*
X157778166Y-103238534D01*
X160036665Y-101036603D02*
X157822714Y-103250554D01*
X160064949Y-101064887D02*
X157867969Y-103261868D01*
X160093234Y-101093172D02*
X157913224Y-103273182D01*
X160121518Y-101121456D02*
X157959185Y-103283788D01*
X160149802Y-101149740D02*
X158005854Y-103293688D01*
X160178087Y-101178024D02*
X158051816Y-103304294D01*
X160206371Y-101206309D02*
X158099193Y-103313487D01*
X160234655Y-101234593D02*
X158146569Y-103322679D01*
X160262939Y-101262877D02*
X158193945Y-103331872D01*
X160291224Y-101291161D02*
X158242028Y-103340357D01*
X160319508Y-101319446D02*
X158290819Y-103348135D01*
X160347792Y-101347730D02*
X158339609Y-103355913D01*
X160376076Y-101376014D02*
X158389106Y-103362984D01*
X160404361Y-101404299D02*
X158438604Y-103370055D01*
X160432645Y-101432583D02*
X158489516Y-103375712D01*
X160460929Y-101460867D02*
X158539720Y-103382076D01*
X160489214Y-101489151D02*
X158591339Y-103387026D01*
X160517498Y-101517436D02*
X158642958Y-103391976D01*
X160545782Y-101545720D02*
X158694577Y-103396925D01*
X160574066Y-101574004D02*
X158747610Y-103400461D01*
X160602351Y-101602288D02*
X158800643Y-103403996D01*
X160630635Y-101630573D02*
X158854383Y-103406825D01*
X160658919Y-101658857D02*
X158908123Y-103409653D01*
X160687203Y-101687141D02*
X158963277Y-103411068D01*
X160715488Y-101715426D02*
X159018431Y-103412482D01*
X160743772Y-101743710D02*
X159074293Y-103413189D01*
X160772056Y-101771994D02*
X159130861Y-103413189D01*
X160800340Y-101800278D02*
X159188137Y-103412482D01*
X160828625Y-101828563D02*
X159246120Y-103411068D01*
X162667102Y-94729211D02*
X155482898Y-101913415D01*
X162695387Y-94757495D02*
X155511182Y-101941700D01*
X162722964Y-94786486D02*
X155540173Y-101969277D01*
X162751248Y-94814770D02*
X155568457Y-101997561D01*
X162778118Y-94844469D02*
X155598156Y-102024431D01*
X162805695Y-94873460D02*
X155627147Y-102052008D01*
X162832565Y-94903159D02*
X155656846Y-102078878D01*
X162859435Y-94932857D02*
X155686544Y-102105748D01*
X162886306Y-94962556D02*
X155716243Y-102132619D01*
X162912468Y-94992961D02*
X155746648Y-102158781D01*
X162938631Y-95023367D02*
X155777054Y-102184944D01*
X162964794Y-95053773D02*
X155807460Y-102211107D01*
X162990250Y-95084885D02*
X155838572Y-102236563D01*
X163016413Y-95115291D02*
X155868978Y-102262726D01*
X163041162Y-95147111D02*
X155900798Y-102287475D01*
X163066618Y-95178223D02*
X155931910Y-102312931D01*
X163090659Y-101489858D02*
X162243545Y-102336972D01*
X163091366Y-95210043D02*
X155963730Y-102337679D01*
X163116115Y-95241863D02*
X155995550Y-102362428D01*
X163140157Y-95274390D02*
X156028077Y-102386470D01*
X163164198Y-95306917D02*
X156060604Y-102410511D01*
X163188240Y-95339444D02*
X156093131Y-102434553D01*
X163212282Y-95371971D02*
X156125658Y-102458595D01*
X163235616Y-95405205D02*
X156158892Y-102481929D01*
X163248344Y-101275605D02*
X162029292Y-102494657D01*
X163258951Y-95438439D02*
X156192126Y-102505264D01*
X163281578Y-95472380D02*
X156226067Y-102527891D01*
X163304206Y-95506321D02*
X156260008Y-102550519D01*
X163326833Y-95540262D02*
X156293949Y-102573146D01*
X163349460Y-95574203D02*
X156327890Y-102595773D01*
X163361481Y-101105899D02*
X161859586Y-102607794D01*
X163371381Y-95608851D02*
X156362538Y-102617694D01*
X163393301Y-95643500D02*
X156397187Y-102639614D01*
X163414514Y-95678855D02*
X156432542Y-102660827D01*
X163436435Y-95713503D02*
X156467190Y-102682748D01*
X163451991Y-100958821D02*
X161712508Y-102698304D01*
X163456941Y-95749566D02*
X160856909Y-98349597D01*
X163478154Y-95784921D02*
X160885193Y-98377881D01*
X163498660Y-95820983D02*
X160913478Y-98406166D01*
X163519166Y-95857046D02*
X160941762Y-98434450D01*
X163527651Y-100826592D02*
X161580279Y-102773964D01*
X163538965Y-95893815D02*
X160970046Y-98462734D01*
X163558764Y-95930585D02*
X160998330Y-98491019D01*
X163578563Y-95967354D02*
X161026615Y-98519303D01*
X163592705Y-100704970D02*
X161458657Y-102839018D01*
X163598362Y-96004124D02*
X161054899Y-98547587D01*
X163617454Y-96041601D02*
X161083183Y-98575871D01*
X163635839Y-96079784D02*
X161111467Y-98604156D01*
X163649981Y-100591126D02*
X161344813Y-102896294D01*
X163654931Y-96117261D02*
X161139752Y-98632440D01*
X163672608Y-96156152D02*
X161168036Y-98660724D01*
X163690993Y-96194336D02*
X161196320Y-98689008D01*
X163700893Y-100483645D02*
X161237332Y-102947206D01*
X163708671Y-96233227D02*
X161224605Y-98717293D01*
X163726348Y-96272118D02*
X161252889Y-98745577D01*
X163743319Y-96311715D02*
X161281173Y-98773861D01*
X163746147Y-100381822D02*
X161135509Y-102992460D01*
X163760289Y-96351313D02*
X161309457Y-98802146D01*
X163777260Y-96390911D02*
X161337742Y-98830430D01*
X163787160Y-100284241D02*
X161037928Y-103033473D01*
X163793524Y-96431217D02*
X161366026Y-98858714D01*
X163809787Y-96471522D02*
X161394310Y-98886998D01*
X163824636Y-100190196D02*
X160943883Y-103070949D01*
X163825343Y-96512534D02*
X161422594Y-98915283D01*
X163840900Y-96553546D02*
X161450879Y-98943567D01*
X163856456Y-96594558D02*
X161479163Y-98971851D01*
X163857870Y-100100394D02*
X160854081Y-103104183D01*
X163871305Y-96636277D02*
X161507447Y-99000135D01*
X163886154Y-96677997D02*
X161535732Y-99028420D01*
X163888983Y-100012712D02*
X160766399Y-103135296D01*
X163900297Y-96720423D02*
X161564016Y-99056704D01*
X163914439Y-96762850D02*
X161592300Y-99084988D01*
X163917267Y-99927860D02*
X160681547Y-103163580D01*
X163928581Y-96805276D02*
X161620584Y-99113273D01*
X163942016Y-96848410D02*
X161648869Y-99141557D01*
X163943430Y-99845128D02*
X160598815Y-103189743D01*
X163954744Y-96892250D02*
X161677153Y-99169841D01*
X163967472Y-96936091D02*
X161705437Y-99198125D01*
X163967472Y-99764518D02*
X160518205Y-103213785D01*
X163980200Y-96979931D02*
X161733721Y-99226410D01*
X163989392Y-99686029D02*
X160439716Y-103235705D01*
X163992221Y-97024479D02*
X161762006Y-99254694D01*
X164004241Y-97069027D02*
X161790290Y-99282978D01*
X164009191Y-99609662D02*
X160363349Y-103255504D01*
X164015555Y-97114282D02*
X161818574Y-99311262D01*
X164026869Y-97159537D02*
X161846859Y-99339547D01*
X164027576Y-99534708D02*
X160288395Y-103273889D01*
X164037475Y-97205498D02*
X161875143Y-99367831D01*
X164044546Y-99461169D02*
X160214856Y-103290859D01*
X164047375Y-97252167D02*
X161903427Y-99396115D01*
X164057981Y-97298129D02*
X161931711Y-99424400D01*
X164060103Y-99389044D02*
X160142731Y-103306416D01*
X164067174Y-97345506D02*
X161959996Y-99452684D01*
X164074245Y-99318334D02*
X160072021Y-103320558D01*
X164076366Y-97392882D02*
X161988280Y-99480968D01*
X164085559Y-97440258D02*
X162016564Y-99509252D01*
X164086973Y-99249037D02*
X160002724Y-103333286D01*
X164094044Y-97488341D02*
X162044848Y-99537537D01*
X164098994Y-99180448D02*
X159934135Y-103345307D01*
X164101822Y-97537132D02*
X162073133Y-99565821D01*
X164109600Y-97585922D02*
X162101417Y-99594105D01*
X164109600Y-99113273D02*
X159866960Y-103355913D01*
X164116671Y-97635419D02*
X162129701Y-99622389D01*
X164118793Y-99047512D02*
X159801199Y-103365106D01*
X164123742Y-97684917D02*
X162157986Y-99650674D01*
X164127278Y-98982458D02*
X159736145Y-103373591D01*
X164129399Y-97735829D02*
X162186270Y-99678958D01*
X164135056Y-98918111D02*
X159671798Y-103381369D01*
X164135763Y-97786033D02*
X162214554Y-99707242D01*
X164140713Y-97837652D02*
X162242838Y-99735527D01*
X164141420Y-98855179D02*
X159608866Y-103387733D01*
X164145663Y-97889271D02*
X162271123Y-99763811D01*
X164147784Y-98792246D02*
X159545933Y-103394097D01*
X164150612Y-97940890D02*
X162299407Y-99792095D01*
X164152734Y-98730728D02*
X159484415Y-103399047D01*
X164154148Y-97993923D02*
X162327691Y-99820379D01*
X164156976Y-98669917D02*
X159423604Y-103403289D01*
X164157683Y-98046956D02*
X162355975Y-99848664D01*
X164159805Y-98610520D02*
X159364207Y-103406118D01*
X164160512Y-98100696D02*
X162384260Y-99876948D01*
X164162633Y-98551123D02*
X159304810Y-103408946D01*
X164163340Y-98154436D02*
X162412544Y-99905232D01*
X164164755Y-98209590D02*
X162440828Y-99933516D01*
X164164755Y-98492433D02*
X162582250Y-100074938D01*
X164166169Y-98264744D02*
X162469113Y-99961801D01*
X164166169Y-98434450D02*
X162553965Y-100046653D01*
X164166876Y-98320606D02*
X162497397Y-99990085D01*
X164166876Y-98377174D02*
X162525681Y-100018369D01*
X164195000Y-98321313D02*
G75*
G02*
X153955000Y-98321313I-5120000J0D01*
G01*
X153955000Y-98321313D02*
G75*
G02*
X164195000Y-98321313I5120000J0D01*
G01*
%TO.C,D5*%
X187502502Y-93744963D02*
X187502502Y-95664963D01*
X187502502Y-95664963D02*
X190187501Y-95664963D01*
X190187501Y-93744963D02*
X187502502Y-93744963D01*
%TO.C,R2*%
X152731666Y-85170593D02*
X152396133Y-84835060D01*
X153470593Y-84431666D02*
X153135060Y-84096133D01*
%TO.C,R1*%
X154696133Y-87985060D02*
X155031666Y-88320593D01*
X155435060Y-87246133D02*
X155770593Y-87581666D01*
%TO.C,C44*%
X197384418Y-100244961D02*
X197665580Y-100244961D01*
X197384418Y-101264961D02*
X197665580Y-101264961D01*
%TO.C,U16*%
X189714999Y-97332461D02*
X189714999Y-98592460D01*
X189714999Y-104152461D02*
X189714999Y-102892462D01*
X193474999Y-97332460D02*
X189714999Y-97332461D01*
X193474999Y-104152462D02*
X189714999Y-104152461D01*
X194994999Y-104382461D02*
X194514999Y-104382461D01*
X194754999Y-104052461D01*
X194994999Y-104382461D01*
G36*
X194994999Y-104382461D02*
G01*
X194514999Y-104382461D01*
X194754999Y-104052461D01*
X194994999Y-104382461D01*
G37*
%TO.C,C42*%
X157840000Y-87665581D02*
X157840000Y-87384419D01*
X158860000Y-87665581D02*
X158860000Y-87384419D01*
%TO.C,R17*%
X142887258Y-86702500D02*
X142412742Y-86702500D01*
X142887258Y-87747500D02*
X142412742Y-87747500D01*
%TO.C,J2*%
X168187500Y-93880000D02*
X181177500Y-93880000D01*
X168187500Y-96260000D02*
X168187500Y-93880000D01*
X168187500Y-102620000D02*
X168187500Y-96860000D01*
X181177500Y-93880000D02*
X181177500Y-102620000D01*
X181177500Y-102620000D02*
X168187500Y-102620000D01*
X168187500Y-96560000D02*
X167577500Y-97000000D01*
X167577500Y-96120000D01*
X168187500Y-96560000D01*
G36*
X168187500Y-96560000D02*
G01*
X167577500Y-97000000D01*
X167577500Y-96120000D01*
X168187500Y-96560000D01*
G37*
%TO.C,C43*%
X197384418Y-97944959D02*
X197665580Y-97944959D01*
X197384418Y-98964959D02*
X197665580Y-98964959D01*
D14*
%TO.C,Q2*%
X130849000Y-89451200D02*
X130849000Y-91102200D01*
X131887860Y-89451200D02*
X130849000Y-89451200D01*
X132162139Y-91102200D02*
X132837861Y-91102200D01*
X134151000Y-89451200D02*
X133112140Y-89451200D01*
X134151000Y-91102200D02*
X134151000Y-89451200D01*
X131576200Y-92276700D02*
G75*
G02*
X131423800Y-92276700I-76200J0D01*
G01*
X131423800Y-92276700D02*
G75*
G02*
X131576200Y-92276700I76200J0D01*
G01*
D15*
%TO.C,R19*%
X157887742Y-83327500D02*
X158362258Y-83327500D01*
X157887742Y-84372500D02*
X158362258Y-84372500D01*
%TO.C,BT1*%
X168230000Y-84370000D02*
X181220000Y-84370000D01*
X168230000Y-86750000D02*
X168230000Y-84370000D01*
X168230000Y-93110000D02*
X168230000Y-87350000D01*
X181220000Y-84370000D02*
X181220000Y-93110000D01*
X181220000Y-93110000D02*
X168230000Y-93110000D01*
X168230000Y-87050000D02*
X167620000Y-87490000D01*
X167620000Y-86610000D01*
X168230000Y-87050000D01*
G36*
X168230000Y-87050000D02*
G01*
X167620000Y-87490000D01*
X167620000Y-86610000D01*
X168230000Y-87050000D01*
G37*
D13*
%TO.C,U15*%
X146060000Y-57430000D02*
X208800000Y-57430000D01*
X146060000Y-82830000D02*
X146060000Y-57430000D01*
X208800000Y-57430000D02*
X208800000Y-82830000D01*
X208800000Y-82830000D02*
X146060000Y-82830000D01*
D10*
X147558001Y-83846000D02*
G75*
G02*
X147357999Y-83846000I-100001J0D01*
G01*
X147357999Y-83846000D02*
G75*
G02*
X147558001Y-83846000I100001J0D01*
G01*
D14*
%TO.C,J3*%
X176388550Y-51444150D02*
X176388550Y-57006749D01*
X176388550Y-57006749D02*
X182636950Y-57006749D01*
X180952903Y-51444150D02*
X176388550Y-51444150D01*
X182636950Y-57006749D02*
X182636950Y-52976823D01*
D17*
X184260650Y-53671150D02*
G75*
G02*
X183498650Y-53671150I-381000J0D01*
G01*
X183498650Y-53671150D02*
G75*
G02*
X184260650Y-53671150I381000J0D01*
G01*
D15*
%TO.C,R21*%
X189537258Y-95882458D02*
X189062742Y-95882458D01*
X189537258Y-96927458D02*
X189062742Y-96927458D01*
%TO.C,R3*%
X150889940Y-85928867D02*
X150554407Y-85593334D01*
X151628867Y-85189940D02*
X151293334Y-84854407D01*
D14*
%TO.C,J1*%
X139637300Y-95268700D02*
X139637300Y-100831300D01*
X139637300Y-100831300D02*
X149898900Y-100831300D01*
X149898900Y-95268700D02*
X139637300Y-95268700D01*
X149898900Y-100831300D02*
X149898900Y-95268700D01*
D17*
X152311900Y-97504299D02*
G75*
G02*
X151549900Y-97504299I-381000J0D01*
G01*
X151549900Y-97504299D02*
G75*
G02*
X152311900Y-97504299I381000J0D01*
G01*
D14*
%TO.C,J4*%
X169538550Y-51444150D02*
X169538550Y-57006749D01*
X169538550Y-57006749D02*
X175786950Y-57006749D01*
X174102903Y-51444150D02*
X169538550Y-51444150D01*
X175786950Y-57006749D02*
X175786950Y-52976823D01*
D17*
X177410650Y-53671150D02*
G75*
G02*
X176648650Y-53671150I-381000J0D01*
G01*
X176648650Y-53671150D02*
G75*
G02*
X177410650Y-53671150I381000J0D01*
G01*
D15*
%TO.C,R31*%
X152114940Y-86996133D02*
X151779407Y-87331666D01*
X152853867Y-87735060D02*
X152518334Y-88070593D01*
%TO.C,R18*%
X141352502Y-89692242D02*
X141352502Y-90166758D01*
X142397502Y-89692242D02*
X142397502Y-90166758D01*
%TO.C,U14*%
X154502722Y-85824999D02*
X154626466Y-85701255D01*
X154803242Y-86125519D02*
X154502722Y-85824999D01*
X155948755Y-84378966D02*
X156072499Y-84255222D01*
X156072499Y-84255222D02*
X156373019Y-84555742D01*
X156072499Y-87394776D02*
X155771979Y-87094256D01*
X156196243Y-87271032D02*
X156072499Y-87394776D01*
X157629733Y-85837542D02*
X157518532Y-85948743D01*
X157493784Y-85634080D02*
X157295794Y-85436090D01*
X157493784Y-85238100D01*
X157493784Y-85634080D01*
G36*
X157493784Y-85634080D02*
G01*
X157295794Y-85436090D01*
X157493784Y-85238100D01*
X157493784Y-85634080D01*
G37*
%TD*%
M02*
